<mxfile host="Electron" agent="Mozilla/5.0 (Windows NT 10.0; Win64; x64) AppleWebKit/537.36 (KHTML, like Gecko) draw.io/26.2.15 Chrome/134.0.6998.205 Electron/35.2.1 Safari/537.36" version="26.2.15">
  <diagram name="StylesToSearch_OverView" id="52a04d89-c75d-2922-d76d-85b35f80e030">
    <mxGraphModel dx="1036" dy="625" grid="1" gridSize="10" guides="1" tooltips="1" connect="1" arrows="1" fold="1" page="1" pageScale="1" pageWidth="1600" pageHeight="1200" background="none" math="0" shadow="0">
      <root>
        <mxCell id="0" />
        <mxCell id="1" parent="0" />
        <mxCell id="xhv0wLZYi7GkWhCUx-0s-59" value="" style="rounded=0;whiteSpace=wrap;html=1;fillColor=#ffcc99;strokeColor=#36393d;movable=1;resizable=1;rotatable=1;deletable=1;editable=1;locked=0;connectable=1;" parent="1" vertex="1">
          <mxGeometry x="960.5" y="619" width="562.5" height="300" as="geometry" />
        </mxCell>
        <mxCell id="xhv0wLZYi7GkWhCUx-0s-31" value="" style="rounded=0;whiteSpace=wrap;html=1;fillColor=#f8cecc;strokeColor=#b85450;movable=1;resizable=1;rotatable=1;deletable=1;editable=1;locked=0;connectable=1;" parent="1" vertex="1">
          <mxGeometry x="60" y="697" width="480" height="322" as="geometry" />
        </mxCell>
        <mxCell id="xhv0wLZYi7GkWhCUx-0s-20" value="" style="rounded=0;whiteSpace=wrap;html=1;fillColor=#d5e8d4;strokeColor=#82b366;movable=1;resizable=1;rotatable=1;deletable=1;editable=1;locked=0;connectable=1;" parent="1" vertex="1">
          <mxGeometry x="43" y="35.5" width="810" height="643.5" as="geometry" />
        </mxCell>
        <mxCell id="yD_MzK_ey8LRAl_vmp_s-18" value="" style="rounded=0;whiteSpace=wrap;html=1;fillColor=#fff2cc;strokeColor=#d6b656;movable=1;resizable=1;rotatable=1;deletable=1;editable=1;locked=0;connectable=1;" parent="1" vertex="1">
          <mxGeometry x="890" y="35.5" width="640" height="561" as="geometry" />
        </mxCell>
        <mxCell id="1fdf3b25b50cf41e-27" style="edgeStyle=none;html=1;labelBackgroundColor=none;startFill=0;startSize=8;endFill=1;endSize=8;fontFamily=Verdana;fontSize=12;" parent="1" source="17472293e6e8944d-30" target="1fdf3b25b50cf41e-1" edge="1">
          <mxGeometry relative="1" as="geometry" />
        </mxCell>
        <mxCell id="xhv0wLZYi7GkWhCUx-0s-41" style="edgeStyle=orthogonalEdgeStyle;rounded=0;orthogonalLoop=1;jettySize=auto;html=1;strokeWidth=2;startArrow=diamond;startFill=1;" parent="1" source="17472293e6e8944d-30" target="xhv0wLZYi7GkWhCUx-0s-32" edge="1">
          <mxGeometry relative="1" as="geometry">
            <Array as="points">
              <mxPoint x="23" y="789" />
              <mxPoint x="181" y="789" />
            </Array>
          </mxGeometry>
        </mxCell>
        <mxCell id="17472293e6e8944d-30" value="Signal&lt;div&gt;ShareFile&lt;/div&gt;" style="whiteSpace=wrap;html=1;rounded=0;shadow=0;comic=0;labelBackgroundColor=none;strokeWidth=1;fontFamily=Verdana;fontSize=12;align=center;" parent="1" vertex="1">
          <mxGeometry x="3" y="49" width="120" height="50" as="geometry" />
        </mxCell>
        <mxCell id="g8Iwsq_xnKXBDACLDN1Q-27" style="edgeStyle=orthogonalEdgeStyle;rounded=0;orthogonalLoop=1;jettySize=auto;html=1;" parent="1" source="1fdf3b25b50cf41e-1" target="g8Iwsq_xnKXBDACLDN1Q-25" edge="1">
          <mxGeometry relative="1" as="geometry">
            <mxPoint x="423" y="75.125" as="targetPoint" />
          </mxGeometry>
        </mxCell>
        <mxCell id="1fdf3b25b50cf41e-1" value="R" style="swimlane;html=1;fontStyle=0;childLayout=stackLayout;horizontal=1;startSize=26;fillColor=#e0e0e0;horizontalStack=0;resizeParent=1;resizeLast=0;collapsible=1;marginBottom=0;swimlaneFillColor=#ffffff;align=center;rounded=1;shadow=0;comic=0;labelBackgroundColor=none;strokeWidth=1;fontFamily=Verdana;fontSize=12" parent="1" vertex="1">
          <mxGeometry x="173" y="49" width="200" height="52.25" as="geometry">
            <mxRectangle x="190" y="53" width="50" height="30" as="alternateBounds" />
          </mxGeometry>
        </mxCell>
        <mxCell id="1fdf3b25b50cf41e-2" value="Listado_Archivos-Signal.R&lt;div&gt;&lt;br&gt;&lt;/div&gt;" style="text;html=1;strokeColor=none;fillColor=none;spacingLeft=4;spacingRight=4;whiteSpace=wrap;overflow=hidden;rotatable=0;points=[[0,0.5],[1,0.5]];portConstraint=eastwest;align=center;" parent="1fdf3b25b50cf41e-1" vertex="1">
          <mxGeometry y="26" width="200" height="24" as="geometry" />
        </mxCell>
        <mxCell id="g8Iwsq_xnKXBDACLDN1Q-44" style="edgeStyle=orthogonalEdgeStyle;rounded=0;orthogonalLoop=1;jettySize=auto;html=1;exitX=1;exitY=0.5;exitDx=0;exitDy=0;exitPerimeter=0;" parent="1" source="g8Iwsq_xnKXBDACLDN1Q-1" target="g8Iwsq_xnKXBDACLDN1Q-25" edge="1">
          <mxGeometry relative="1" as="geometry">
            <Array as="points">
              <mxPoint x="513" y="171" />
            </Array>
          </mxGeometry>
        </mxCell>
        <mxCell id="g8Iwsq_xnKXBDACLDN1Q-1" value="file_list.sqlite" style="shape=cylinder3;whiteSpace=wrap;html=1;boundedLbl=1;backgroundOutline=1;size=15;" parent="1" vertex="1">
          <mxGeometry x="123" y="128" width="140" height="86" as="geometry" />
        </mxCell>
        <mxCell id="g8Iwsq_xnKXBDACLDN1Q-30" style="edgeStyle=orthogonalEdgeStyle;rounded=0;orthogonalLoop=1;jettySize=auto;html=1;exitX=0.5;exitY=1;exitDx=0;exitDy=0;" parent="1" source="g8Iwsq_xnKXBDACLDN1Q-8" target="g8Iwsq_xnKXBDACLDN1Q-23" edge="1">
          <mxGeometry relative="1" as="geometry">
            <Array as="points">
              <mxPoint x="393" y="329" />
              <mxPoint x="533" y="329" />
            </Array>
          </mxGeometry>
        </mxCell>
        <mxCell id="g8Iwsq_xnKXBDACLDN1Q-8" value="R" style="swimlane;html=1;fontStyle=0;childLayout=stackLayout;horizontal=1;startSize=26;fillColor=#e0e0e0;horizontalStack=0;resizeParent=1;resizeLast=0;collapsible=1;marginBottom=0;swimlaneFillColor=#ffffff;align=center;rounded=1;shadow=0;comic=0;labelBackgroundColor=none;strokeWidth=1;fontFamily=Verdana;fontSize=12" parent="1" vertex="1">
          <mxGeometry x="293" y="253" width="200" height="56" as="geometry">
            <mxRectangle x="190" y="53" width="50" height="30" as="alternateBounds" />
          </mxGeometry>
        </mxCell>
        <mxCell id="g8Iwsq_xnKXBDACLDN1Q-9" value="Listado_Archivos-nCommerce.R" style="text;html=1;strokeColor=none;fillColor=none;spacingLeft=4;spacingRight=4;whiteSpace=wrap;overflow=hidden;rotatable=0;points=[[0,0.5],[1,0.5]];portConstraint=eastwest;align=center;" parent="g8Iwsq_xnKXBDACLDN1Q-8" vertex="1">
          <mxGeometry y="26" width="200" height="24" as="geometry" />
        </mxCell>
        <mxCell id="g8Iwsq_xnKXBDACLDN1Q-13" style="edgeStyle=orthogonalEdgeStyle;rounded=0;orthogonalLoop=1;jettySize=auto;html=1;" parent="1" source="g8Iwsq_xnKXBDACLDN1Q-11" target="g8Iwsq_xnKXBDACLDN1Q-9" edge="1">
          <mxGeometry relative="1" as="geometry" />
        </mxCell>
        <mxCell id="g8Iwsq_xnKXBDACLDN1Q-11" value="Ncommerce - Guess" style="whiteSpace=wrap;html=1;rounded=0;shadow=0;comic=0;labelBackgroundColor=none;strokeWidth=1;fontFamily=Verdana;fontSize=12;align=center;" parent="1" vertex="1">
          <mxGeometry x="123" y="234" width="120" height="50" as="geometry" />
        </mxCell>
        <mxCell id="g8Iwsq_xnKXBDACLDN1Q-14" style="edgeStyle=orthogonalEdgeStyle;rounded=0;orthogonalLoop=1;jettySize=auto;html=1;exitX=1;exitY=0.5;exitDx=0;exitDy=0;entryX=0;entryY=0.5;entryDx=0;entryDy=0;" parent="1" source="g8Iwsq_xnKXBDACLDN1Q-12" target="g8Iwsq_xnKXBDACLDN1Q-9" edge="1">
          <mxGeometry relative="1" as="geometry" />
        </mxCell>
        <mxCell id="g8Iwsq_xnKXBDACLDN1Q-12" value="Internet/Shotting" style="whiteSpace=wrap;html=1;rounded=0;shadow=0;comic=0;labelBackgroundColor=none;strokeWidth=1;fontFamily=Verdana;fontSize=12;align=center;" parent="1" vertex="1">
          <mxGeometry x="123" y="297" width="120" height="50" as="geometry" />
        </mxCell>
        <mxCell id="g8Iwsq_xnKXBDACLDN1Q-29" style="edgeStyle=orthogonalEdgeStyle;rounded=0;orthogonalLoop=1;jettySize=auto;html=1;" parent="1" source="g8Iwsq_xnKXBDACLDN1Q-15" target="g8Iwsq_xnKXBDACLDN1Q-23" edge="1">
          <mxGeometry relative="1" as="geometry" />
        </mxCell>
        <mxCell id="g8Iwsq_xnKXBDACLDN1Q-15" value="R" style="swimlane;html=1;fontStyle=0;childLayout=stackLayout;horizontal=1;startSize=26;fillColor=#e0e0e0;horizontalStack=0;resizeParent=1;resizeLast=0;collapsible=1;marginBottom=0;swimlaneFillColor=#ffffff;align=center;rounded=1;shadow=0;comic=0;labelBackgroundColor=none;strokeWidth=1;fontFamily=Verdana;fontSize=12" parent="1" vertex="1">
          <mxGeometry x="293" y="359" width="200" height="50" as="geometry">
            <mxRectangle x="190" y="53" width="50" height="30" as="alternateBounds" />
          </mxGeometry>
        </mxCell>
        <mxCell id="g8Iwsq_xnKXBDACLDN1Q-16" value="Listado_Archivos-Ecom_Guess.R" style="text;html=1;strokeColor=none;fillColor=none;spacingLeft=4;spacingRight=4;whiteSpace=wrap;overflow=hidden;rotatable=0;points=[[0,0.5],[1,0.5]];portConstraint=eastwest;align=center;" parent="g8Iwsq_xnKXBDACLDN1Q-15" vertex="1">
          <mxGeometry y="26" width="200" height="24" as="geometry" />
        </mxCell>
        <mxCell id="g8Iwsq_xnKXBDACLDN1Q-22" style="edgeStyle=orthogonalEdgeStyle;rounded=0;orthogonalLoop=1;jettySize=auto;html=1;" parent="1" source="g8Iwsq_xnKXBDACLDN1Q-18" target="g8Iwsq_xnKXBDACLDN1Q-15" edge="1">
          <mxGeometry relative="1" as="geometry" />
        </mxCell>
        <mxCell id="g8Iwsq_xnKXBDACLDN1Q-18" value="SharePoint Guess ECOM" style="whiteSpace=wrap;html=1;rounded=0;shadow=0;comic=0;labelBackgroundColor=none;strokeWidth=1;fontFamily=Verdana;fontSize=12;align=center;" parent="1" vertex="1">
          <mxGeometry x="123" y="359" width="120" height="50" as="geometry" />
        </mxCell>
        <mxCell id="xhv0wLZYi7GkWhCUx-0s-30" style="edgeStyle=orthogonalEdgeStyle;rounded=0;orthogonalLoop=1;jettySize=auto;html=1;exitX=0.5;exitY=1;exitDx=0;exitDy=0;exitPerimeter=0;" parent="1" source="g8Iwsq_xnKXBDACLDN1Q-23" target="yMqCcKG1LHusifFFbwbr-4" edge="1">
          <mxGeometry relative="1" as="geometry">
            <Array as="points">
              <mxPoint x="533" y="644" />
            </Array>
          </mxGeometry>
        </mxCell>
        <mxCell id="hp9oeOOODYRauGGsMiqM-5" style="edgeStyle=orthogonalEdgeStyle;rounded=0;orthogonalLoop=1;jettySize=auto;html=1;strokeWidth=2;dashed=1;flowAnimation=1;shadow=1;" parent="1" source="g8Iwsq_xnKXBDACLDN1Q-23" target="xhv0wLZYi7GkWhCUx-0s-61" edge="1">
          <mxGeometry relative="1" as="geometry">
            <Array as="points">
              <mxPoint x="550" y="689" />
              <mxPoint x="893" y="689" />
              <mxPoint x="893" y="759" />
            </Array>
          </mxGeometry>
        </mxCell>
        <mxCell id="g8Iwsq_xnKXBDACLDN1Q-23" value="guess_hb_materiales.sqlite" style="shape=cylinder3;whiteSpace=wrap;html=1;boundedLbl=1;backgroundOutline=1;size=15;" parent="1" vertex="1">
          <mxGeometry x="453" y="519" width="160" height="86" as="geometry" />
        </mxCell>
        <mxCell id="g8Iwsq_xnKXBDACLDN1Q-24" style="edgeStyle=orthogonalEdgeStyle;rounded=0;orthogonalLoop=1;jettySize=auto;html=1;entryX=0.5;entryY=0;entryDx=0;entryDy=0;entryPerimeter=0;" parent="1" source="1fdf3b25b50cf41e-2" target="g8Iwsq_xnKXBDACLDN1Q-1" edge="1">
          <mxGeometry relative="1" as="geometry">
            <Array as="points">
              <mxPoint x="273" y="109" />
              <mxPoint x="193" y="109" />
            </Array>
          </mxGeometry>
        </mxCell>
        <mxCell id="g8Iwsq_xnKXBDACLDN1Q-25" value="R" style="swimlane;html=1;fontStyle=0;childLayout=stackLayout;horizontal=1;startSize=26;fillColor=#e0e0e0;horizontalStack=0;resizeParent=1;resizeLast=0;collapsible=1;marginBottom=0;swimlaneFillColor=#ffffff;align=center;rounded=1;shadow=0;comic=0;labelBackgroundColor=none;strokeWidth=1;fontFamily=Verdana;fontSize=12" parent="1" vertex="1">
          <mxGeometry x="413" y="49" width="200" height="52.25" as="geometry">
            <mxRectangle x="190" y="53" width="50" height="30" as="alternateBounds" />
          </mxGeometry>
        </mxCell>
        <mxCell id="g8Iwsq_xnKXBDACLDN1Q-26" value="&lt;div&gt;Signal_HB_Guess.R&lt;/div&gt;" style="text;html=1;strokeColor=none;fillColor=none;spacingLeft=4;spacingRight=4;whiteSpace=wrap;overflow=hidden;rotatable=0;points=[[0,0.5],[1,0.5]];portConstraint=eastwest;align=center;" parent="g8Iwsq_xnKXBDACLDN1Q-25" vertex="1">
          <mxGeometry y="26" width="200" height="24" as="geometry" />
        </mxCell>
        <mxCell id="g8Iwsq_xnKXBDACLDN1Q-32" style="edgeStyle=orthogonalEdgeStyle;rounded=0;orthogonalLoop=1;jettySize=auto;html=1;entryX=0.5;entryY=0;entryDx=0;entryDy=0;entryPerimeter=0;" parent="1" source="g8Iwsq_xnKXBDACLDN1Q-25" target="g8Iwsq_xnKXBDACLDN1Q-23" edge="1">
          <mxGeometry relative="1" as="geometry">
            <mxPoint x="498" y="216" as="sourcePoint" />
            <mxPoint x="543" y="443" as="targetPoint" />
            <Array as="points">
              <mxPoint x="533" y="189" />
              <mxPoint x="533" y="189" />
            </Array>
          </mxGeometry>
        </mxCell>
        <mxCell id="g8Iwsq_xnKXBDACLDN1Q-37" value="Lista de Colores" style="swimlane;fontStyle=0;childLayout=stackLayout;horizontal=1;startSize=30;horizontalStack=0;resizeParent=1;resizeParentMax=0;resizeLast=0;collapsible=1;marginBottom=0;whiteSpace=wrap;html=1;" parent="1" vertex="1">
          <mxGeometry x="673" y="49" width="140" height="120" as="geometry">
            <mxRectangle x="690" y="30" width="130" height="30" as="alternateBounds" />
          </mxGeometry>
        </mxCell>
        <mxCell id="g8Iwsq_xnKXBDACLDN1Q-38" value="Lista de Materiales" style="text;strokeColor=none;fillColor=none;align=left;verticalAlign=middle;spacingLeft=4;spacingRight=4;overflow=hidden;points=[[0,0.5],[1,0.5]];portConstraint=eastwest;rotatable=0;whiteSpace=wrap;html=1;" parent="g8Iwsq_xnKXBDACLDN1Q-37" vertex="1">
          <mxGeometry y="30" width="140" height="30" as="geometry" />
        </mxCell>
        <mxCell id="g8Iwsq_xnKXBDACLDN1Q-39" value="Charts" style="text;strokeColor=none;fillColor=none;align=left;verticalAlign=middle;spacingLeft=4;spacingRight=4;overflow=hidden;points=[[0,0.5],[1,0.5]];portConstraint=eastwest;rotatable=0;whiteSpace=wrap;html=1;" parent="g8Iwsq_xnKXBDACLDN1Q-37" vertex="1">
          <mxGeometry y="60" width="140" height="30" as="geometry" />
        </mxCell>
        <mxCell id="g8Iwsq_xnKXBDACLDN1Q-40" value="Formatos compra temp." style="text;strokeColor=none;fillColor=none;align=left;verticalAlign=middle;spacingLeft=4;spacingRight=4;overflow=hidden;points=[[0,0.5],[1,0.5]];portConstraint=eastwest;rotatable=0;whiteSpace=wrap;html=1;" parent="g8Iwsq_xnKXBDACLDN1Q-37" vertex="1">
          <mxGeometry y="90" width="140" height="30" as="geometry" />
        </mxCell>
        <mxCell id="g8Iwsq_xnKXBDACLDN1Q-42" style="edgeStyle=orthogonalEdgeStyle;rounded=0;orthogonalLoop=1;jettySize=auto;html=1;" parent="1" source="g8Iwsq_xnKXBDACLDN1Q-37" target="g8Iwsq_xnKXBDACLDN1Q-25" edge="1">
          <mxGeometry relative="1" as="geometry" />
        </mxCell>
        <mxCell id="yD_MzK_ey8LRAl_vmp_s-13" style="edgeStyle=orthogonalEdgeStyle;rounded=0;orthogonalLoop=1;jettySize=auto;html=1;" parent="1" source="g8Iwsq_xnKXBDACLDN1Q-46" target="g8Iwsq_xnKXBDACLDN1Q-37" edge="1">
          <mxGeometry relative="1" as="geometry" />
        </mxCell>
        <mxCell id="g8Iwsq_xnKXBDACLDN1Q-46" value="R" style="swimlane;html=1;fontStyle=0;childLayout=stackLayout;horizontal=1;startSize=26;fillColor=#e0e0e0;horizontalStack=0;resizeParent=1;resizeLast=0;collapsible=1;marginBottom=0;swimlaneFillColor=#ffffff;align=center;rounded=1;shadow=0;comic=0;labelBackgroundColor=none;strokeWidth=1;fontFamily=Verdana;fontSize=12" parent="1" vertex="1">
          <mxGeometry x="643" y="189.75" width="200" height="52.25" as="geometry">
            <mxRectangle x="190" y="53" width="50" height="30" as="alternateBounds" />
          </mxGeometry>
        </mxCell>
        <mxCell id="g8Iwsq_xnKXBDACLDN1Q-47" value="&lt;span style=&quot;text-align: left;&quot;&gt;Colores_from_base_materiales.R&lt;/span&gt;" style="text;html=1;strokeColor=none;fillColor=none;spacingLeft=4;spacingRight=4;whiteSpace=wrap;overflow=hidden;rotatable=0;points=[[0,0.5],[1,0.5]];portConstraint=eastwest;align=center;" parent="g8Iwsq_xnKXBDACLDN1Q-46" vertex="1">
          <mxGeometry y="26" width="200" height="24" as="geometry" />
        </mxCell>
        <mxCell id="yMqCcKG1LHusifFFbwbr-1" value="Colores.sqlite" style="shape=cylinder3;whiteSpace=wrap;html=1;boundedLbl=1;backgroundOutline=1;size=15;" parent="1" vertex="1">
          <mxGeometry x="553" y="323" width="160" height="86" as="geometry" />
        </mxCell>
        <mxCell id="yMqCcKG1LHusifFFbwbr-2" style="edgeStyle=orthogonalEdgeStyle;rounded=0;orthogonalLoop=1;jettySize=auto;html=1;entryX=0.5;entryY=0;entryDx=0;entryDy=0;entryPerimeter=0;" parent="1" source="g8Iwsq_xnKXBDACLDN1Q-26" target="yMqCcKG1LHusifFFbwbr-1" edge="1">
          <mxGeometry relative="1" as="geometry" />
        </mxCell>
        <mxCell id="yMqCcKG1LHusifFFbwbr-4" value="R" style="swimlane;html=1;fontStyle=0;childLayout=stackLayout;horizontal=1;startSize=26;fillColor=#e0e0e0;horizontalStack=0;resizeParent=1;resizeLast=0;collapsible=1;marginBottom=0;swimlaneFillColor=#ffffff;align=center;rounded=1;shadow=0;comic=0;labelBackgroundColor=none;strokeWidth=1;fontFamily=Verdana;fontSize=12" parent="1" vertex="1">
          <mxGeometry x="573" y="619" width="200" height="50" as="geometry">
            <mxRectangle x="190" y="53" width="50" height="30" as="alternateBounds" />
          </mxGeometry>
        </mxCell>
        <mxCell id="yMqCcKG1LHusifFFbwbr-5" value="&lt;span style=&quot;text-align: left;&quot;&gt;Exportar_inventario_csv.R&lt;/span&gt;" style="text;html=1;strokeColor=none;fillColor=none;spacingLeft=4;spacingRight=4;whiteSpace=wrap;overflow=hidden;rotatable=0;points=[[0,0.5],[1,0.5]];portConstraint=eastwest;align=center;" parent="yMqCcKG1LHusifFFbwbr-4" vertex="1">
          <mxGeometry y="26" width="200" height="24" as="geometry" />
        </mxCell>
        <mxCell id="xhv0wLZYi7GkWhCUx-0s-38" style="edgeStyle=orthogonalEdgeStyle;rounded=0;orthogonalLoop=1;jettySize=auto;html=1;dashed=1;dashPattern=8 8;fillColor=#f8cecc;strokeColor=#FF0000;startArrow=oval;startFill=0;flowAnimation=1;align=center;verticalAlign=middle;fontFamily=Helvetica;fontSize=11;fontColor=default;labelBackgroundColor=default;endArrow=classic;" parent="1" source="yD_MzK_ey8LRAl_vmp_s-1" target="g8Iwsq_xnKXBDACLDN1Q-46" edge="1">
          <mxGeometry relative="1" as="geometry">
            <Array as="points">
              <mxPoint x="153" y="419" />
              <mxPoint x="743" y="419" />
            </Array>
          </mxGeometry>
        </mxCell>
        <mxCell id="xhv0wLZYi7GkWhCUx-0s-25" style="edgeStyle=orthogonalEdgeStyle;rounded=0;orthogonalLoop=1;jettySize=auto;html=1;" parent="1" source="yD_MzK_ey8LRAl_vmp_s-1" target="yD_MzK_ey8LRAl_vmp_s-2" edge="1">
          <mxGeometry relative="1" as="geometry" />
        </mxCell>
        <mxCell id="yD_MzK_ey8LRAl_vmp_s-1" value="Información Comercial" style="swimlane;whiteSpace=wrap;html=1;fillColor=#e1d5e7;strokeColor=#9673a6;" parent="1" vertex="1">
          <mxGeometry x="53" y="469.5" width="200" height="143" as="geometry" />
        </mxCell>
        <mxCell id="yMqCcKG1LHusifFFbwbr-8" value="R" style="swimlane;html=1;fontStyle=0;childLayout=stackLayout;horizontal=1;startSize=26;fillColor=#e0e0e0;horizontalStack=0;resizeParent=1;resizeLast=0;collapsible=1;marginBottom=0;swimlaneFillColor=#ffffff;align=center;rounded=1;shadow=0;comic=0;labelBackgroundColor=none;strokeWidth=1;fontFamily=Verdana;fontSize=12" parent="yD_MzK_ey8LRAl_vmp_s-1" vertex="1">
          <mxGeometry y="83" width="200" height="50" as="geometry">
            <mxRectangle x="190" y="53" width="50" height="30" as="alternateBounds" />
          </mxGeometry>
        </mxCell>
        <mxCell id="yMqCcKG1LHusifFFbwbr-9" value="latest_lista_precios.R" style="text;html=1;strokeColor=none;fillColor=none;spacingLeft=4;spacingRight=4;whiteSpace=wrap;overflow=hidden;rotatable=0;points=[[0,0.5],[1,0.5]];portConstraint=eastwest;align=center;" parent="yMqCcKG1LHusifFFbwbr-8" vertex="1">
          <mxGeometry y="26" width="200" height="24" as="geometry" />
        </mxCell>
        <mxCell id="yMqCcKG1LHusifFFbwbr-10" value="R" style="swimlane;html=1;fontStyle=0;childLayout=stackLayout;horizontal=1;startSize=26;fillColor=#e0e0e0;horizontalStack=0;resizeParent=1;resizeLast=0;collapsible=1;marginBottom=0;swimlaneFillColor=#ffffff;align=center;rounded=1;shadow=0;comic=0;labelBackgroundColor=none;strokeWidth=1;fontFamily=Verdana;fontSize=12" parent="yD_MzK_ey8LRAl_vmp_s-1" vertex="1">
          <mxGeometry y="26" width="200" height="50" as="geometry">
            <mxRectangle x="190" y="53" width="50" height="30" as="alternateBounds" />
          </mxGeometry>
        </mxCell>
        <mxCell id="yMqCcKG1LHusifFFbwbr-11" value="latest_base_materiales.R" style="text;html=1;strokeColor=none;fillColor=none;spacingLeft=4;spacingRight=4;whiteSpace=wrap;overflow=hidden;rotatable=0;points=[[0,0.5],[1,0.5]];portConstraint=eastwest;align=center;" parent="yMqCcKG1LHusifFFbwbr-10" vertex="1">
          <mxGeometry y="26" width="200" height="24" as="geometry" />
        </mxCell>
        <mxCell id="xhv0wLZYi7GkWhCUx-0s-29" style="edgeStyle=orthogonalEdgeStyle;rounded=0;orthogonalLoop=1;jettySize=auto;html=1;" parent="1" source="yD_MzK_ey8LRAl_vmp_s-2" target="yMqCcKG1LHusifFFbwbr-4" edge="1">
          <mxGeometry relative="1" as="geometry">
            <Array as="points">
              <mxPoint x="363" y="644" />
            </Array>
          </mxGeometry>
        </mxCell>
        <mxCell id="yD_MzK_ey8LRAl_vmp_s-2" value="guess_hb.sqlite" style="shape=cylinder3;whiteSpace=wrap;html=1;boundedLbl=1;backgroundOutline=1;size=15;" parent="1" vertex="1">
          <mxGeometry x="273" y="498" width="160" height="86" as="geometry" />
        </mxCell>
        <mxCell id="yD_MzK_ey8LRAl_vmp_s-9" value="" style="edgeStyle=orthogonalEdgeStyle;rounded=0;orthogonalLoop=1;jettySize=auto;html=1;" parent="1" target="g8Iwsq_xnKXBDACLDN1Q-46" edge="1">
          <mxGeometry relative="1" as="geometry">
            <mxPoint x="743.0588235294117" y="266" as="sourcePoint" />
          </mxGeometry>
        </mxCell>
        <mxCell id="xhv0wLZYi7GkWhCUx-0s-5" style="edgeStyle=orthogonalEdgeStyle;rounded=0;orthogonalLoop=1;jettySize=auto;html=1;" parent="1" source="yD_MzK_ey8LRAl_vmp_s-11" target="xhv0wLZYi7GkWhCUx-0s-1" edge="1">
          <mxGeometry relative="1" as="geometry" />
        </mxCell>
        <mxCell id="xhv0wLZYi7GkWhCUx-0s-53" style="edgeStyle=orthogonalEdgeStyle;rounded=0;orthogonalLoop=1;jettySize=auto;html=1;" parent="1" source="yD_MzK_ey8LRAl_vmp_s-11" target="yD_MzK_ey8LRAl_vmp_s-24" edge="1">
          <mxGeometry relative="1" as="geometry">
            <Array as="points">
              <mxPoint x="860" y="729" />
              <mxPoint x="718" y="729" />
            </Array>
          </mxGeometry>
        </mxCell>
        <mxCell id="yD_MzK_ey8LRAl_vmp_s-11" value="Inventario General" style="html=1;rounded=0;shadow=0;comic=0;labelBackgroundColor=none;strokeWidth=2;fontFamily=Verdana;fontSize=12;align=center;shape=mxgraph.ios7ui.horLines;" parent="1" vertex="1">
          <mxGeometry x="793" y="534" width="135" height="50" as="geometry" />
        </mxCell>
        <mxCell id="yD_MzK_ey8LRAl_vmp_s-12" style="edgeStyle=orthogonalEdgeStyle;rounded=0;orthogonalLoop=1;jettySize=auto;html=1;entryX=0.002;entryY=0.5;entryDx=0;entryDy=0;entryPerimeter=0;exitX=0.5;exitY=0;exitDx=0;exitDy=0;" parent="1" source="yMqCcKG1LHusifFFbwbr-4" target="yD_MzK_ey8LRAl_vmp_s-11" edge="1">
          <mxGeometry relative="1" as="geometry">
            <mxPoint x="673" y="599" as="sourcePoint" />
            <Array as="points">
              <mxPoint x="673" y="559" />
            </Array>
          </mxGeometry>
        </mxCell>
        <mxCell id="yD_MzK_ey8LRAl_vmp_s-20" value="&lt;h1 style=&quot;margin-top: 0px;&quot;&gt;Primer Flujo ETL&lt;/h1&gt;&lt;p&gt;Inventario de activos digitales a partir de distintas fuentes con información comercial relevante&lt;/p&gt;" style="text;html=1;whiteSpace=wrap;overflow=hidden;rounded=0;" parent="1" vertex="1">
          <mxGeometry x="563" y="419" width="270" height="100" as="geometry" />
        </mxCell>
        <mxCell id="yD_MzK_ey8LRAl_vmp_s-21" value="&lt;h1 style=&quot;margin-top: 0px;&quot;&gt;Segundo Flujo ETL&lt;/h1&gt;&lt;p&gt;Busqueda, edición en lote y renombre de los activos digitales para los clientes Wholesale de la marca del departamento de Bolsas&lt;/p&gt;" style="text;html=1;whiteSpace=wrap;overflow=hidden;rounded=0;" parent="1" vertex="1">
          <mxGeometry x="898" y="38" width="370" height="90" as="geometry" />
        </mxCell>
        <mxCell id="yD_MzK_ey8LRAl_vmp_s-24" value="Auxiliar Excel" style="swimlane;fontStyle=0;childLayout=stackLayout;horizontal=1;startSize=30;horizontalStack=0;resizeParent=1;resizeParentMax=0;resizeLast=0;collapsible=1;marginBottom=0;whiteSpace=wrap;html=1;" parent="1" vertex="1">
          <mxGeometry x="606" y="749" width="247" height="120" as="geometry" />
        </mxCell>
        <mxCell id="yD_MzK_ey8LRAl_vmp_s-25" value="Busqueda por codigo Material" style="text;strokeColor=none;fillColor=none;align=left;verticalAlign=middle;spacingLeft=4;spacingRight=4;overflow=hidden;points=[[0,0.5],[1,0.5]];portConstraint=eastwest;rotatable=0;whiteSpace=wrap;html=1;" parent="yD_MzK_ey8LRAl_vmp_s-24" vertex="1">
          <mxGeometry y="30" width="247" height="30" as="geometry" />
        </mxCell>
        <mxCell id="yD_MzK_ey8LRAl_vmp_s-26" value="Busqueda por codigo UPC" style="text;strokeColor=none;fillColor=none;align=left;verticalAlign=middle;spacingLeft=4;spacingRight=4;overflow=hidden;points=[[0,0.5],[1,0.5]];portConstraint=eastwest;rotatable=0;whiteSpace=wrap;html=1;" parent="yD_MzK_ey8LRAl_vmp_s-24" vertex="1">
          <mxGeometry y="60" width="247" height="30" as="geometry" />
        </mxCell>
        <mxCell id="yD_MzK_ey8LRAl_vmp_s-27" value="Conteo por codigo estilo" style="text;strokeColor=none;fillColor=none;align=left;verticalAlign=middle;spacingLeft=4;spacingRight=4;overflow=hidden;points=[[0,0.5],[1,0.5]];portConstraint=eastwest;rotatable=0;whiteSpace=wrap;html=1;" parent="yD_MzK_ey8LRAl_vmp_s-24" vertex="1">
          <mxGeometry y="90" width="247" height="30" as="geometry" />
        </mxCell>
        <mxCell id="xhv0wLZYi7GkWhCUx-0s-37" style="edgeStyle=orthogonalEdgeStyle;rounded=0;orthogonalLoop=1;jettySize=auto;html=1;" parent="1" source="yD_MzK_ey8LRAl_vmp_s-28" target="xhv0wLZYi7GkWhCUx-0s-34" edge="1">
          <mxGeometry relative="1" as="geometry">
            <Array as="points">
              <mxPoint x="1313" y="489" />
              <mxPoint x="1213" y="489" />
            </Array>
          </mxGeometry>
        </mxCell>
        <mxCell id="yD_MzK_ey8LRAl_vmp_s-28" value="Flujos para clientes" style="swimlane;fontStyle=0;childLayout=stackLayout;horizontal=1;startSize=30;horizontalStack=0;resizeParent=1;resizeParentMax=0;resizeLast=0;collapsible=1;marginBottom=0;whiteSpace=wrap;html=1;" parent="1" vertex="1">
          <mxGeometry x="1263" y="84" width="100" height="390" as="geometry" />
        </mxCell>
        <mxCell id="yD_MzK_ey8LRAl_vmp_s-30" value="Amazon" style="text;strokeColor=none;fillColor=none;align=left;verticalAlign=middle;spacingLeft=4;spacingRight=4;overflow=hidden;points=[[0,0.5],[1,0.5]];portConstraint=eastwest;rotatable=0;whiteSpace=wrap;html=1;" parent="yD_MzK_ey8LRAl_vmp_s-28" vertex="1">
          <mxGeometry y="30" width="100" height="30" as="geometry" />
        </mxCell>
        <mxCell id="yD_MzK_ey8LRAl_vmp_s-31" value="Bodesa" style="text;strokeColor=none;fillColor=none;align=left;verticalAlign=middle;spacingLeft=4;spacingRight=4;overflow=hidden;points=[[0,0.5],[1,0.5]];portConstraint=eastwest;rotatable=0;whiteSpace=wrap;html=1;" parent="yD_MzK_ey8LRAl_vmp_s-28" vertex="1">
          <mxGeometry y="60" width="100" height="30" as="geometry" />
        </mxCell>
        <mxCell id="yD_MzK_ey8LRAl_vmp_s-38" value="Chapur" style="text;strokeColor=none;fillColor=none;align=left;verticalAlign=middle;spacingLeft=4;spacingRight=4;overflow=hidden;points=[[0,0.5],[1,0.5]];portConstraint=eastwest;rotatable=0;whiteSpace=wrap;html=1;" parent="yD_MzK_ey8LRAl_vmp_s-28" vertex="1">
          <mxGeometry y="90" width="100" height="30" as="geometry" />
        </mxCell>
        <mxCell id="yD_MzK_ey8LRAl_vmp_s-37" value="Cimaco" style="text;strokeColor=none;fillColor=none;align=left;verticalAlign=middle;spacingLeft=4;spacingRight=4;overflow=hidden;points=[[0,0.5],[1,0.5]];portConstraint=eastwest;rotatable=0;whiteSpace=wrap;html=1;" parent="yD_MzK_ey8LRAl_vmp_s-28" vertex="1">
          <mxGeometry y="120" width="100" height="30" as="geometry" />
        </mxCell>
        <mxCell id="yD_MzK_ey8LRAl_vmp_s-36" value="Coppel" style="text;strokeColor=none;fillColor=none;align=left;verticalAlign=middle;spacingLeft=4;spacingRight=4;overflow=hidden;points=[[0,0.5],[1,0.5]];portConstraint=eastwest;rotatable=0;whiteSpace=wrap;html=1;" parent="yD_MzK_ey8LRAl_vmp_s-28" vertex="1">
          <mxGeometry y="150" width="100" height="30" as="geometry" />
        </mxCell>
        <mxCell id="yD_MzK_ey8LRAl_vmp_s-35" value="General (copia de archivos)" style="text;strokeColor=none;fillColor=none;align=left;verticalAlign=middle;spacingLeft=4;spacingRight=4;overflow=hidden;points=[[0,0.5],[1,0.5]];portConstraint=eastwest;rotatable=0;whiteSpace=wrap;html=1;" parent="yD_MzK_ey8LRAl_vmp_s-28" vertex="1">
          <mxGeometry y="180" width="100" height="30" as="geometry" />
        </mxCell>
        <mxCell id="yD_MzK_ey8LRAl_vmp_s-34" value="Liverpool" style="text;strokeColor=none;fillColor=none;align=left;verticalAlign=middle;spacingLeft=4;spacingRight=4;overflow=hidden;points=[[0,0.5],[1,0.5]];portConstraint=eastwest;rotatable=0;whiteSpace=wrap;html=1;" parent="yD_MzK_ey8LRAl_vmp_s-28" vertex="1">
          <mxGeometry y="210" width="100" height="30" as="geometry" />
        </mxCell>
        <mxCell id="yD_MzK_ey8LRAl_vmp_s-33" value="Mercado Libre" style="text;strokeColor=none;fillColor=none;align=left;verticalAlign=middle;spacingLeft=4;spacingRight=4;overflow=hidden;points=[[0,0.5],[1,0.5]];portConstraint=eastwest;rotatable=0;whiteSpace=wrap;html=1;" parent="yD_MzK_ey8LRAl_vmp_s-28" vertex="1">
          <mxGeometry y="240" width="100" height="30" as="geometry" />
        </mxCell>
        <mxCell id="yD_MzK_ey8LRAl_vmp_s-32" value="Palacio de Hierro" style="text;strokeColor=none;fillColor=none;align=left;verticalAlign=middle;spacingLeft=4;spacingRight=4;overflow=hidden;points=[[0,0.5],[1,0.5]];portConstraint=eastwest;rotatable=0;whiteSpace=wrap;html=1;" parent="yD_MzK_ey8LRAl_vmp_s-28" vertex="1">
          <mxGeometry y="270" width="100" height="30" as="geometry" />
        </mxCell>
        <mxCell id="yD_MzK_ey8LRAl_vmp_s-39" value="Privalia" style="text;strokeColor=none;fillColor=none;align=left;verticalAlign=middle;spacingLeft=4;spacingRight=4;overflow=hidden;points=[[0,0.5],[1,0.5]];portConstraint=eastwest;rotatable=0;whiteSpace=wrap;html=1;" parent="yD_MzK_ey8LRAl_vmp_s-28" vertex="1">
          <mxGeometry y="300" width="100" height="30" as="geometry" />
        </mxCell>
        <mxCell id="yD_MzK_ey8LRAl_vmp_s-40" value="Sanborns" style="text;strokeColor=none;fillColor=none;align=left;verticalAlign=middle;spacingLeft=4;spacingRight=4;overflow=hidden;points=[[0,0.5],[1,0.5]];portConstraint=eastwest;rotatable=0;whiteSpace=wrap;html=1;" parent="yD_MzK_ey8LRAl_vmp_s-28" vertex="1">
          <mxGeometry y="330" width="100" height="30" as="geometry" />
        </mxCell>
        <mxCell id="yD_MzK_ey8LRAl_vmp_s-41" value="Sears" style="text;strokeColor=none;fillColor=none;align=left;verticalAlign=middle;spacingLeft=4;spacingRight=4;overflow=hidden;points=[[0,0.5],[1,0.5]];portConstraint=eastwest;rotatable=0;whiteSpace=wrap;html=1;" parent="yD_MzK_ey8LRAl_vmp_s-28" vertex="1">
          <mxGeometry y="360" width="100" height="30" as="geometry" />
        </mxCell>
        <mxCell id="yD_MzK_ey8LRAl_vmp_s-42" value="&lt;h1 style=&quot;margin-top: 0px;&quot;&gt;Tercer Flujo ETL&lt;/h1&gt;&lt;p&gt;Limpieza y concatenado de información de medidas (Weight &amp;amp; Materials), relevante para alta de producto y edición de ISOmetricas&lt;/p&gt;" style="text;html=1;whiteSpace=wrap;overflow=hidden;rounded=0;" parent="1" vertex="1">
          <mxGeometry x="68" y="697" width="430" height="102" as="geometry" />
        </mxCell>
        <mxCell id="xhv0wLZYi7GkWhCUx-0s-19" style="edgeStyle=orthogonalEdgeStyle;rounded=0;orthogonalLoop=1;jettySize=auto;html=1;" parent="1" source="xhv0wLZYi7GkWhCUx-0s-1" target="yD_MzK_ey8LRAl_vmp_s-28" edge="1">
          <mxGeometry relative="1" as="geometry" />
        </mxCell>
        <mxCell id="xhv0wLZYi7GkWhCUx-0s-22" style="edgeStyle=orthogonalEdgeStyle;rounded=0;orthogonalLoop=1;jettySize=auto;html=1;" parent="1" source="xhv0wLZYi7GkWhCUx-0s-1" target="xhv0wLZYi7GkWhCUx-0s-12" edge="1">
          <mxGeometry relative="1" as="geometry">
            <Array as="points">
              <mxPoint x="1140" y="164" />
            </Array>
          </mxGeometry>
        </mxCell>
        <mxCell id="xhv0wLZYi7GkWhCUx-0s-1" value="Auxiliar Excel: Selector por material y cliente" style="swimlane;fontStyle=0;childLayout=stackLayout;horizontal=1;startSize=30;horizontalStack=0;resizeParent=1;resizeParentMax=0;resizeLast=0;collapsible=1;marginBottom=0;whiteSpace=wrap;html=1;" parent="1" vertex="1">
          <mxGeometry x="913" y="294" width="260" height="180" as="geometry" />
        </mxCell>
        <mxCell id="xhv0wLZYi7GkWhCUx-0s-2" value="Parametros tecnicos de activos digitales" style="text;strokeColor=none;fillColor=none;align=left;verticalAlign=middle;spacingLeft=4;spacingRight=4;overflow=hidden;points=[[0,0.5],[1,0.5]];portConstraint=eastwest;rotatable=0;whiteSpace=wrap;html=1;" parent="xhv0wLZYi7GkWhCUx-0s-1" vertex="1">
          <mxGeometry y="30" width="260" height="30" as="geometry" />
        </mxCell>
        <mxCell id="xhv0wLZYi7GkWhCUx-0s-6" value="Esquema de renombre" style="text;strokeColor=none;fillColor=none;align=left;verticalAlign=middle;spacingLeft=4;spacingRight=4;overflow=hidden;points=[[0,0.5],[1,0.5]];portConstraint=eastwest;rotatable=0;whiteSpace=wrap;html=1;" parent="xhv0wLZYi7GkWhCUx-0s-1" vertex="1">
          <mxGeometry y="60" width="260" height="30" as="geometry" />
        </mxCell>
        <mxCell id="xhv0wLZYi7GkWhCUx-0s-7" value="Previsualización" style="text;strokeColor=none;fillColor=none;align=left;verticalAlign=middle;spacingLeft=4;spacingRight=4;overflow=hidden;points=[[0,0.5],[1,0.5]];portConstraint=eastwest;rotatable=0;whiteSpace=wrap;html=1;" parent="xhv0wLZYi7GkWhCUx-0s-1" vertex="1">
          <mxGeometry y="90" width="260" height="30" as="geometry" />
        </mxCell>
        <mxCell id="xhv0wLZYi7GkWhCUx-0s-8" value="Conteo general" style="text;strokeColor=none;fillColor=none;align=left;verticalAlign=middle;spacingLeft=4;spacingRight=4;overflow=hidden;points=[[0,0.5],[1,0.5]];portConstraint=eastwest;rotatable=0;whiteSpace=wrap;html=1;" parent="xhv0wLZYi7GkWhCUx-0s-1" vertex="1">
          <mxGeometry y="120" width="260" height="30" as="geometry" />
        </mxCell>
        <mxCell id="xhv0wLZYi7GkWhCUx-0s-9" value="Listado de faltantes" style="text;strokeColor=none;fillColor=none;align=left;verticalAlign=middle;spacingLeft=4;spacingRight=4;overflow=hidden;points=[[0,0.5],[1,0.5]];portConstraint=eastwest;rotatable=0;whiteSpace=wrap;html=1;" parent="xhv0wLZYi7GkWhCUx-0s-1" vertex="1">
          <mxGeometry y="150" width="260" height="30" as="geometry" />
        </mxCell>
        <mxCell id="xhv0wLZYi7GkWhCUx-0s-11" value="" style="swimlane;fontStyle=0;childLayout=stackLayout;horizontal=1;startSize=0;horizontalStack=0;resizeParent=1;resizeParentMax=0;resizeLast=0;collapsible=0;marginBottom=0;whiteSpace=wrap;html=1;strokeColor=none;fillColor=none;" parent="1" vertex="1">
          <mxGeometry x="900" y="149" width="200" height="120" as="geometry" />
        </mxCell>
        <mxCell id="xhv0wLZYi7GkWhCUx-0s-12" value="Herramientas en Excel" style="text;strokeColor=#DFDFDF;fillColor=#F7F7F7;align=left;verticalAlign=middle;spacingLeft=10;spacingRight=10;overflow=hidden;points=[[0,0.5],[1,0.5]];portConstraint=eastwest;rotatable=0;whiteSpace=wrap;html=1;shape=mxgraph.bootstrap.topButton;rSize=5;fontColor=#333333;" parent="xhv0wLZYi7GkWhCUx-0s-11" vertex="1">
          <mxGeometry width="200" height="30" as="geometry" />
        </mxCell>
        <mxCell id="xhv0wLZYi7GkWhCUx-0s-13" value="Power Query" style="text;strokeColor=#DFDFDF;fillColor=#FFFFFF;align=left;verticalAlign=middle;spacingLeft=10;spacingRight=10;overflow=hidden;points=[[0,0.5],[1,0.5]];portConstraint=eastwest;rotatable=0;whiteSpace=wrap;html=1;rSize=5;fontColor=#333333;" parent="xhv0wLZYi7GkWhCUx-0s-11" vertex="1">
          <mxGeometry y="30" width="200" height="30" as="geometry" />
        </mxCell>
        <mxCell id="xhv0wLZYi7GkWhCUx-0s-14" value="Lenguaje M" style="text;strokeColor=#DFDFDF;fillColor=#FFFFFF;align=left;verticalAlign=middle;spacingLeft=10;spacingRight=10;overflow=hidden;points=[[0,0.5],[1,0.5]];portConstraint=eastwest;rotatable=0;whiteSpace=wrap;html=1;rSize=5;fontColor=#333333;" parent="xhv0wLZYi7GkWhCUx-0s-11" vertex="1">
          <mxGeometry y="60" width="200" height="30" as="geometry" />
        </mxCell>
        <mxCell id="xhv0wLZYi7GkWhCUx-0s-15" value="Conexiones datos externos" style="text;strokeColor=#DFDFDF;fillColor=#FFFFFF;align=left;verticalAlign=middle;spacingLeft=10;spacingRight=10;overflow=hidden;points=[[0,0.5],[1,0.5]];portConstraint=eastwest;rotatable=0;whiteSpace=wrap;html=1;shape=mxgraph.bootstrap.bottomButton;rSize=5;fontColor=#333333;" parent="xhv0wLZYi7GkWhCUx-0s-11" vertex="1">
          <mxGeometry y="90" width="200" height="30" as="geometry" />
        </mxCell>
        <mxCell id="xhv0wLZYi7GkWhCUx-0s-26" value="Selección para edición ISOmetricas" style="whiteSpace=wrap;html=1;" parent="1" vertex="1">
          <mxGeometry x="1383" y="379" width="120" height="60" as="geometry" />
        </mxCell>
        <mxCell id="xhv0wLZYi7GkWhCUx-0s-27" style="edgeStyle=orthogonalEdgeStyle;rounded=0;orthogonalLoop=1;jettySize=auto;html=1;startArrow=oval;startFill=1;dashed=1;" parent="1" source="yD_MzK_ey8LRAl_vmp_s-34" target="xhv0wLZYi7GkWhCUx-0s-26" edge="1">
          <mxGeometry relative="1" as="geometry" />
        </mxCell>
        <mxCell id="xhv0wLZYi7GkWhCUx-0s-28" style="edgeStyle=orthogonalEdgeStyle;rounded=0;orthogonalLoop=1;jettySize=auto;html=1;startArrow=oval;startFill=1;dashed=1;" parent="1" source="yD_MzK_ey8LRAl_vmp_s-36" target="xhv0wLZYi7GkWhCUx-0s-26" edge="1">
          <mxGeometry relative="1" as="geometry" />
        </mxCell>
        <mxCell id="xhv0wLZYi7GkWhCUx-0s-44" style="edgeStyle=orthogonalEdgeStyle;rounded=0;orthogonalLoop=1;jettySize=auto;html=1;" parent="1" source="xhv0wLZYi7GkWhCUx-0s-32" target="xhv0wLZYi7GkWhCUx-0s-42" edge="1">
          <mxGeometry relative="1" as="geometry" />
        </mxCell>
        <mxCell id="xhv0wLZYi7GkWhCUx-0s-49" style="edgeStyle=orthogonalEdgeStyle;rounded=0;orthogonalLoop=1;jettySize=auto;html=1;" parent="1" source="xhv0wLZYi7GkWhCUx-0s-32" target="xhv0wLZYi7GkWhCUx-0s-45" edge="1">
          <mxGeometry relative="1" as="geometry" />
        </mxCell>
        <mxCell id="xhv0wLZYi7GkWhCUx-0s-32" value="R" style="swimlane;html=1;fontStyle=0;childLayout=stackLayout;horizontal=1;startSize=26;fillColor=#e0e0e0;horizontalStack=0;resizeParent=1;resizeLast=0;collapsible=1;marginBottom=0;swimlaneFillColor=#ffffff;align=center;rounded=1;shadow=0;comic=0;labelBackgroundColor=none;strokeWidth=1;fontFamily=Verdana;fontSize=12" parent="1" vertex="1">
          <mxGeometry x="81" y="809" width="200" height="50" as="geometry">
            <mxRectangle x="190" y="53" width="50" height="30" as="alternateBounds" />
          </mxGeometry>
        </mxCell>
        <mxCell id="xhv0wLZYi7GkWhCUx-0s-33" value="&lt;div style=&quot;text-align: left;&quot;&gt;&lt;span style=&quot;background-color: transparent;&quot;&gt;Signal_W&amp;amp;M.R&lt;/span&gt;&lt;/div&gt;" style="text;html=1;strokeColor=none;fillColor=none;spacingLeft=4;spacingRight=4;whiteSpace=wrap;overflow=hidden;rotatable=0;points=[[0,0.5],[1,0.5]];portConstraint=eastwest;align=center;" parent="xhv0wLZYi7GkWhCUx-0s-32" vertex="1">
          <mxGeometry y="26" width="200" height="24" as="geometry" />
        </mxCell>
        <mxCell id="xhv0wLZYi7GkWhCUx-0s-39" value="Salida en una carpeta&lt;div&gt;&amp;nbsp;especificada por usuario&lt;/div&gt;" style="text;html=1;align=center;verticalAlign=middle;resizable=0;points=[];autosize=1;strokeColor=none;fillColor=none;" parent="1" vertex="1">
          <mxGeometry x="1318" y="556.5" width="160" height="40" as="geometry" />
        </mxCell>
        <mxCell id="hp9oeOOODYRauGGsMiqM-3" style="edgeStyle=orthogonalEdgeStyle;rounded=0;orthogonalLoop=1;jettySize=auto;html=1;" parent="1" source="xhv0wLZYi7GkWhCUx-0s-34" target="xhv0wLZYi7GkWhCUx-0s-39" edge="1">
          <mxGeometry relative="1" as="geometry">
            <Array as="points">
              <mxPoint x="1213" y="579" />
            </Array>
          </mxGeometry>
        </mxCell>
        <mxCell id="hp9oeOOODYRauGGsMiqM-4" style="edgeStyle=orthogonalEdgeStyle;rounded=0;orthogonalLoop=1;jettySize=auto;html=1;shape=link;strokeWidth=2;shadow=0;flowAnimation=1;" parent="1" source="xhv0wLZYi7GkWhCUx-0s-34" target="hp9oeOOODYRauGGsMiqM-1" edge="1">
          <mxGeometry relative="1" as="geometry" />
        </mxCell>
        <mxCell id="xhv0wLZYi7GkWhCUx-0s-34" value="R" style="swimlane;html=1;fontStyle=0;childLayout=stackLayout;horizontal=1;startSize=26;fillColor=#e0e0e0;horizontalStack=0;resizeParent=1;resizeLast=0;collapsible=1;marginBottom=0;swimlaneFillColor=#ffffff;align=center;rounded=1;shadow=0;comic=0;labelBackgroundColor=none;strokeWidth=1;fontFamily=Verdana;fontSize=12" parent="1" vertex="1">
          <mxGeometry x="1083" y="514.7" width="200" height="50" as="geometry">
            <mxRectangle x="190" y="53" width="50" height="30" as="alternateBounds" />
          </mxGeometry>
        </mxCell>
        <mxCell id="xhv0wLZYi7GkWhCUx-0s-35" value="&lt;span style=&quot;text-align: left;&quot;&gt;styles_to_search - *Cliente*.R&lt;/span&gt;" style="text;html=1;strokeColor=none;fillColor=none;spacingLeft=4;spacingRight=4;whiteSpace=wrap;overflow=hidden;rotatable=0;points=[[0,0.5],[1,0.5]];portConstraint=eastwest;align=center;" parent="xhv0wLZYi7GkWhCUx-0s-34" vertex="1">
          <mxGeometry y="26" width="200" height="24" as="geometry" />
        </mxCell>
        <mxCell id="xhv0wLZYi7GkWhCUx-0s-42" value="Excel" style="swimlane;html=1;fontStyle=0;childLayout=stackLayout;horizontal=1;startSize=26;fillColor=#e0e0e0;horizontalStack=0;resizeParent=1;resizeLast=0;collapsible=1;marginBottom=0;swimlaneFillColor=#ffffff;align=center;rounded=1;shadow=0;comic=0;labelBackgroundColor=none;strokeWidth=1;fontFamily=Verdana;fontSize=12" parent="1" vertex="1">
          <mxGeometry x="321" y="809" width="200" height="50" as="geometry">
            <mxRectangle x="190" y="53" width="50" height="30" as="alternateBounds" />
          </mxGeometry>
        </mxCell>
        <mxCell id="xhv0wLZYi7GkWhCUx-0s-43" value="&lt;div style=&quot;text-align: left;&quot;&gt;&lt;span style=&quot;background-color: transparent;&quot;&gt;W&amp;amp;M.xlsx&lt;/span&gt;&lt;/div&gt;" style="text;html=1;strokeColor=none;fillColor=none;spacingLeft=4;spacingRight=4;whiteSpace=wrap;overflow=hidden;rotatable=0;points=[[0,0.5],[1,0.5]];portConstraint=eastwest;align=center;" parent="xhv0wLZYi7GkWhCUx-0s-42" vertex="1">
          <mxGeometry y="26" width="200" height="24" as="geometry" />
        </mxCell>
        <mxCell id="xhv0wLZYi7GkWhCUx-0s-45" value="Manipulación" style="swimlane;fontStyle=0;childLayout=stackLayout;horizontal=1;startSize=30;horizontalStack=0;resizeParent=1;resizeParentMax=0;resizeLast=0;collapsible=1;marginBottom=0;whiteSpace=wrap;html=1;swimlaneFillColor=none;gradientColor=none;" parent="1" vertex="1">
          <mxGeometry x="111" y="887" width="140" height="120" as="geometry" />
        </mxCell>
        <mxCell id="xhv0wLZYi7GkWhCUx-0s-46" value="Limpieza" style="text;strokeColor=none;fillColor=none;align=left;verticalAlign=middle;spacingLeft=4;spacingRight=4;overflow=hidden;points=[[0,0.5],[1,0.5]];portConstraint=eastwest;rotatable=0;whiteSpace=wrap;html=1;" parent="xhv0wLZYi7GkWhCUx-0s-45" vertex="1">
          <mxGeometry y="30" width="140" height="30" as="geometry" />
        </mxCell>
        <mxCell id="xhv0wLZYi7GkWhCUx-0s-47" value="Selección de información relavante" style="text;strokeColor=none;fillColor=none;align=left;verticalAlign=middle;spacingLeft=4;spacingRight=4;overflow=hidden;points=[[0,0.5],[1,0.5]];portConstraint=eastwest;rotatable=0;whiteSpace=wrap;html=1;" parent="xhv0wLZYi7GkWhCUx-0s-45" vertex="1">
          <mxGeometry y="60" width="140" height="30" as="geometry" />
        </mxCell>
        <mxCell id="xhv0wLZYi7GkWhCUx-0s-48" value="Filtrado de faltantes" style="text;strokeColor=none;fillColor=none;align=left;verticalAlign=middle;spacingLeft=4;spacingRight=4;overflow=hidden;points=[[0,0.5],[1,0.5]];portConstraint=eastwest;rotatable=0;whiteSpace=wrap;html=1;" parent="xhv0wLZYi7GkWhCUx-0s-45" vertex="1">
          <mxGeometry y="90" width="140" height="30" as="geometry" />
        </mxCell>
        <mxCell id="xhv0wLZYi7GkWhCUx-0s-52" style="edgeStyle=orthogonalEdgeStyle;rounded=0;orthogonalLoop=1;jettySize=auto;html=1;dashed=1;dashPattern=8 8;strokeColor=#FF0000;align=center;verticalAlign=middle;fontFamily=Helvetica;fontSize=11;fontColor=default;labelBackgroundColor=default;startArrow=oval;startFill=0;endArrow=classic;fillColor=#f8cecc;flowAnimation=1;" parent="1" source="xhv0wLZYi7GkWhCUx-0s-50" target="xhv0wLZYi7GkWhCUx-0s-34" edge="1">
          <mxGeometry relative="1" as="geometry">
            <Array as="points">
              <mxPoint x="403" y="899" />
              <mxPoint x="940" y="899" />
              <mxPoint x="940" y="534" />
            </Array>
          </mxGeometry>
        </mxCell>
        <mxCell id="xhv0wLZYi7GkWhCUx-0s-50" value="weight_&amp;amp;_materials.sqlite" style="shape=cylinder3;whiteSpace=wrap;html=1;boundedLbl=1;backgroundOutline=1;size=15;gradientColor=none;" parent="1" vertex="1">
          <mxGeometry x="341" y="903" width="160" height="86" as="geometry" />
        </mxCell>
        <mxCell id="xhv0wLZYi7GkWhCUx-0s-51" style="edgeStyle=orthogonalEdgeStyle;rounded=0;orthogonalLoop=1;jettySize=auto;html=1;entryX=0;entryY=0.5;entryDx=0;entryDy=0;entryPerimeter=0;" parent="1" source="xhv0wLZYi7GkWhCUx-0s-32" target="xhv0wLZYi7GkWhCUx-0s-50" edge="1">
          <mxGeometry relative="1" as="geometry">
            <Array as="points">
              <mxPoint x="291" y="834" />
              <mxPoint x="291" y="946" />
            </Array>
          </mxGeometry>
        </mxCell>
        <mxCell id="xhv0wLZYi7GkWhCUx-0s-60" value="&lt;h1 style=&quot;margin-top: 0px;&quot;&gt;Flujos/formatos finales&lt;/h1&gt;&lt;p&gt;Carga ys exportación de información&lt;/p&gt;" style="text;html=1;whiteSpace=wrap;overflow=hidden;rounded=0;" parent="1" vertex="1">
          <mxGeometry x="983" y="639" width="270" height="100" as="geometry" />
        </mxCell>
        <mxCell id="xhv0wLZYi7GkWhCUx-0s-61" value="R" style="swimlane;html=1;fontStyle=0;childLayout=stackLayout;horizontal=1;startSize=26;fillColor=#e0e0e0;horizontalStack=0;resizeParent=1;resizeLast=0;collapsible=1;marginBottom=0;swimlaneFillColor=#ffffff;align=center;rounded=1;shadow=0;comic=0;labelBackgroundColor=none;strokeWidth=1;fontFamily=Verdana;fontSize=12" parent="1" vertex="1">
          <mxGeometry x="983" y="739" width="200" height="74" as="geometry">
            <mxRectangle x="190" y="53" width="50" height="30" as="alternateBounds" />
          </mxGeometry>
        </mxCell>
        <mxCell id="xhv0wLZYi7GkWhCUx-0s-62" value="&lt;div style=&quot;text-align: left;&quot;&gt;Formato - Proforma por Año.R&lt;/div&gt;" style="text;html=1;strokeColor=none;fillColor=none;spacingLeft=4;spacingRight=4;whiteSpace=wrap;overflow=hidden;rotatable=0;points=[[0,0.5],[1,0.5]];portConstraint=eastwest;align=center;" parent="xhv0wLZYi7GkWhCUx-0s-61" vertex="1">
          <mxGeometry y="26" width="200" height="24" as="geometry" />
        </mxCell>
        <mxCell id="xhv0wLZYi7GkWhCUx-0s-73" value="HB Portal - Fronts.R" style="text;html=1;strokeColor=none;fillColor=none;spacingLeft=4;spacingRight=4;whiteSpace=wrap;overflow=hidden;rotatable=0;points=[[0,0.5],[1,0.5]];portConstraint=eastwest;align=center;" parent="xhv0wLZYi7GkWhCUx-0s-61" vertex="1">
          <mxGeometry y="50" width="200" height="24" as="geometry" />
        </mxCell>
        <mxCell id="xhv0wLZYi7GkWhCUx-0s-66" value="" style="shape=image;html=1;verticalLabelPosition=bottom;verticalAlign=top;imageAspect=1;aspect=fixed;image=img/clipart/Gear_128x128.png" parent="1" vertex="1">
          <mxGeometry x="71" y="887" width="38.95" height="45.7" as="geometry" />
        </mxCell>
        <mxCell id="xhv0wLZYi7GkWhCUx-0s-67" value="" style="shape=image;html=1;verticalLabelPosition=bottom;verticalAlign=top;imageAspect=1;aspect=fixed;image=img/clipart/Gear_128x128.png" parent="1" vertex="1">
          <mxGeometry x="401.53" y="969" width="38.95" height="45.7" as="geometry" />
        </mxCell>
        <mxCell id="xhv0wLZYi7GkWhCUx-0s-69" value="" style="shape=image;html=1;verticalLabelPosition=bottom;verticalAlign=top;imageAspect=1;aspect=fixed;image=img/clipart/Gear_128x128.png" parent="1" vertex="1">
          <mxGeometry x="1113" y="488.29999999999995" width="38.95" height="45.7" as="geometry" />
        </mxCell>
        <mxCell id="hp9oeOOODYRauGGsMiqM-6" style="edgeStyle=orthogonalEdgeStyle;rounded=0;orthogonalLoop=1;jettySize=auto;html=1;strokeWidth=2;dashed=1;flowAnimation=1;shadow=1;" parent="1" source="yD_MzK_ey8LRAl_vmp_s-2" target="xhv0wLZYi7GkWhCUx-0s-61" edge="1">
          <mxGeometry relative="1" as="geometry">
            <mxPoint x="543" y="615" as="sourcePoint" />
            <mxPoint x="993" y="769" as="targetPoint" />
            <Array as="points">
              <mxPoint x="353" y="689" />
              <mxPoint x="893" y="689" />
              <mxPoint x="893" y="759" />
            </Array>
          </mxGeometry>
        </mxCell>
        <mxCell id="OTwz23pzZ8tWEuMkrKJt-1" value="Excel::Proforma" style="swimlane;html=1;fontStyle=0;childLayout=stackLayout;horizontal=1;startSize=26;fillColor=#e0e0e0;horizontalStack=0;resizeParent=1;resizeLast=0;collapsible=1;marginBottom=0;swimlaneFillColor=#ffffff;align=center;rounded=1;shadow=0;comic=0;labelBackgroundColor=none;strokeWidth=1;fontFamily=Verdana;fontSize=12" parent="1" vertex="1">
          <mxGeometry x="1288" y="638" width="200" height="151" as="geometry">
            <mxRectangle x="190" y="53" width="50" height="30" as="alternateBounds" />
          </mxGeometry>
        </mxCell>
        <mxCell id="OTwz23pzZ8tWEuMkrKJt-2" value="&lt;div style=&quot;&quot;&gt;Formato con información comercial relevante&lt;/div&gt;" style="text;html=1;strokeColor=none;fillColor=none;spacingLeft=4;spacingRight=4;whiteSpace=wrap;overflow=hidden;rotatable=0;points=[[0,0.5],[1,0.5]];portConstraint=eastwest;align=center;" parent="OTwz23pzZ8tWEuMkrKJt-1" vertex="1">
          <mxGeometry y="26" width="200" height="34" as="geometry" />
        </mxCell>
        <mxCell id="OTwz23pzZ8tWEuMkrKJt-3" value="Mejora presentación varios reportes comerciales" style="text;html=1;strokeColor=none;fillColor=none;spacingLeft=4;spacingRight=4;whiteSpace=wrap;overflow=hidden;rotatable=0;points=[[0,0.5],[1,0.5]];portConstraint=eastwest;align=center;" parent="OTwz23pzZ8tWEuMkrKJt-1" vertex="1">
          <mxGeometry y="60" width="200" height="40" as="geometry" />
        </mxCell>
        <mxCell id="OTwz23pzZ8tWEuMkrKJt-4" value="Lista de activo digitales faltantes" style="text;html=1;strokeColor=none;fillColor=none;spacingLeft=4;spacingRight=4;whiteSpace=wrap;overflow=hidden;rotatable=0;points=[[0,0.5],[1,0.5]];portConstraint=eastwest;align=center;" parent="OTwz23pzZ8tWEuMkrKJt-1" vertex="1">
          <mxGeometry y="100" width="200" height="24" as="geometry" />
        </mxCell>
        <mxCell id="e7JSxl5cCGnPi-11H5tG-2" value="Alerta de nuevos activos digitales" style="text;html=1;strokeColor=none;fillColor=none;spacingLeft=4;spacingRight=4;whiteSpace=wrap;overflow=hidden;rotatable=0;points=[[0,0.5],[1,0.5]];portConstraint=eastwest;align=center;" vertex="1" parent="OTwz23pzZ8tWEuMkrKJt-1">
          <mxGeometry y="124" width="200" height="24" as="geometry" />
        </mxCell>
        <mxCell id="e7JSxl5cCGnPi-11H5tG-1" style="edgeStyle=orthogonalEdgeStyle;rounded=0;orthogonalLoop=1;jettySize=auto;html=1;" edge="1" parent="1" source="xhv0wLZYi7GkWhCUx-0s-62" target="OTwz23pzZ8tWEuMkrKJt-1">
          <mxGeometry relative="1" as="geometry" />
        </mxCell>
        <mxCell id="e7JSxl5cCGnPi-11H5tG-3" value="Sharepoint::Carpeta Compartida" style="swimlane;html=1;fontStyle=0;childLayout=stackLayout;horizontal=1;startSize=26;fillColor=#e0e0e0;horizontalStack=0;resizeParent=1;resizeLast=0;collapsible=1;marginBottom=0;swimlaneFillColor=#ffffff;align=center;rounded=1;shadow=0;comic=0;labelBackgroundColor=none;strokeWidth=1;fontFamily=Verdana;fontSize=12" vertex="1" parent="1">
          <mxGeometry x="1273" y="839" width="225" height="64.65" as="geometry">
            <mxRectangle x="190" y="53" width="50" height="30" as="alternateBounds" />
          </mxGeometry>
        </mxCell>
        <mxCell id="e7JSxl5cCGnPi-11H5tG-4" value="&lt;div style=&quot;&quot;&gt;Activos digitales para plataforma de ventas RTL&lt;/div&gt;" style="text;html=1;strokeColor=none;fillColor=none;spacingLeft=4;spacingRight=4;whiteSpace=wrap;overflow=hidden;rotatable=0;points=[[0,0.5],[1,0.5]];portConstraint=eastwest;align=center;" vertex="1" parent="e7JSxl5cCGnPi-11H5tG-3">
          <mxGeometry y="26" width="225" height="34" as="geometry" />
        </mxCell>
        <mxCell id="e7JSxl5cCGnPi-11H5tG-8" style="edgeStyle=orthogonalEdgeStyle;rounded=0;orthogonalLoop=1;jettySize=auto;html=1;" edge="1" parent="1" source="xhv0wLZYi7GkWhCUx-0s-73" target="e7JSxl5cCGnPi-11H5tG-3">
          <mxGeometry relative="1" as="geometry">
            <Array as="points">
              <mxPoint x="1386" y="801" />
            </Array>
          </mxGeometry>
        </mxCell>
        <mxCell id="e7JSxl5cCGnPi-11H5tG-21" value="" style="group" vertex="1" connectable="0" parent="1">
          <mxGeometry x="553" y="929" width="670" height="220" as="geometry" />
        </mxCell>
        <mxCell id="xhv0wLZYi7GkWhCUx-0s-63" value="" style="rounded=0;whiteSpace=wrap;html=1;fillColor=#e1d5e7;strokeColor=#9673a6;movable=1;resizable=1;rotatable=1;deletable=1;editable=1;locked=0;connectable=1;" parent="e7JSxl5cCGnPi-11H5tG-21" vertex="1">
          <mxGeometry width="670" height="220" as="geometry" />
        </mxCell>
        <mxCell id="xhv0wLZYi7GkWhCUx-0s-64" value="&lt;h1 style=&quot;margin-top: 0px;&quot;&gt;Herramientas variadas ETL&lt;/h1&gt;&lt;p&gt;Scripts de apoyo para tareas individuales de otros departamentos y tareas menores.&lt;/p&gt;" style="text;html=1;whiteSpace=wrap;overflow=hidden;rounded=0;" parent="e7JSxl5cCGnPi-11H5tG-21" vertex="1">
          <mxGeometry x="10" y="8" width="430" height="100" as="geometry" />
        </mxCell>
        <mxCell id="xhv0wLZYi7GkWhCUx-0s-74" value="R::Edición masiva" style="swimlane;html=1;fontStyle=0;childLayout=stackLayout;horizontal=1;startSize=26;fillColor=#e0e0e0;horizontalStack=0;resizeParent=1;resizeLast=0;collapsible=1;marginBottom=0;swimlaneFillColor=#ffffff;align=center;rounded=1;shadow=0;comic=0;labelBackgroundColor=none;strokeWidth=1;fontFamily=Verdana;fontSize=12" parent="e7JSxl5cCGnPi-11H5tG-21" vertex="1">
          <mxGeometry x="10" y="108" width="210" height="82" as="geometry">
            <mxRectangle x="190" y="53" width="50" height="30" as="alternateBounds" />
          </mxGeometry>
        </mxCell>
        <mxCell id="xhv0wLZYi7GkWhCUx-0s-75" value="Frontales ECOM: HB y SLG" style="text;html=1;strokeColor=none;fillColor=none;spacingLeft=4;spacingRight=4;whiteSpace=wrap;overflow=hidden;rotatable=0;points=[[0,0.5],[1,0.5]];portConstraint=eastwest;align=center;" parent="xhv0wLZYi7GkWhCUx-0s-74" vertex="1">
          <mxGeometry y="26" width="210" height="24" as="geometry" />
        </mxCell>
        <mxCell id="xhv0wLZYi7GkWhCUx-0s-77" value="Renombre masivo para otros depart." style="text;html=1;strokeColor=none;fillColor=none;spacingLeft=4;spacingRight=4;whiteSpace=wrap;overflow=hidden;rotatable=0;points=[[0,0.5],[1,0.5]];portConstraint=eastwest;align=center;" parent="xhv0wLZYi7GkWhCUx-0s-74" vertex="1">
          <mxGeometry y="50" width="210" height="24" as="geometry" />
        </mxCell>
        <mxCell id="e7JSxl5cCGnPi-11H5tG-9" value="R::Procurement" style="swimlane;html=1;fontStyle=0;childLayout=stackLayout;horizontal=1;startSize=26;fillColor=#e0e0e0;horizontalStack=0;resizeParent=1;resizeLast=0;collapsible=1;marginBottom=0;swimlaneFillColor=#ffffff;align=center;rounded=1;shadow=0;comic=0;labelBackgroundColor=none;strokeWidth=1;fontFamily=Verdana;fontSize=12" vertex="1" parent="e7JSxl5cCGnPi-11H5tG-21">
          <mxGeometry x="230" y="108" width="200" height="92" as="geometry">
            <mxRectangle x="190" y="53" width="50" height="30" as="alternateBounds" />
          </mxGeometry>
        </mxCell>
        <mxCell id="e7JSxl5cCGnPi-11H5tG-10" value="Analisis dinamico y calificación de proveedores" style="text;html=1;strokeColor=none;fillColor=none;spacingLeft=4;spacingRight=4;whiteSpace=wrap;overflow=hidden;rotatable=0;points=[[0,0.5],[1,0.5]];portConstraint=eastwest;align=center;" vertex="1" parent="e7JSxl5cCGnPi-11H5tG-9">
          <mxGeometry y="26" width="200" height="34" as="geometry" />
        </mxCell>
        <mxCell id="e7JSxl5cCGnPi-11H5tG-11" value="Forecast: Analisis estatico" style="text;html=1;strokeColor=none;fillColor=none;spacingLeft=4;spacingRight=4;whiteSpace=wrap;overflow=hidden;rotatable=0;points=[[0,0.5],[1,0.5]];portConstraint=eastwest;align=center;" vertex="1" parent="e7JSxl5cCGnPi-11H5tG-9">
          <mxGeometry y="60" width="200" height="24" as="geometry" />
        </mxCell>
        <mxCell id="e7JSxl5cCGnPi-11H5tG-13" value="R" style="swimlane;html=1;fontStyle=0;childLayout=stackLayout;horizontal=1;startSize=26;fillColor=#e0e0e0;horizontalStack=0;resizeParent=1;resizeLast=0;collapsible=1;marginBottom=0;swimlaneFillColor=#ffffff;align=center;rounded=1;shadow=0;comic=0;labelBackgroundColor=none;strokeWidth=1;fontFamily=Verdana;fontSize=12" vertex="1" parent="e7JSxl5cCGnPi-11H5tG-21">
          <mxGeometry x="460" y="28" width="200" height="60" as="geometry">
            <mxRectangle x="190" y="53" width="50" height="30" as="alternateBounds" />
          </mxGeometry>
        </mxCell>
        <mxCell id="e7JSxl5cCGnPi-11H5tG-14" value="Busqueda masiva en carpetas" style="text;html=1;strokeColor=none;fillColor=none;spacingLeft=4;spacingRight=4;whiteSpace=wrap;overflow=hidden;rotatable=0;points=[[0,0.5],[1,0.5]];portConstraint=eastwest;align=center;" vertex="1" parent="e7JSxl5cCGnPi-11H5tG-13">
          <mxGeometry y="26" width="200" height="34" as="geometry" />
        </mxCell>
        <mxCell id="e7JSxl5cCGnPi-11H5tG-16" value="Excel Macros" style="swimlane;html=1;fontStyle=0;childLayout=stackLayout;horizontal=1;startSize=26;fillColor=#e0e0e0;horizontalStack=0;resizeParent=1;resizeLast=0;collapsible=1;marginBottom=0;swimlaneFillColor=#ffffff;align=center;rounded=1;shadow=0;comic=0;labelBackgroundColor=none;strokeWidth=1;fontFamily=Verdana;fontSize=12" vertex="1" parent="e7JSxl5cCGnPi-11H5tG-21">
          <mxGeometry x="460" y="108" width="200" height="80" as="geometry">
            <mxRectangle x="190" y="53" width="50" height="30" as="alternateBounds" />
          </mxGeometry>
        </mxCell>
        <mxCell id="e7JSxl5cCGnPi-11H5tG-17" value="Importar imagenes en Celda" style="text;html=1;strokeColor=none;fillColor=none;spacingLeft=4;spacingRight=4;whiteSpace=wrap;overflow=hidden;rotatable=0;points=[[0,0.5],[1,0.5]];portConstraint=eastwest;align=center;" vertex="1" parent="e7JSxl5cCGnPi-11H5tG-16">
          <mxGeometry y="26" width="200" height="24" as="geometry" />
        </mxCell>
        <mxCell id="e7JSxl5cCGnPi-11H5tG-18" value="Filtro de valores en una dimensión" style="text;html=1;strokeColor=none;fillColor=none;spacingLeft=4;spacingRight=4;whiteSpace=wrap;overflow=hidden;rotatable=0;points=[[0,0.5],[1,0.5]];portConstraint=eastwest;align=center;" vertex="1" parent="e7JSxl5cCGnPi-11H5tG-16">
          <mxGeometry y="50" width="200" height="20" as="geometry" />
        </mxCell>
        <mxCell id="e7JSxl5cCGnPi-11H5tG-29" value="" style="whiteSpace=wrap;html=1;fillColor=#dae8fc;strokeColor=#6c8ebf;" vertex="1" parent="1">
          <mxGeometry x="1238" y="962.7" width="320" height="60" as="geometry" />
        </mxCell>
        <mxCell id="e7JSxl5cCGnPi-11H5tG-27" value="" style="shape=image;html=1;verticalLabelPosition=bottom;verticalAlign=top;imageAspect=1;aspect=fixed;image=img/clipart/Gear_128x128.png" vertex="1" parent="1">
          <mxGeometry x="1244.5533599999999" y="964.85" width="47.47" height="55.7" as="geometry" />
        </mxCell>
        <mxCell id="e7JSxl5cCGnPi-11H5tG-28" value="Funcional, necesita ampliar y optimizar" style="text;html=1;align=center;verticalAlign=middle;resizable=0;points=[];autosize=1;strokeColor=none;fillColor=none;fontSize=14;labelBackgroundColor=default;" vertex="1" parent="1">
          <mxGeometry x="1293" y="977.7" width="270" height="30" as="geometry" />
        </mxCell>
        <mxCell id="hp9oeOOODYRauGGsMiqM-1" value="" style="whiteSpace=wrap;html=1;align=right;fontSize=10;" parent="1" vertex="1">
          <mxGeometry x="1369.5" y="474" width="140" height="80" as="geometry" />
        </mxCell>
        <mxCell id="qLe5efPliFrMUfvTdQQB-1" value="" style="shape=image;verticalLabelPosition=bottom;labelBackgroundColor=default;verticalAlign=top;aspect=fixed;imageAspect=0;image=data:image/png,iVBORw0KGgoAAAANSUhEUgAAAgAAAAIACAYAAAD0eNT6AAAAAXNSR0IArs4c6QAAAIRlWElmTU0AKgAAAAgABQESAAMAAAABAAEAAAEaAAUAAAABAAAASgEbAAUAAAABAAAAUgEoAAMAAAABAAIAAIdpAAQAAAABAAAAWgAAAAAAAABIAAAAAQAAAEgAAAABAAOgAQADAAAAAQABAACgAgAEAAAAAQAAAgCgAwAEAAAAAQAAAgAAAAAA+MLYhgAAAAlwSFlzAAALEwAACxMBAJqcGAAAAVlpVFh0WE1MOmNvbS5hZG9iZS54bXAAAAAAADx4OnhtcG1ldGEgeG1sbnM6eD0iYWRvYmU6bnM6bWV0YS8iIHg6eG1wdGs9IlhNUCBDb3JlIDYuMC4wIj4KICAgPHJkZjpSREYgeG1sbnM6cmRmPSJodHRwOi8vd3d3LnczLm9yZy8xOTk5LzAyLzIyLXJkZi1zeW50YXgtbnMjIj4KICAgICAgPHJkZjpEZXNjcmlwdGlvbiByZGY6YWJvdXQ9IiIKICAgICAgICAgICAgeG1sbnM6dGlmZj0iaHR0cDovL25zLmFkb2JlLmNvbS90aWZmLzEuMC8iPgogICAgICAgICA8dGlmZjpPcmllbnRhdGlvbj4xPC90aWZmOk9yaWVudGF0aW9uPgogICAgICA8L3JkZjpEZXNjcmlwdGlvbj4KICAgPC9yZGY6UkRGPgo8L3g6eG1wbWV0YT4KGV7hBwAAQABJREFUeAHsvQmgZUdVLrz63tv33p7nIZ0OSSchARImI0KYxYgMTxRUflERw0N/nqJP/Z1QH7/65HdG5eeJ74n6FPX5+0AFBREVEFBAiILMmefudCfdnR7vfP/1rapVe1Xt2ufe7s50z147Oadqfetbq6q+fbqqzj7n7LuKRr5lkfxwBVwBV8AVcAVcgV4pMNKr0fpgXQFXwBVwBVwBV0AU8A2AvxBcAVfAFXAFXIEeKuAbgB6edB+yK+AKuAKugCvgGwB/DbgCroAr4Aq4Aj1UwDcAPTzpPmRXwBVwBVwBV8A3AP4acAVcAVfAFXAFeqiAbwB6eNJ9yK6AK+AKuAKugG8A/DXgCrgCroAr4Ar0UAHfAPTwpPuQXQFXwBVwBVwB3wD4a8AVcAVcAVfAFeihAr4B6OFJ9yG7Aq6AK+AKuAK+AfDXgCvgCrgCroAr0EMFfAPQw5PuQ3YFXAFXwBVwBXwD4K8BV8AVcAVcAVeghwr4BqCHJ92H7Aq4Aq6AK+AK+AbAXwOugCvgCrgCrkAPFfANQA9Pug/ZFXAFXAFXwBXwDYC/BlwBV8AVcAVcgR4q4BuAHp50H7Ir4Aq4Aq6AK+AbAH8NuAKugCvgCrgCPVTANwA9POk+ZFfAFXAFXAFXwDcA/hpwBVwBV8AVcAV6qIBvAHp40n3IroAr4Aq4Aq6AbwD8NeAKuAKugCvgCvRQAd8A9PCk+5BdAVfAFXAFXAHfAPhrwBVwBVwBV8AV6KECvgHo4Un3IbsCroAr4Aq4Ar4B8NeAK+AKuAKugCvQQwV8A9DDk+5DdgVcAVfAFXAFfAPgrwFXwBVwBVwBV6CHCvgGoIcn3YfsCrgCroAr4Ar4BsBfA66AK+AKuAKuQA8V8A1AD0+6D9kVcAVcAVfAFfANgL8GXAFXwBVwBVyBHirgG4AennQfsivgCrgCroAr4BsAfw24Aq6AK+AKuAI9VMA3AD086T5kV8AVcAVcAVfANwD+GnAFXAFXwBVwBXqogG8AenjSfciugCvgCrgCroBvAPw14Aq4Aq6AK+AK9FAB3wD08KT7kF0BV8AVcAVcAd8A+GvAFXAFXAFXwBXooQK+AejhSfchuwKugCvgCrgCvgHw14Ar4Aq4Aq6AK9BDBXwD0MOT7kN2BVwBV8AVcAV8A+CvAVfAFXAFXAFXoIcK+Aaghyfdh+wKuAKugCvgCvgGwF8DroAr4Aq4Aq5ADxXwDUAPT7oP2RVwBVwBV8AV8A2AvwZcAVfAFXAFXIEeKuAbgB6edB+yK+AKuAKugCvgGwB/DbgCroAr4Aq4Aj1UwDcAPTzpPmRXwBVwBVwBV8A3AP4acAVcAVfAFXAFeqiAbwB6eNJ9yK6AK+AKuAKugG8A/DXgCrgCroAr4Ar0UAHfAPTwpPuQXQFXwBVwBVwB3wD4a8AVcAVcAVfAFeihAr4B6OFJ9yG7Aq6AK+AKuAK+AfDXgCvgCrgCroAr0EMFfAPQw5PuQ3YFXAFXwBVwBXwD4K8BV8AVcAVcAVeghwr4BqCHJ92H7Aq4Aq6AK+AK+AbAXwOugCvgCrgCrkAPFfANQA9Pug/ZFXAFXAFXwBXwDYC/BlwBV8AVcAVcgR4q4BuAHp50H7Ir4Aq4Aq6AK+AbAH8NuAKugCvgCrgCPVTANwA9POk+ZFfAFXAFXAFXwDcA/hpwBVwBV8AVcAV6qIBvAHp40n3IroAr4Aq4Aq6AbwD8NeAKuAKugCvgCvRQAd8A9PCk+5BdAVfAFXAFXAHfAPhrwBVwBVwBV8AV6KECvgHo4Un3IbsCroAr4Aq4Ar4B8NeAK+AKuAKugCvQQwV8A9DDk+5DdgVcAVfAFXAFfAPgrwFXwBVwBVwBV6CHCvgGoIcn3YfsCrgCroAr4Ar4BsBfA66AK+AKuAKuQA8V8A1AD0+6D9kVcAVcAVfAFfANgL8GXAFXwBVwBVyBHirgG4AennQfsivgCrgCroAr4BsAfw24Aq6AK+AKuAI9VMA3AD086T5kV8AVcAVcAVfANwD+GnAFXAFXwBVwBXqogG8AenjSfciugCvgCrgCroBvAPw14Aq4Aq6AK+AK9FAB3wD08KT7kF0BV8AVcAVcAd8A+GvAFXAFXAFXwBXooQK+AejhSfchuwKugCvgCrgCvgHw14Ar4Aq4Aq6AK9BDBXwD0MOT7kN2BVwBV8AVcAV8A+CvAVfAFXAFXAFXoIcK+Aaghyfdh+wKuAKugCvgCvgGwF8DroAr4Aq4Aq5ADxXwDUAPT7oP2RVwBVwBV8AV8A2AvwZcAVfAFXAFXIEeKuAbgB6edB+yK+AKuAKugCvgGwB/DbgCroAr4Aq4Aj1UwDcAPTzpPmRXwBVwBVwBV8A3AP4acAVcAVfAFXAFeqiAbwB6eNJ9yK6AK+AKuAKugG8A/DXgCrgCroAr4Ar0UAHfAPTwpPuQXQFXwBVwBVwB3wD4a8AVcAVcAVfAFeihAr4B6OFJ9yG7Aq6AK+AKuAK+AfDXgCvgCrgCroAr0EMFfAPQw5PuQ3YFXAFXwBVwBXwD4K8BV8AVcAVcAVeghwr4BqCHJ92H7Aq4Aq6AK+AK+AbAXwOugCvgCrgCrkAPFfANQA9Pug/ZFXAFXAFXwBXwDYC/BlwBV8AVcAVcgR4q4BuAHp50H7Ir4Aq4Aq6AK+AbAH8NuAKugCvgCrgCPVTANwA9POk+ZFfAFXAFXAFXwDcA/hpwBVwBV8AVcAV6qIBvAHp40n3IroAr4Aq4Aq6AbwD8NeAKuAKugCvgCvRQAd8A9PCk+5BdAVfAFXAFXIExl8AVeMgVWCxaXFXYbroCZ6JA+XrSWH9dqRJeugJVBXwDUJXFwQdUAUzQPBmPj66i9ZMjtHZihFaPhdl5FRer8NR1dE3uXfwzxmPnBsZZjtZtycEwV8AhvY591RGg2w9798+hAxLKT7acnVugmblFmptfpFOxXCgHOuBltwJOpXfRFThnBXwDcM4SeoKqAjwbY13ftn6UNqwdpcXFRbrt0AwdPn6cHyc45DQ/MCXPxZKLh/XAaiBLSOyFtXWlgF9xxR7WTnvjcj7wSaY+cF5Qn4yP1VxO0I4Nq2XjOcovSt4T0NTMAp2c5sfsAr82mYLDT2nQwZ97o8AqGvkWffn3ZtA+0AdRAX41beB3+Ts2j9GpqXk6cOQIN3aQH+P8uIhe/ryL6XEXX0DnbdvGG4P1tHXjelo7OVHvUPHKhJnN0QwUlHqeGtoKNMAiWjG2jQesbi2tH3Xl1PASU1tjimYVBg0LlTaJUg8JKeLUt2RZi6thnAiwtM8V2z7a6AgJnqX0RIKuo0hszVXci7mFeX6dzdDpmRk6OXWaF/Zpmp2dooP3H6O77j3Mm8376T2fPkgLs/dxC3gtTvMDr7f18ti5YZLWTY7RAic+NT1PR08v0Cx2COUAme2HKzBsCvgVgGE7ow/DeGRR4Dfzm9eP0LaNY3TT3cfp+OnbuSc76VUvupqe95VPpisvuZT2bN9Fm9ZvoMnxcVrFHwcs+7Czvg3qwsEZ5LM5tN7Ff6BwbceWXbnBqflqmOYb5FNOV94zwZfbzpnkXAa3s9nokCK+lcfVprn5+fiY49fiKTo9fZoO3X+U7rv/MN16cD/dcNeddN0Nt9I/f/kWouPYoI7yYzM/NtJF2ydY/lUcN09H+CFpz+DliuH44QqsBAX8CsBKOEuP0D7qwj85sYrO3zbOCz/eYd1Jz3zCM+j/fNnX0dOufBJdsGs3TUzi3T8f/M5qfmGBFvixiBUuTt7BGZ9rGLuED0ryS+sxyOINlGopJiHVitD4yc71WWhm2BTsaPli/1q4jSvqS3G7/AZH1fZfW7BXDxTLSpMj4cvFUkCoxHVY+tFKIQCeivOH0JJsbI2o0VZFntKRGd8rwX/4HGp01YjYIyP80QCTsEGYmZ2VKwb3HT9Kd993kK6/81b61xuvp//x91/gT6Zu4gz4eGo77Vi/idavGZOPC+49MSdXCqTr6IgfrsAKV8A3ACv8BD6s3ec58sJd43TbPfg8/yZ60dVfQz/4im+ip175BNq4gS+x8mQ7Pzcniz76GSbkWJYd11Uj4c0CgYldLJ3hEydWunDlLeU3aXQx0VCUEp6e0BMcAGIfu/J34RJfPA3i1nw1DCkjjkIVtD1OrVpCAmNlidwl3bbZ8gnACc/kY4AB7Xe5snYjCZtG0QA2P9Imks0R3hiM8MZgdGSUsDHAy2+aPz44fPwY3X7wLvrcbTfSB//90/SnH/k3Zu/nxzbatGYbbV2/Wq4M3HtynjE+VNxg+bMrsKIU8A3AijpdD39nZULlhX9ynN/1b1/N7/pvoYmJffS/3/gaet5Tnkrr1q2hRf4G9iwv/Old2LK6jVlasheLRcTYa/cIDRqTI3zQsZRfYyu8APEzKrxwSKl8KaMvw4wREhigo7oUr8tf4oUNE3rhKFzdYJXYlaDBy7DsPNkTGFrubh+eMlnEanBIFJ+7CBnO2wG2cTVAD2wKRkfHaIw3BcBPTk/R/sMH6Qu8GfjAp6+jt7z3n5kaPto6b9NWGl89SgePzfL3D3ijES4uaCovXYEVoYBvAFbEaXpkdFImc/621O6tq/md0ixfRr2Jfv61r6Xv/sZvpp07tvIXrcLnrphI8V8ztXL/M6M2HhB0mTJ+M0G3GAxkaTPD5NDqUn7l2TLGtEIzoItklr+Mbxuo1Lu4XThS1HwVrAKFDnQ6Krm7uC0cQHNO0zvwFi90oToGuEo+2yUUMzTFIELmiwYXUuPXm7pxhWA1bwhwhWCav2S4//Ah+swtX6K/+sQ/0e//w0e4rWP82EsX71xL9/MVgftwVYA3An64AitFAd8ArJQz9TD3Uxf/i3ZP0K0HDnNvxumDb/1Jeu5VXyU9m5mdkUuqab7XWdT2u4ZZf1ddNgFmMWUeUiWkK++Z4p3ttx0pdaVvwk4EE1vDjLtVHcTv8i0D76Kkla/sSGcAE0tfaWcU4zTVZpMQwcwXOzMAgyu9FiI9KwbEBp4SeNPK5xO5cODUynaAS1zNwmYAHxmc5o8Kbr3nTvrwZz9Fb33v39Nnb7+O2bv4y4PbaHp2kfYfw09b+dBEwfJnV+ARp4BvAB5xp+SR1yGZXPmd/6XnT9KN/O3pr/6Kx9PvvuHHaN+Fe2lualYmSrzr12kUI5AYC5TDGuQruZKZM8pim7ILC2l0nk3uMr6rrS68jC/tGJeFi5EhoWddnSqpZRtqD+J1+ZaBKyVpp+1pqQS1UdawGm54qHa2IbGGDFuPGmywLC8baMO4NUtT1pw1DFkMjqrkBhzPJV7rq8dWy6bgvmNH+cuDX6A//tD76Y8+9HfMnqQ9m88T311HZ0P7KkDTG6+5Ao8IBXwD8Ig4DY/cTsjklxb/m+lVL34+/foP/xBt2byRZqZn+B1RvOYZJ02dMDGiCJlKxzgTscNfg9PCmk/9CuucK6m1U13tdOG1doGZfKaKFYKd2h/Tg678XXjZ7lK8mr+Gad/zIZStBbsr3uTIAmt8YCoHV5USILWMw5KR3FBgpqOGR0xdptkUJhUlWFQwPJkow0sei8m5XqQxviqAzcDJqSn6wu030jv/6e/pV/78rzjXHJ2/Za+8JO4+ylcE/KMBq7jXHyEK+AbgEXIiHondkOnQLP4/+IpvpDd+7+to7Zo1NMOfiabF33aeJ0mdMAGbOTOwWkAM7sLFrRm1BMj1gTEDKF1xXbj0ofJk+Kia5SP2rYV299nkqrQUoEq6xB0UX/MZzFTTGDAWHOKzhAB3jyMFKTGWnANpsrwZJXp1B6e+WtvwdeAanp0LzTUgTiiSM/ZDuFznd/t65Sm5TT5cFcB/+Knh+OpxvonQPN9j4Fb63x95P/3X/+8dwrxo+x75GeGh4/zF2JH8SplJ5VVX4CFXwDcAD7nkK6NBmUB58Q+f+d9Nr3zhs+itr/8JWrd2ku+0NitfjOqahGWEMls2k340m8G3gOjqwptIQ4zLic76LU4AOt2D2hrkK9upcAVKuFbisiRmrNtcSrNYV72L24UjT83HGGDtTVQ0w6px2q+OnOq2Jc5DmR/+5mt37O06WbV2NLn1mbqpKrNdlqTSRoTpU3KnSpNygXl4o4+NwDz/27nhrlvo7R94D/3yn/8po5vpkp076MD9fP8BvgWx/2qg0c1rD58CvgF4+LR/ZLfMP/XbtWWM7jlyjJ75xIvoXW96I23dvIlm+Z2/3FDF9r4yGVq3LiBVWhXk6C48S1wYElMP1DlcF7oUWacH9yBfStBU0IZd4JIny2MMU01cVLrwjBSNLu5Z4F0hWbM1Ug3ToJrPYKaqEVwyKo7W2aprU0/S4lZpNVAwdcQ+qGl7WcHg1u8KTKyekLsRfubmL9Fv/fU76A8/9G727qN9O9bSLffOhEz6ggmWP7sCD6kCvgF4SOVeOY3hL/dN8t9ROXbqBN34F2+lSy56FM3yPddH+FvQrZlVh9U5ITZXUu18l+ipoomKcim/rBaamckFH6Z6kVk3A1krRUzydeGJ0K7YjQC8kiI1ip5oj2Lyrja68HaTrTEnSleOGs6YwqqX2ikfKlXwzPCqRtJIkbwwhYKnEi9tJTLe5VKKlDVShkUjYbiUz0ays2xi6BWBifEJvhXxNH3kc5+iH/jvv083Hvg8XbjtUjrFf5DIPxZo6+bIQ6eAbwAeOq1XREuyPKXP/T9Hf/uWt9Dzn/kMmj1deeffNaIBk6KEGL+pDpxMy7h208ikyxa8bEvysOBar8Dy1M7SOaF38SsppHXma2+yUDHwVHgzkknahRtKqnZxzxLvCpP2BjqZUfpLG0kKDAtqc/8IdbJOafMkLedPSlO0tIEzBji8EpRYKWuxoLXwmNC6GOrKj1tf4/syuCJw8Ohh+rOPvI/+8+/8NkdvoEt3baObDk2HIepLAm364Qo8BAqM0qorfuYhaMebWCkK8KX/R/HtfW/Zfyv97PdcS6/+xpfR3Oyc3Dp12UPARDZoMjN+S8P3rfDojB3kk85l2bI81qNUaUsM89TVhuKtRCbWVDvHIXkqSTS/DN74E26Sd1VNWEYZhNd8EUOhbi2RV+rWmTXWYdgESilyyK2ioy/cSgqEuLJqTFmWeUsb/KKdMkWya7Ean0ixUpzgwszYuIcAjpm5Wf67AmvpKZc9nl76tGfQ4WMH6KNf+mc6f/MumuArbqfw3YDIzRK44Qo8SAr4FYAHSdiVmBbT1Bj+St8ibuVLdNf7/hvt2bmTNwCzPDHx15sGvRMbNODWO6iCHP1KQz+krkBBT+ZSfksEF5NrTCxm8oehpXYN3n73x85ltxsTMV9DWm2IA0/Go2TbD9S78JKndo1fwwblrvArUHffauRlYEoJqqiFjjJSex1aio6/Ni7mgYq8OLrCqo4amfvSgltAaEvai32f5KsBJ/jPF//FP72frn3z/8uudXTxjs10M18N8J8MNnp57cFVwH+d+uDqu6Ky87pPj9rJP2Wau4He8UuvoT3n7eQv/cXFHyPBApreoegUuowhgjqIHn2SPqYTKMalJsumBuUUrs7ETBQu25rT5AILbcjfq0Hd+JRvoSqWEQqDE9qxZV5pTFuMpZIV1gDY+lBsUFnGg6vxpU/xMl/Ji/4WvYMn7S0nZxGv+eXclJ0uuJK+hsFR4mwrFHKXnYu2kqy79pei+FzhXTvoKSRVbHCoC5f5p2emaHxsjL7zmm+kf/3N36LnPG4fL/438kcCE3I1oL2raOdyxBU4VwX8I4BzVXBI4jFnrZsY4W/9n6KvuPwx9LP/6T/S5Ng4z0P8uSwWJHvAxmRYwJZSrYPfFRNxTMrlIa5BcV2+1Jid6kHmhxRNoNYwNO2DYtIfGBkQ7RITcv6UWi9ypNAMT2iepLSWSWv1ucxT2rW8EdNxwFSNsnA4BsQvyS3iQxvaKqJtvdJWEZ/aK/vENjZ7JZz4WmkRYlCGN31qarFvGU+ThhL/pvBrgVn+WGDvtl30Ev5IYPPaCXrHx95Dmya30YZJ/Ani+fa/vTyNW67AOSngVwDOSb7hCca7/91bx3hAt9BPf/c306bNG9Jf9JNRYjKrTWiyOehydugzgC57C/ZLacKl6YjX+xH7J0QTKFUFtQQY69yQoigxiQsAQx3A9FgupnwuyxCRLPozn26qEsgV1JNtkqI6yGepXTzFy/ylrW3ZMuavUav91bZsvyr5xB25oWjOTyMEe+DEk5QS1TwtA9NwDYJdCxOw5igDzOsIOa3bnm9tTzjswE9qcTVgA99c60e+6bvor9/wm3T41P108Phx/tsCE/xpXPO3CWys112BB0IB3wA8ECoOQY4J/vO+N919mvbseBI956qvJMIfNoszl53MmplNUV4y08LFGODlHpqiiz8o3aDYM+kD2ja5TDVtBlrplGQdNaxjXOUmw6ZJIWnViImlqDKXr3lMldoYVKlwbZdsT2w9pazEi6+G1zCQDY6qHrYumO1YJ4kdJp/SgKXwBFYqrUYjxwajXvLYlvNdSakQNgFzC/N8F8FZeuFXPos+95b/Rk+77AK69d476NG7J/GVHD9cgQdFAd8APCiyrrCkPEPhT/wS3UE/ee3X0datm2mOL02Wl/4xt+kjTHR2atM6MxJpmTooH2V5MCafzUcfWsnotRjkUFKZr2rHJFKEehau7lhWU1gwC7aOUG+5NT93Wn0CqZFS8OgjN0FaaXHVUSlrORTTUsO68jJu1z6la5nSpIp6YlnLO4jLYW23vhrUqa/BAW3A1U4UsBoeU0nR5S9wqwtc4uYni9u0qOt3A05Nn6bHXLCP/vK//Dy97kUvohv4ngGP5u8FSI5ieGUOt12BM1XANwBnqtiQ8sPdy8bpOV/J7/511oqTVm3ekQlJZzQpBYnqxATALbwc7WKopaYUSJeMwBATT/qwgah34SVPOyoJG6eaaFeWGwVi6oH5wTX8Jmu7pvmt1im8zKG6ljjSalDNZ5tVXolpDosrVssZ89RcKUWtLXWWgaVd4QWNsFkK5PSMSi2+htd4CGe8wxV6UssFT4bHJCZZypkqIV35rB8JbFm/gX7h2h+gN736h+iGe/6dLuIN+uQYB9sXSBnstitwhgr4BuAMBRtG+qa1I3T7PcfoBVc/hS7eewH/IbP8i3+Yx7IJzk5i4iz8mUhM1vgMX8LQGNuWhqgv2hml8GnI8vqAYJ5hZeLmOpd2vo1eGQ8o1jcwPwLxWOLQZkHLcgOAMyWBNyYUHITKsYw2O/ttm7OpO3K2+htjMvqgnJaoPIshH9sNFFps7EhQUu4IvSkx2PoIjBavDEm0Wpw4KxERUo0GnTKkwCZgZn6Of5I7Qq97ybfRn/zIL/Ctg7/IXw5cRRv5i7rkHwmk0+CVc1PANwDnpt9QRG9aj9v7HqQXPesqWrtuDf8hk+5vH+tP5XSebQnAk10+wdnFitlpIeucQVspFWhNrZUUCqGZvB8xixI0aasEoTlyq1kvZFS1BjRAyyZVCLZ2V51ja6nN6pdHoq1ae2B14XmGbl4tvtKe7a8N0UWvbK5q20AllBjbaEvf/XfRZECByBSTxFQ1VsoCL8dTuJvQ0gEb34mxbXI9IKHXokkZ12SUGr5/M893EMT3Al7+7BfSe3/mzXTP8f00Pb9AW9fxv1ffBBSKuXk2CvgG4GxUG6YYnkhW49IiTdMTL7tcbkKif8xE5rBiospMY6CqjzTBiV9J6lUis9S1lJ4mtEplf40ik25XGxrQ5deGZBFhUlpM4NDlB1dKxFR2KDWnltZb41u/rUeutKG49kNyFw0UpoYsW2cE1HLUMOUan3QNdsTUpSVC5FBOy8HeLqzENUdMKa+5WM8LEAtvEZv4RRt6bhFdZEghUmnlYyBhqMQraqjaA7QSM379Ds4U/0rgBVc9k/7xF36NpmcP0eGTs7Qdm3b+hYAfrsC5KOAbgHNRbxhi+RVw/CTf9o9206N2nxdmunJW0klKSzPubNIv/GLyU5kuhEdy3WlaMFWE2IdxAbdfFoQrtlBfpItYa7brOtFyRmlf7cCUdgRvupdyRDzZWunC1V+UuUxxA5LlMIappjQ1LDljBRwcWgYrPGt8l89yUY98FFCrFgZa1RFjxW+fakkiV0NCiWdzjvRFmou4/LY5nQ1F9mUfQjYRyMXB+kAeyW0oZW5sBE5OnaJnXnEVfeLXcNfAk3TviRneBPDPdn0TUMrl9hko4BuAMxBrGKm4+c/Bo1P0VVfs4z/3u5l//pd//p/GrBNUNnMlb1NhPyY0pcMhU7GNi+zEsbOr+JInMpdXpCjTllkG8lm3TGliSldux1akiHUerdawCakueErIkw3uU4VbaisUC1ota23WsLId2IN4NR+wDrwGZ00ywXY7+WqBNSwF2EqFWLuFcIUmWQyeqrGSvabKJhPZOEoMdokBYqyqA/vwvQD8QuApl11Jn3zTrzJyijcBs7RtHTYBbPrhCpyFAr4BOAvRhilk/SReAifpKVdcQOv4ZiQL/KPjytzUHvJSJPgNR6sywUUjm0iVL7Ngu7kqkmKqXmkf6eyCLE1rXC1MCDWHxWICuf8B6mEkGprGqICGxjCri7qqWHKGSpkOqKYUhhBU1ejpCgopBz9nyQtql28Z7SlFS2SWXltAmzsTLHJVAaRowhntem01JG01lAWuZlnmQVmjjQtBEqgVLrUaXdpvef00kamGTQCuBFz16CvoX970K4wfoeN8t8BNa/jfsAYntldcgaUV8A3A0hoNNSN8/j9Fu7Zto9GxUbk9qZ2Ylhy8mcRq3Nqci5DUhhgWiDOZ5E3OWuocG0BNC3Ie0fRhSbwrecRlkKFumbZeNhEWgwJFwMCgyI88u1CkUAsKnT2mf6lFDUC51KHcGq8WX+MzJt0wOaprVkdsS5caD7nRTihSSLDxjAOEWNcywilAePEpBCdEQpCCEe1/zJY4UinikrNGtv2IxAoknmYTcCV9+Bd/mf/C4D3880CiNas5sXYoNeYVV2CwAr4BGKzP0Hv5TQUfM7R544Ywq8mI4yxVm6y6FAHXPixPcYNlEIzWEUGdcTN/NaBpH9wOCuZIuLKHGoizRxduOUvU0f2uyTx1YokcA93oIx8Yl46ttdIqo6sjyx1nFy/2QZqxTzXc5NBqjVY9fxpQtlEmMHa+JhpLOMbWnLU24DM5hcp2l5yaSnmZDSPlShXBjDVwLZePA/hKwDP4OwF/+3O/wL8OuIF2bRxbXn9anXGgzwr4BqDPZ5/nv1H8+V/+BcA2vvc/8ReLW1Mi3PaxXL3MbJZyFnmAK5RXikbkZ1UFNsjUtrVkrrTFtkzaXKY+xTygdk7oJs+gZsMY0EiFpVgsUSjUjD3GqTMRKvksxDz0HY9sXIjHQw5U2JvsCNtikM/yUC+5sEtMeQZP/WMs1cHjw9AaoAUGV+u55MHmhz2nEWKHabmM08Q1vIJp/opLM4WBtQh6LtTBpSbjjguKp+iORcqJTcBp/k7A1zzpavrTH3sj3zb483Tpzgn5PkDJTUFecQUKBXwDUAjSNzPc73+OP//nyUNnDpQyGSlgVBGfsQdVI1ezaCkhmieCyVfgIT2D6I88gJgJPBD4OWVIiFQiXHrt8DSblCDqw2ZSrExkOakPTBK+BjWmwmhL200p4CyPJkXpqdo2RQpNYKyIg58SblLVMOOW6iBOly/i6kYp58DkVj2Uk1wlIMHJ21SWxEOi5iubCGVM4oKvSRZcmQ2jQlNM0rQCDGBjdfAWwytCX+OMJ1eqmFzoCnOnZ6foZc/4WvqN7/5RuW3wZfK3A/iLvDnVLVegqoBvAKqy9AnEtLuKFvimI3LYmUP/yE/bEWYnyw3R9Wfw9GEYKTxWkh3piNF5MoSFvqZc4tQoXT5MA1oFRWmKaWnasBQJsYDyUXbhwtF+RFIrUbwpDOM612cpu3JLHmlg8BPyMgOPrCcKps5HL/DyqGElB3bKWTgH4QVVc2hIZ9NKsPE1zPoH1m1wbDVB0Ua8YgZKmM1f41m/1m2eFtZ2atpqmxyPHzbM8V0DX/N130Q//A3fQdcfuIX27Qh/RVDTe+kKdCngG4AuZXqC843F+FhN9584HVaMNOMAj4asVDzTiIknc2R8g3dVi/BEi7hNh7osUxaUAAOcyccDJiy1q5XoKynZHkO5KJWIMjtaQPBKIlSLd2eGnqqoJCOEn9FzJT6lk0pBKExpSzHhL9F6F6eG1zCk78LLpmu8EoNdYtpGxNtuvNKss80ou6L0EkfkwOiasxXEAP8vr/+YTSh4MgeuAuCOgav5C7w//vJr6blXPJluOXSUvxPAf9zLfx5olPJqTQHfANRU6QvGk8m83Ehkkg4duV9mm3R5VGYbK4QBskkoGsZto6p15WZ5mMl27WY+iZYWUZuVvcCrPssz9ZTQYFqt+ATCU8UnYYN8mhel8Npk6TrDZgkKUW1qzGGTdtc1r/Y7pUMFrSXNoge2+IqcNayghLGVINsxdeapYSAYXJs0UJOiBnZhTVRT0+RZkwFsXv9h6W2CMnIDL9GuaaqJQa0W18K5N5Kg6EsRi4/xZmb5ngAbNtFbX/dD0s7pmXmaxC8D/HAFBijgG4AB4vTBFTYA43T0OG8A8I6hnDOKySZpIjMTO7v4JZ4Ci0qRP4VxpdwMIFKb1SyJr84MUFalBK+Lqz4udepVqHPilvYr7dSgLFlDwNgwZrizI/EN2iIZX60a+TqefPHXAHiZWMsNrIZrqJZdvBpew5AnthMLzaxwsttAjLWBXW1EKkacNJG6Ihxo87AvHTW8xKIdFZVUJUXyVcHUEleYUHDSJsXQwpcCp+jyvfv4lwE/ScembqC9+BPf/G+6CDdRXu27Ar4B6Pkr4PQ0pqi1dP1tB2hqZkbuOLaYTYlRIMwi5UwiNseXq7JqWotRX1mWuW1zhU/SxtyySchysaPgV4AmIuZpgLzWNTRpo9UOxw7MVwRk37Fo2pVNQEEVb4kNbKvJl2rMx3iaMJw79uIhh1a41Kq6tOzC1a9lF6+GAyvxwlZTS20m739C2xUE6gPeWLd6BMgur4ykGK2gjPGh1jxHlwKSmzH8C8MDR0HpBkEUMiK5InYsNZv4m5zy80D+ZcBXP/Gp9Guv/kG68Z7r6RL+ZcCi3y446OzPLQV8A9CSpF/AySm87V9Lf/3R2+nEqZO0asTMKrGaKQJMH+JQflxMMnI0anmW4hUxOlHbsERBJRlgsKGzL8rlHJqji67+mCuZg/gD29UMXEqOkEhRmfajoZikC7Q8sxJqvpxZWCYg5mjkYiBiIajgFpmqpgnJ/FnezJMbHfFVuASX20beYrSKTQDQWr5lYo2mzUag1Wwtl7QLR9wESBDbnDDRuVJughf4r3le+/yX0ouvejbddPAw7djAdwpCCj9cgUIB3wAUgvTNnJlZpAvPm6Cp07fQ/nsPhXsB2Hump5mmokzmi4ad7Zppqj6BVlLakJbbtKfzGSAc4jL+gMbn5MzQszK0vSx4YLsZs8PgBNrHqJ+2I6X4TGhpG9dA/ZQX4/VUSRvRJ7paALjwVfFIjDmi1V0sl4cMykWph2Jqx9JSkqsGLgcb2EY5bthF0sKU/pSYaaN0pf53VfREiT/2R5LkGwG48X2A2fl52rh2Hf3Cta9lZIrGeJZHijNuV9rzp2FWwDcAw3x2lzM2nhVG5V3/Sbrhttu6IzB7dM0gpU9mGwYTbgIVM1Bno11cxmVOjH5NlaZqBcrE2q8SL+2Yt4TFZp+0HZ1KlSbVKAO78JI3wJZlxzYMrs0rHRiQoOJKehWpQC2bksbaYN6HShsJsn1VULFa30tM7Vhq3xXWlJkmCoJUEpeJNdcCTItlLrTTlS/2QUNEQjbUju6m0DwlIdla4ZL/N72ScwYb/57xJ4SveNQl9Ef/1w/R/vu/SJf4TwMbjb2WFPANQJKipxWeRE5P42OArfTxz3yOFmfxl8d0kqloApc+SvdAvJKzi1/mhV0JT7SYJ6MUuVu+gQljZs2RBXf7Ek3jUgdNTInVbKwSxWKLlNXvZiA+OPNMXX0wLKFEnl5GholDFpbUD0XZEflCsk+GYuFW/Uziy5ylbZJbl60byuDXkCUWCbAJCP8ZUnF+OpMXuVIGxuHqcieerbQC8Jc7G0I4Z+HcrVo1wn8nYIZe8rSvoVc+9yX8fYCD4aeBumNowrzWYwV8A9Djk69DP3T/PC/62+lX/ufH6ODh+2hE/yiQEpYqzSQk1NZEBZRnHsGVrCW7qnzJlD8ZXnUeY7/JGmJjDPiNzxATmCp5m2rBrQ/FYil9KcKTmSqR3JGjSMkm9GKymeFlEYqQgUOo5kVpD8UtVqlLWOSGFEZhBpr2MlKeKbpysGKZ1Jk3NJxBVc3RH2bhUUslmBLybE2g4oN4kj9vQekojSjCBJQ6JkZ8ErIFlsCVqo2prWXCYyWeHIWl5Kc5vj/A2okJ+rFv/k6O5H/j8Uun8PvhCkAB3wD464DmZhdp355JVuKL9Nnrvxz/JkA+8VVl0hkHztqsYv12ZhS8kr+Wo9Yw85oFqSDAZ7qT6lyRd7kA9NC6JEN/FFDC8srUFw7PMkQj+W26jGgdWlcC9wsJUh/V3y41Iu9E5MGZCO3YDEFzBVnUETxj1o2l2oFfH2WGQbjlRh4KHHr21NayGEYg4zkRIqS2lpGDG+3gQH57JNvyLQG49ZW2ci1HsbLs4ljc1mM8ruRNzUzTY/mjgP/xutfyRwHX08Xbx/1XAaW+PbZ9A9Djk69D56uFdPzkHJu76c///h9pnj8SwE+K5KhMLBrXKru4wPVhk6aFzWTKeAavVZWL0h5s6wStZRc1zdJKsHm66paLuj3YBqTtqqs21FwTZZalaSAlCZisTajyA0XWZqCUydJw244c0Z8ixvTilPzpzouxUSVIZ0yOrvYNRarL5YGsbdkcjJUpSrtF0PiSWNrKQ9Psy/RNPnbo2LVMvkoFbRTt2LDC1STociScK6iLHUAxOfnc/Cy99OnX0NWXP5VuPnicNk6Oll1o2vFarxTwDUCvTnd9sJjYDh6dpwt27aC3/tnf8JcBb6WR8RFaWMR3A/hIE0swBz4vxQ1zU0waM2EGtLMgYM2T+JHbVSg/+jWlpC1zJK51xHrWD+uvNNzlZlzaNyFp8ajFAKvhJj5UY5aCKyY/ZV1HQMFL6YB3+SIJ7tTnSA8YP6OChxxasWzjUneEqkWWbxmxZc5aPKfJaMrJwEhaCot+q6+mSypZpx1kQ7Ro1jlVTruhZR7Q0VeQsgA2YMf+oJjlvxWwle8S+F9f+Sp23EE7+E8H6z9thPvRXwV8A9Dfc18ZOWaOOXrXBz8o85pe/kxEuJd7yCTUQe7Kg9mqNpEOylU20ZmbiaWvmpen44Tr1IxGymDTcOIbLIbIcGJoyjaA324mReV9iIm1V4nFgMioXdG2lKh47F+7vYaAkPSxSYxvp0PL6uQyazzm0qAmdb1W48XUrYCCK7Qubhlc49WwMg52lZfUD37RoCAWpqSOGAqEJK3F2dEUfJ251BH7I+YquZo3PTtNVz/uSfS9L3o53xvgAO3e5PcGiDL3uvANQK9Pvxk8TxZ3HJylPTsupJ/49T+hG26+jUYnRsNVAJ1XQEfdPkyKarWL24UjCXzZEckak/kqxiAe+0o3Jt8GhBEPU03v9NRXKzVPxafrYkbJDBOU4TBqB0/yxqVVLa0vRcOZCAldfiXGpuUuLXRA4EyeejvLbbvkwS6xrl4X3M6wmqOIlTY7eBipjroZe4M03TMJyvwgGSwxuZLqkdLkizUTl3wpKFUkETbyC3xvj4nVq+l7XvhSps/S6tEU5ZUeK8AfBl3xMz0evw+9UGDD2jE6fup+mpxYpGuedjW/M4mTmplTspDaRJQRjNHFVTy1wRXBUKKCPuBAvSmCMeA50jUsMYHzQ92Ki52eUOFHWrmjreRBpeSoELpSRH4rrAXYnBrEJaqik/VXISEI1eaWeOTI42G1IAbamILqiaWaNi2wGm45qNc4tdgarys+tqFpWjpEf6vtShvyshBcnZo1JMlcmldLDVG7VubpaoyAlbmyuMaJGv5s8O4tO2hsdJbe9S8foQu2bqVjp/ljvobW3Y57hlIBvwIwlKf1LAfFE8Hdh2bp0gv20q/8/h/SR677FI3wF4YW+OdEcmCi6JosuvBaV5adJy78zWzbdEBzLNXuIH/0aarUVcF10wE0fidefkbVYqewrDKIxj5pwgRgiNJiy2FIndUYlMWuCu9QKy47slbKLEfLGwBw+NGiZkA0ahiyZHhI23oGp8YrMeXVcJNC3Ri/PlptKqBka5cYfIwBVpeWyC+vGtllgFgcNgguDSxpjHe4GmaNUGJsS5+4fPmzn8+x62lqdr62b2zyem3oFfANwNCf4jMcIL8i9t+LXwTso5f/8Jvp3oNHaWxiTC4hpkyYXHSC0RJOiyfygEoXX/CKUyBMY5UDvkGHpit4svAaLFULfmgVINcSaVCD0dfFZRwufYCta0UrxJJi2nYRdUGSmAAFUMlrsBQLLOIJQ6ULz0iB1wqvxSZS7KPmSbgCZ1DW2qmFR542VQ2rgpxMg2zeGrfg5RS8XhgpOCmlxfPAROmMbRj1/DY3J8HPAqf55kCXnnch/cq130qHjt9Oe7fwXwwsTotN6/XhVsA3AMN9fs9qdCdPz/PfB1hL99x3C/36H7wd9xCRyaN1JzqdYMqJy9rKGdQTy7c8xbMcbCiuXPVrqXhXWeNpzi5fzJV+H1/jdc3UXbkZly9+cW47B5dfBkvD0DwJsBXr5DpMPmIR8keKYoFhSAk4g4pJFtOHNgVXJ5eZ0+RXioFaVY1tORgo4zu40NRqrKmy8MyIjBqmwaas5Q5ukwBVY6bwEittECtYC2oBZVwk8JWsr3/ac9m5nmZn/SMAFqK3h38HoLenvnvg+NLQ0eNz9OhHbad3feBv6PJ9F9ITrriMFucX+M0MTyK1iQbpSlxtlFrvbjZwungZHhPGIkuesEENxf4wFxM3QrJDgAZNJioJ5oraogmMarYsdRMfYEmHVDFXLBqnEPIUqd0CbpkSGxJoGpRYDFunEQ4laaLSVrwo0/AjPy2GtZxoJAXERMtsR9g1bhdmcK2i1LOkWDYcgKWjtBFQ8NKQCm5hhqa6yMEbOXkb0pxJhmrS2cahbnjisjbX5/mPBW3buIUmxqbprz75Udq7mb8LILcDLxO5PewK+BWAYT/DZzE+mSD5cuENd0zTvvOvpG/70TfQP37skzS6hj8KsN8HqOXGZGMnHMsZ5FsOT+NT/lhRPDXMQMJs4nYdc3F5SGhMob4sXRaTGUzvnJY11eC+xYayrJnRpEnDNVBe5UD53kJAQ5p0DSNdfchiQLLtqW2xLKAwmKchwZNbQR9oxA+bs6QVacVUfo2rvjLO4DjXuvnJ2i5jYJs4ccPWhwDxqeQBLrDG1Focv32tqMvmrtWZByoyVEOqYEPG2UfsKN/o6xuufi5qnIgRgH70TgHfAPTulC9vwDofHLhvjnZsuZSe+6ofo0988t9pjH8lkG0CMOHow6ZWrDYh1TAbq3XNobYtUw6tcFnjq9vGlnWNK7hpsWC+6qHUMPvCUg9XeYUJV0gSq2wpt4v2Mif71C0lnoApqOTSVjyVhiBV9Ddg8sxPrZyIDZSU5YwqiEVeDRIbgFSCU3zAlBRLpRRw1VxurMlZhlTzKmjiFKqWtaQDY6MTekisPIV6dGXtGCzRI2ZcWYjkLZ0aw+3iDwU9+vyL6Ie+4cV05+F7aDffHMiP/ingG4D+nfPlj5gnjNNTizTL3wncsHYHPe0V308f/+RnZBOwyL8rrn4nAJNMeZQTEfw1Xhmndi1ec7TyMCCYcaCqD83ZVRpeysCVtHbZOOEGVuKqvwWooyiVp6V1MwZYtxi2bmlpbLUcQoyJUJeBSEU9UgbNQnsB4OcyH2x9JNKAimk2sVI8KgOOxBvAgauWpobV0sQ2tCkbZuut0DMJSIm0oqV2ne0GapqqYY23FTKQXjhxFQD3BRjn+wJ8w9O/mrMeozV858/0QjPteHW4FfANwHCf33MfHb9Cjh5foNX8FwI3rd9NV7/iB+jvPvTPcpMgXEZMtwu2LRUTTnIBtz61LZbIlYryS5fiNo9g6jAB6V2XwWpVm8v6TcpE4QquFuDQxVqMRBCr+2kQr/CJiacCT8m7cAmITolvrgQgVjz8lPU/OVL2phJTNUBHrYuXcK6gnuwiTxduabX45WLIY9rQaqZDLZe2rwGax9qGU4PVLWXamBm0bLeWJHLys2lyaNXGch1XqmbmZumJFz+GXnTVs+iWQ/fTpklfDlSuvpR+xvtyps9lnPwqOXxsnheHVXTe9j30/Nd8L/3O/3oHXxmYjz8RxH0CsinzzCf1OJHZybizy3Yy6yRFh+S1AbGf2t6geA3T0nB1vs5ctZyCWVaNZPqKqqXDLG2ldKUq+EjZPpgk8TlZ2opQ8giPMyQgZlO8nTxHmFcLDe0bquarkg3vTKplLsQuA1MKSn1Is+oQIz6VWBbQcDrgJlOZRz0WryVhXvka0dCsNHmwAcCXATeuXU+v/JprmHYXbV3vtwfO9OqB4b8C6MFJfkCGyJPH9PQiv2sg/tPBe+gP3vVOOnDoPnrSZZfRlu2baNUCTyj8BcHWrwR0wtJSO1PaiqOEb6mjK17xMgdmSLu66bRe8sp21a+l9TOm77zULSU/hQkZVvRI+zCjbfPYurpNKNyp6+oHpnGpokB01nBDSVXTpxTCFQMnatNoA1Wx0o3EyBnxaBpLAyKjbDwPUHJeavIcDY2Wvlo+w7HutLVVv5a2neVgBSc3zcbU5tV6Tm6EVD/KkmN9Wi84uDfA+jXr6M3v+gj/bfgRwo8B0ng1xsuhVcA3AEN7ah+EgfHkwb8EpMP3z/NPBPfQ333sc/Trf/i39MRLt9NF5++liXXjTFgMXxJkbvN9c9OXYgKSSQtYF25Cq1WNLeNBbmE8taWVFNNcJLR41ZYCHVzDt+uUgQMlAg3eAjoaWgJGGpNKqgZrRUduC7dAkU9D7PgSvdaWBiRSuyIUfmrllHzyxEFncV5sU5rGYlqHrzxKLNoWtvUUXgO7MItzHWYBRTt6rDM1WAQB10SGD20rsM0S6sLj7wIs4CrABt7cH6R/+Oyn+Y8EbaQTU35vgLZgw4n4BmA4z+uDOipMMvcdnaPzd2zinxON8tWAP6bPfOk22nfeTtq9Ywet5l8KjCzy9wP4ioB8UTBONqlTOkMlIFZqeA0r49QGtzyy+EhQzPJrWJnL2gNi1SWl5rULG/IIrkybuKgPotR8ktfkqHGM21ZbC3N0Kq5liilzl20nYqUSY5sQ3ZyBaxKjUdtwE1BJaqAunkmd2AVXmiuxRDaVZeRKbMO1vy5J/jTmuAHS9u3YQTZ5mtiixhxkwVGlGxBfBlwzPsE3+iJ6+wf+gnZu3ElHTvGdvwwnZPLnYVTANwDDeFYfgjHhUv+xkws0x5f+Lz7/fPr4v99Jv/vOP6Zb7ribNq1ZQ1s3baa16ydpZDUuLI7QIv8Bckw2rV8O8ExTm2v0faBMZPyknBLvHqoymcHtVo8SNiGdfNuR5ZLKdjTO4LWmpdvansbEErAJb7xdIJ8v1b5JGbKkdqqxTerl1JCryV/rIxphhrS1zAYNTavShm2oq3M1Tg1DfA03mKk2rQGsOhpKWUv0IjbgeMYolcXlcjYBoGsIGoz1EoYrO5gAzvrJdfT777+O7j4yxX81cAQX8vzogQK+AejBSX7QhsgzByb8w/fP0daNa+i8HTvpHz91E/3hu/+Y3v3Bz/GdA4/T2KoxWjs5SWvW8GaAf2o0MsYPfrsxsio+8DVUnuBG+CHfH+DpSOtaruLPKeHDI2HRVvzcS3RD2xnherS5Pw2+RL3GrWFoJ+FoB1rgLIXxofElx5niTZ9qmGkLOVNe5tbbCf1JY5bTY9pAPn0U7Wn/k9+0nWEab8siF7sYwXlAe9onviV15GEcYOB/Wav4hRh+mgodwYc/HpGqppQ1DA4TlvgR0zVRKVqmfCkg5gHBkkpb+YYTqvpsHMI1NqrG1FRaittwTFUpEg+d8N2dDfw9gJnZQ/Shz36CPwbYQsf9Y4BGpyGu+d0fhvjkPhRDk0mRV6/DJ+bllwLbNm+mLRu20xdvOkzf/8bf5C4s0uMf/UR6yfOeSE+4/FLat3cvbeMJZvPGDfxnScf454Vj+WStndbZVm2UNWwQbmMH8Wp5ExYrKDCL6u/9OjsDDhrLj853xhVuisx8qQPJHTtUbU/6IP1t6JIuy9n4an023lDFIFqrTkgoLhsgVO5AyxFJmiqE28imbnxSNTYGjU0kfp6KDSV+koqNIvHH1/P8ufY8/+nbhQX+3QovcGkzUOghDQHDYXN38PSGeUrVMtFTJaRMz114InClxcH1GoDx0A2NNppwrlislYf9BtOMNgQbp7HRUXrmlU9m8u/wFQBlaSNeDqsCvMn+FvtaGNZx+rgeIgVkruFJeM3kKtrJf2kMny3ectdJbv0wP47yg289SjvkuwIX7N5I5+/cQJPjY806YSYrJi7/wKv4bGNlBuVgzaGtyr+MElSnloUfC16arCWBEs+ufABSSMNnkAdUSKmHDdVFUH1nXWojNvkZJFvkxX3t5GravH4NTU6spb07ttOjdp0njz3bd/EVqU00xpuDBf6p2+wc/rolTkscVVebNbzA5PRW+pnRMsOQS7y0QWWsBpssTOhglHDMZc+lJrdUbADGx1bT/sOH6FHf+QO8qUJrq2iWNfZjuBXwDcBwn9+HbXSYdGSe4jlkLW8GNm8Y5YWedwPsOMlfMrrn8Awz+MtGNAsmP/xwBc5UAd5pEhZ3vI5O8WOaH+vpwl2X0rdd82R67pOv4l+oPIZ2bdnOrzD+CessXnNLbARqL8VlYC1KC5Cm6y/1gmvXd7t4B1okFzGSfRkYcsu/zdgdW/C1Evrx3/0NevO730+7Nu2ke46xtrYDluz1oVDANwBDcRpXyCAwQeHB+4CJsVV82XEVv/PgaQffAyiP2mRWcobB7ss4y3N1juNG+Ci/bsbw/RAuV/NrCa+nef722m2HptiLK05H+O6VV9LPXvsC+g9PfzZdvOcC3pQu8EZgVj4+SItb2ZfS1r6XuLFNVdlNWXOW2FJ2zNbQuNYYTVuo1fASM+FY43FHzzXja+jPPvw++tZffD1dvPMKuvkQb5h8A5BrO2SWbwCG7IT6cFyB3iqARY4fE+OraOu6Ub7yNEI37cdm4A5+bKE3fd+30SuueRHt3r6dpmf4agFz5WMBxJVHDQOnhkes5kppS2dpL5Fb8zRhsSaFrtKNt9VP40q5DIaPASb554Cfv/UGesL3fg/t3bqH7uaf+uIaix/Dq4BvAIb33PrIXIHeKoAlkd/U0mr+Qtv5/F2UqZl5OnD0Zl7xL6H3/fL30TVPuVoI+H4AvkQoh1kQky2Jgjs9lzw4IlZzpRSls7S1gRKPNoqQq6kpUv1yapnH9DNVmSM5eQMwyl8EPH7qFH39G36CPvbl/bR+YpJOzPoWQE/LMJa1i6/DOE4fkyvgCvRIAVn7eHab5Y8EbuVL2Qf4b1lcvPvRvFDP0At+9LX0i29/G9/xjn/zzu96sz9vbTXCyohDy2C1bcNRqpZwpXXYghoDrIbDr0fkKA2f1YcDJbJziW9nKhy9LRu4fhEyRIkp/WMcv57YsHYdPe9Jj2PvEb5DIH9hN3UewX4MmwK+ARi2M+rjcQVcgVwBrI+M3HxghtZNjtFl5z+Jfvp3f4e+6+d/ju6+9xD/imCyexOgmcrFVXFbGk5clqVdA7cXaY3PSAyWNngGa6paQ1lZrdWNeDmYU2DYE+CBjwHws9wnXnwZM4/TpP8cMGo2vIVvAIb33PrIXAFXICogSyPPdidnFuj6u6Z4E/BY+st/ushEA9kAAEAASURBVI5e+CM/RbcfuLu9CSgWSUljMdT1YVVmTGloU5dkpYpPCTYO9RIv7RYnZActUPnZvMMHXY6GoIgGNHYiLtLF5+1law3N8dWTWroiyM0VrIBvAFbwyfOuuwKuwJkrgBsGXX/Xaf5IYA999pY76IU/+ga669A98iW49HFAV9qw0ubeEovrcLnu2g1Ba7HPMzZWmQSe2B4+CojVhi9+RjNHCih4hck0fAywa+t2dlxAdxyZoXH+ZYUfw6uAbwCG99z6yFwBV6CiABZibAJuPjBF+3Zvpy/cdhu95pd+iY6cOM6XwFfLpXAJ61r7avhyMdsfxJRxitXwAbH533mQEXJuTRKuFFTHpO3ByXzcFnjzuo30rc++hL9EeZK/COhLhJV92Op+doftjPp4XAFXYEkFdBNwy4Fp/jjgPHrfv/wT/caf/ZHcvCrdMRBZ7AJps9bwLizGwY1Dy2DVgOgpiaWdEiCnvRoAIkbIj1pMBwYYV0Dwc8AnXLyPrWN8bwBeIsz+gUE/hkgB3wAM0cn0obgCrsDyFdBNAD4OeMwFl9PP/cFb6H2f+AiNj483XwrUdFgdOxbOFl7yTKy6DBRaUIe2p2WJ1+wCa0zU+BELU8mq2hR4uJIwyndY2rdrD8OnaNy/CJjkGcaKbwCG8az6mFwBV2BZCugm4Ga+ErBh8kr6+te/mb8UuJ9/HjjefBRgM2ExXc5R48kC27yhbr2xRkxHXNbkcjicKKexhZ8Klm/nc1JqZu+OXVznP+ON2wB0cBLZKytWAd8ArNhT5x13BVyBB0IBLIszs4u0beM41w7QH/3tX5fLZN5MbUEEVuIVDB/L12hZAyUBzhKDXcNiInXlZW5Fap6HO4ifA27ZsJndm2l6dp5vm5yYXhkyBXwDMGQn1IfjCrgCZ64A/p7ArQdn6ILtF9FPve1P6Mu33RJuEsSLYfXoWhRreInB5kcNTm2VTjiWg4HT4vGironFn6yGHGNQLCzO09YNG2n9mp1yO+Bx/L0FjfdyqBTwDcBQnU4fjCvgCpyNArIkyiqHp1n68w//g/yBnPRF+lrSrlUReOkrbeRjzMJ2WZbmrFOAEKPVVIJXco1tqilE+DI4tBoZKBhb4E0P7pB41SX4OSD/FJD/YFerb00mr61gBXwDsIJPnnfdFXAFHjgFsB7eeXiWtq4/n376be+hO+45wF+CMz8LrDVVXV0jsfSVNmgRQ6FuLSWLdQgQiRkpOmqYcQW3JfGyXtnhyF8GnJigKy7E9wBOhzsC+g4gKjlchW8Ahut8+mhcAVfgLBXAGocvvW1ev5prt9GnvvQ5vl8AfxFuqXxYU+26Oohf41WwVsoKp9qm5bWS2I4pEZuAZoTYD+BTj7HRMf4ewCYOmJY/s2wjvT48CvgGYHjOpY/EFXAFzlEBfBfg+Kl5zrKL7w3wCZqanmn+WuBSuXVNtbzaItyFcZymwJLcLMsxoTrL/NZGveRFG/lCVQl69wC2FZLKIo95Fe3YvIUjsAHwZQKyDuPhZ3YYz6qPyRVwBc5KASySh08u8E8CN9Pb/vpf6eCR+/jugKO8GLMnLZIDUoNT49WwMk3k6EJdDamBy8GYU6OhrXCAEEhyLwC+8rFrc7gCsNpvB6wiDV3pG4ChO6U+IFfAFTgXBeb5j+Ds2IyPAW6n2w7clX8MgFW0tpKWDdY4JVbLFTFdmMsQaWZAXNaNMjjGaXhwa0s2MnhWr56woNeHUAHfAAzhSfUhuQKuwDkowOvfQlwXb7rrjnoiXUXr3oCGdTRnnAvGmWrhWQMlobRBNtigH/hNyAYA34GobRKyVt1YoQr4BmCFnjjvtivgCjxICvACOTOHW+Cto1v376f5+QW+Om5WTdtsB5woNX8XFnEUUo2VCNt1O6RXR2osVko85slohqNuW4K7hn8JgJ503Qohy+fGilTANwAr8rR5p10BV+DBUgAL4fQM3vWuoxvvPMCbgVn5UpyswGbhTO3rypmAonImMR3cGiytdLVdCyixwk7v8xlHfc0E7ozIVwBgFFxp259WvAK+AVjxp9AH4Aq4Ag+0ArgZDv8Yjk5OnZA742WXys9mMUTM2cTpwJaKreXvwjQnSpPXVIUxwfdACFcA0tZAcH8aHgV8AzA859JH4gq4Ag+QAnP4JSCN0uFjUzQ7N8dfBNS74cVlsmtxLVfRsj+lX/NYXLGO2C53SU+2zQ2wZpcY01aPjgrZLwBAtOE8fAMwnOfVR+UKuALnoED43HsVnZqep3n+RmBaH6WSrPZiupw2TXhGL3G1tczIHU2DW+OXWGkjd1ds0a6bw6OAbwCG51z6SFwBV+ABUoB/+s/HPO3cPMm3Ax6jBf5UXNfM/PuAjKpD217OQlrG2Fitoyx5Mbe9KF9SJLwGlljMZZvTOlzhYxBFvBxGBXwDMIxn1cfkCrgC56TAiKzy87R2zRoaG5HdQFqMZfEVP5bJeIG8tpgCG3TUYsCvxRVYvgmphywnT2f3uL3pmVl2L/CfA9aPPzrZ7lihCvgGYIWeOO+2K+AKPDgKYElfzX8BD7fB3bN9K43yffEX01fhm/feYRHWlTmWamrXYJeY+rSscWoxJca2Qk2vNGkslWDhEuuwp2axAeArH/B3NmATe32lKeAbgJV2xry/roAr8OAqwIvdxDhWvRN06d49ND4eNgC64Ot6KWsiGwFHl+ABgHpx1LCC0jJrMSUGmx+xyMqUr4yBo8Qq9tTMNBPjBiAl88owKeAbgGE6mz4WV8AVOHcFeGVfLX8AZ4ouPn+vLJbhCgBX40obi6YtWUCxJcCDDbEbt9RqmKXAX3JKG/wleNoLm3qpGOEWeU/LBoBvgpQlcmOYFPANwDCdTR+LK+AKnLsCvOJNz+J3gJvpovN4AyBrerEMRjNDdXegPcicEaxhytey5MAuMeXa0nBM1TLaebqIjM/N4wpAvAsiNPBj6BTwDcDQnVIfkCvgCpytAlgPN0yO0J33nqRnPeEK2rtjF98KeL6+/oJcLqA1u4Yt1cEyBvwSK+3IaT6SaBqpUZO3dLK9yHdCPnryJFPG5GeQrbZTsFdWsgK+AVjJZ8/77gq4Ag+oAviu35b1+Nb/QXrZc59KmzZsCBuA2qpqWtY1VEo8JX70JDsGaYDJ0arWOCUGu8SQiLEOODhKJ+yI4e8ezPMOYP99Rxhcw7dC9rf/kHQYD98ADONZ9TG5Aq7A2SnAa93oaFgJn/2kq2RRlL+GVy6YNntcPFHUl8oYLJsAk8hUbbqsXuOcAQaq0rVM+VtAIAvMG4Djp44xsJoW9E8jpkCvDIsCvgEYljPp43AFXIFzUgALH97933LgCH3Tc55Dj7noEprj2wCPrFrmNMkJsjU1ves324KMwA3CLrFyFDX/GWCm9TJzu20mj4yM0OmZGbr1wL3MX0PTuAJQa6+dzZEVpsAyX9krbFTeXVfAFXAFzlCBRX6nu23TGEfdSd/9DS+mtesm+fNv/jKgLn5aDsrLHNCUGvYAaiGwYzG1lFp+m1T9y8SWSm07jKsd+AhgenaaPnPzPdzSJE3N+i8BVPJhK30DMGxn1MfjCrgCZ6wAFsnN60bpxrvup699ylfTM554Fc3zLwGwGGZHYWY+NQxH3n3D1odWkq1BkWPMzqrJL5zSBmixoq3CbDWDKwDHTp2k6++6jzatGSP8IELG0WI6sNIV8A3ASj+D3n9XwBU4JwWwIOLd/84t+PO3t9N/efUraf36tfwzOP4rgNgAgGCPpVZQcBFWCW1yxaSxSOlLOzlipctfw0ussAszjnNRPgI4euJ+bvAgbV4/RnP+HYDyLAyN7RuAoTmVPhBXwBU4GwWw+O/bPUHX33kr/fh3XEtPf8KTaZbvg493wunAatlaMZO3u1KLyTA2Mju2U2JlC/CXnNJGTIkVcaVbr1jsvw+f/0/JFyLDX0ZEMj+GTQHzCh+2ofl4XAFXwBVYQgFe8bZuGOMv/p2iyTUX0g++4ttpdAR//GYZt8AtV8+OpvRKgK69TRhq8eJ6AzZZaljjrdcQU8aVNiIjVl7axxUP3APg9oP7mYRfAIDsx7Aq4BuAYT2zPi5XwBUYrACvfpOrV9H6NVgN76KPvvX1tHvHdv7dO7/7x6qNo1w8YVustCVo6SdJL3lMMsllbKQpzFbmLn8XbhMwBzRLxbhnefxfuv129mzkXwP4DsBKNmx13wAM2xn18bgCrsDSCvDij7/4t3f7an63+2/0V7/6S3TVFVfQzPRMuvSv746xWMuDs6bFMlViU7BLzPRiMfo1Z3DpVQYNjKWaGl/aimvZ5bc46tYuYoMrfP5/4vQp+vjnb2bGBjo5xRuAWpzGe7miFfANwIo+fd55V8AVOBMFZC3jNW3jmhF61PYxuvHu6+gd/89v0n949nNpdhqf+8fVjgvUoiUX6mURN1hy2g5ogMVMTPPOHwR81BCd4oARtwiSxyQzVbBaR5e/xEsbiRhDq/isf3RklO69/wj9y/U30+5Nk3SafwLox/Aq4BuA4T23PjJXwBUwCmDtwxf+8K5/bn6Bbtr/GfrzX3wLfdM1z5cv/QWqsLjarJRYHJOFSjKKOptyWL9iZcmcPFVc+C1a5skDyoxNwpK3jDxh/8FXJHgDdMehA5z7EK1dM8r3QWg348jwKIC7XvjhCrgCrsDQKoD1D19sW82f9+87f5K+fAe+4LaGPvzf/4Ce9RVXhcWfSavSyh5XTAls1vtoJlYSTB0J4EoNs37USw5sHLIXiEbJgb+GAbeH7icUq8WUGO8C8GePv3DrTRw1wX8DQYO9HFYF/ArAsJ5ZH5cr0HMFsL7xX7OVb/VffN44L24LvPhfR9/5wqfTrX/52/Ssq8Lij4W/WfytaJxBkjSYmnjHnK7aw62OhlrHrD+LMwmkalZw4yrDO+1azAAMrY3iFsDT0/TxL3yRrS104rS5C2JnQ+5YyQr4FYCVfPa8766AK9BWAJetebHbumFUbmRz28Epunn/lxi8hN75i79OL3rmc2lyYpxmppov/EkSs+ZmSTkXPh9v1k/UKmQlWFcH1ebHRkLzI1RCBAQrJijzwNbDtqcYSuVYf5lHedyBsdEx/guAh+hPPvB52ji5kY7hC4B+DLUCvgEY6tP7yBuczD86IWn5yOum92gFKYC/1TPGf8Fv/cQqWjs5SpPjq+jU9DwvZkfpvmN380geS7/1Yz9CL/3qa2j3zu20wPe2xY1+RkdHZOFdzlDDLYH5BSuv2fDCleeuBRVJA62+EJeNch67CRB3yh0rydbgFqCOwSXCcGj/UOXGV/EVgJvuvoOt22j75sfRzffMNH0H34+hU8A3AEN3Sh+BA4rvyDbwN6/X8W+uJ1eP8LeteW5J11DlD64+MB3XyW1gtmWQlkHpbMJMrJ2cB9rxcLSpY3i42uZ2F3jhOsmXqg/dP0dHZk/TkRP4E7Z47KRXvvBp9LLnPYeufvyTadf2bbLgzfLP/FbxjsF+2z8thHrOs/EAVIDricMLZhy//DpAKRE7m0L+OXAebVFKNTRhahRAbLTkKFfLLEZBLk2c3ACItbzuy19gxyT/FcQHYECmKa8+MhXwDcAj87ys6F7JvMKL/jh/6Wr7plFaOzHCnyfO0YHDU/w3xk/y2PCYM2Mc5Tq+jjJo0hnkQ6oufxdei1mKqzMpYlfqYWZ9uwKc0XBsDgSWuqiOJX5GjSyTjPv3b+AubKGXPudievLleFxOj913Ce3dtZsm1ozzS22RZmdnpZfp9r7cRe1lSwbtdkYoumMkkKqxE7PEYONIeYOJZ3WlSuRIiuYpD7B5NIHFGnaoSZ4CZAzv/kdHR+nYyRP0N5/4VybsoCMn/fP/QqmhNH0DMJSn9WEcFC/823jR38x/V/3Gu6bp7ntxT/Hj/NhKz37yPvqqKy+kyy/aQ1s3babtWzbShnVr5R1Z/o0q9F9nNFRjXUu4cSRKqgRQTI0RZniKONIsZj/qrnARkdpjPyi1yZUnT9MRRIVDcDVsKY1boLse22u1kOF89STa+CLbwGspkZc1WMNA6MI1uOZfLqY5bFmLhZ9xuNLI+LzFsyXRWNDXr1lLG9ev56tLa/gjgDX8bbYQtzDHl/r5c368u0139pMoSSiJu06r0JIz9EBDQ8nOVehcIsnLQCyGE4oKDqTQIzkVaJfy0osxQm/FMCCYTdzOsxwErx98/n/bPXfTBz79Gb4/wgV0x+HZ5YQ6Z4Ur4BuAFX4CHzHd54V/99bwbv/m/Uf5ZiKHuGuX0Bte8yJ6+hMfR5dddCH/tbUttG7tWtyCjScvTGCYwfiQItaTbSrKA1G5hp4whASjyS1QJGuMlsKPT4ppKXGFz/JR75p7LW7rGl/D1KdlySlt8EqstDWXLUuOtW1dY2rYIF/JL23E1rCunDVuieEjJn4sLszzpes5WsTNa/g1g0XfvuPXJrTUU43SruPql1KcGWIMdsomIL3qQkhMHF2Gb6qRM1CL2HYaLv4dZBtO9ui/jWYXGBpJQaZNVGPODEVHGf/Ulz7H8Cka4e9TZM1kZDeGSQHfAAzT2XyIxyJzCc+1WzaMyDeub7ob7/ZP0ate/Cz6thc8i5782Mtpxzb+7HWM35JhRsEPi3mSXpjWy//IwIdOYloKJh44Y4VLqWoZSeqOZiAZUHNqmfHCxN+8p9TcMV7TaKyWsUfl5I05V0K4gro+lzzrkvqgp5CoYbRsBdAy18P/3I9gq7dJEGgDbThtoK1ngdGo+UusZQOIfa7lBFbE4CVURmDtEpCf4MMpwmf8raMMBAEYDs1r7ODQZw1WguIoGaus9NJ1DYs0iRKH1Jb3FNODnHImY0AK23ZJMz7kHOO7/+GjuXd99ONs7aajJ/jfJzh+DL0CvgEY+lP8IA2QZw5MHpeeP86X+o/TkeP30g+8/Ovo2pd8LV156SU0tpYvxfIl2EX+wyKL/PkrZuYwOdvLsXGW0YVVS3Q5q+sYCn7GY59OWlIGA1/VCmZ0VvIKx8SkRIrF0JgodEbzyKys/YtlxNLleLaRokVtAZU82rZ1pTiu6EcZ4o/k6E9jL2PLnCmfIZZYaRtqe2DszPhsZDb82gktbcJYNzFY/HGXXkCIwEPcicOVVIc/fWgQk9mgBkJN3/2nnKjg0Hxi85PawWue2Sc7kSYmpYiuFApHMrieiCZdWe3ghC/uRXKZF7DE8ZO8nS+Sxpy4M+LY6nG69fZb6N0f+xe6YPv5dOdh3aAXMW4OnQK+ARi6U/rgDkjmGbzrXz9Cm9aN8OJ/C13zlCfTz/+nH6anXvk4/uYff+lqdobmT50O37TmhVJurx4nHJn8tK4zoZ0Q0X0srjppcV3e+UkMiLkv8BjTd2ESiyTMzWKAmSPx0Fz4HF3o8hTnaKwM7FuVFivEIy/jpn86jJQ95gh4yCFDlKfEWrqCPLWYhCM3OAUp+aPbtmR8CV4OVuNogpoPGA7pGxt6fgIaOiZ+BZYoU74mVCB+CsOPbcQ0+GJb9dA8cEaK5lEbLmC6MYAth4BqdJQZJ2xDQjLDzzgGX6KKMPRMus2GlqkCjXHEomIEqPL8sc99mtHTcjMgPWUVmkNDpoBvAIbshD6Yw5F5i98xXLhzNeHmKkdOHKHf+6nvoW99/tfQmo3riWZmaOH0afk9MX+MKIdMxGnBZDAtBKhrb83EBUwnMI6T3ycLLZJ1kkMwz1SgIn2aBAMScrNTolKM8iRheJK+RVv7pk2BnvoCgx3SVgR1XNIB+GMeUwhd7Zg38UpbebbMEhhHwnWQ7LPts18o0W1dQZQ2P4tHU6kNGHyUdkDDM3x62MaSvkyQ88Bl8tc6p0m4NO1pVaVucuS8EKRYasgk7a6Cre0kVgnAxtFKbRzayfTiCSHZs6ELXraTkaPBHE2ZwqudLoITOcfxb2uMP57DTyf/53s/yM49dO8xv/yfqzTcVuXDsuEesI/u7BSQ+YkX/0efP8GL/3100Xkb6DNvfyNd+7KX0Jo1fN9wXvgxoeBLV8JFM5it0kOAaJd12DgMn+uyeUC84pESJt+AS1vaRuJpHgTwISb4OGIpeWEGrsyRcMkD7/oNVxJEW/ioIzQGaC4kkUTi5o0Jb2B00QsQu5lgOAKXduSmossvOJ4iocLTtQi51K2lAMmoEQyGBDjAtzECFk+d/ugo/aVt08FX80dMThP4YuMpIUDjUUvArgIWrSKmWWBaDTVjGdu0q0k1Q4iwuVMOVJSudWtnxGhEf8qe8aORYSZJgYcNwBh9/pYb6WNf/CRdvHs9nZjmy3t+9EYBvwLQm1N99gPFvIE/pnL53gn68p130Ktf/Az65dd9F23buY2/0Mfv+Hl2w33E5cBiyHY21+hCqagkBBuXM/FJdairWyZTfrctFzuFmwKEKTOyzoC8wKZ4aUe5XGLxjZfvZQKWvoUU8pxymCsNIAKXWPQQdWEHHEbMK1TJoX0AF/6SD5vB2J6MLPZbuhzdEqV9EsM8aU5AlgO8tCucOJzUtSzMGtqOlsht68iNo4YFT3i2fltXjmD8JH3nJ9h2HMrTkv3lGBADDIcUkgNP8ZCTzvUksjpMqXTTdjVMcps4VDPMJkKdHwJx4vhZAsxYRbQcCYOlfRAw+MtnSWn8qZoqMUKIJqcmMjz85b85/p7Oez/2Ufaup6kZ/keuccr3cqgV4A9ov0VfdkM9UB/c2Skg84Us/uO8+N9G//erX0I/+apvpXG86+dL/vj74XLorCkTiCzdYS5RXJtnW19w2DjE4DjxRFthdoLbvGtmR4qBwxBTVSvgIrspo4ki+aIh7Wg+LdkX9g/cA80V+U2h+RmxnJij3HNIHJ7YoTo0leQNlUQocDWtXxY56QB7o8P6gUYbLHXZegI1P0olKlbaNY5ytSxjrK2dEm7sjfVrDi1rPsZacAkkfUqHJuay5opYcqXKEnHJXSYIzehmJtFQOcPcGJKe8RQuOfBkzmyZl228+x/nL//dzLf+vfQVr6UdGzfSfScX+M6KyORHXxTwjwD6cqbPYpwyhfCMcPleLP530Bu/52W8Afh2/p7fan7nz4s/fm4lE6vMKNwCShRqoypA0zrbq/AAwiX8shRyKXEpRwgJExx8gS8ccIUXYmAFv1ZiqTm11NxK0zwaLDZyhbygwSVblpKbcoEbeKGEATuWwRJXrEoBr2xsYIVBCn5GTzYOGw59O6wJBWsyJhPU2GzWS5tPw5TYZQOvxSm/Vlp+6hSIsTfWX8aX/YGfsRZc5kA7mj/lLEiFKbSIJRcqyYiJSjvlRyUGlJzSVmoWG8NLLNoyJJNHqunJnFlghoe6vP44wQeu+wQ7D/JNlMZowa/+dyg9vLBvAIb33J7TyDBf4CdCj96Dxf8uev13vIBe/8qX8xf8+Kf8fLOVdIMVtCJzDT+lhbNZ4AMGjpmQJCbwZTMgcTGRySF5Y1h4v2zaAM5cFMiR8gMIHUKFD+bADywrxRmojIf5MXKEh5CwWZF0kgL+gIdoy48+OEw72DwgpHWgQX5km4CIJW5pJ0dXRRLGyR7B8TDV+ImIemTcWTOZkWjtisnZdhZILWcWz0Zmc3xpFylTxxWv8GWBVD/KFmCdsV7J02pLchWxtbiMwoSifZgFlEUkY6ncpV82ggqWJV6ei3wvrjE6dPQwvfHt7+FmLqQDR/BT3dSiV3qigG8AenKiz3SY+Mx/7/bVdMPdR+jbr/lKesO1/wet4q/2L/DNfOS2qrrI6fImCyO3Atw8ZE5RruKmM7I4Zn44Yw7JjXqAQphEhDbYoYu/LLMpD/gaFPiyCRCIn1IZ60jM/LBUwxnskAMuxcQBp/ClBCS2LQOkfQgfenAMxIiTrC785YKMLK1j0MRscmZxCY+VmCMWWV8QF0eYUsjClMgMxzSJgMpS/oxc8Mv4LFkMrLVZ5rQ287VLKGVMCigvs3XUGZgn0TguLUvqFgCvtE1sqOI1oGe+cWabAOSo5alhTYoQEznSgtQ1CGVoG+3jdT7K3/7/yGeu49v//htdct5amppVLWxSrw+7Ar4BGPYzfJbjWz+5iu68l/8cKG2kX33dK2mSb+yzwDf0kRdMXFzToipTrZlApIonnmp0YRUzchAfc+gUJXbEgg/hkcdluAyvg5FkjZ/bkTc9wo9xoEYaKmkRtm3AD5KUPIcKX56aYNOH0J/okrjATRuHjIvcfEhueeJ6LNOg47ydrQAcA7/hIE3LFtA8lXx1JZwrqa5OLmuYcbeq4NuYpewywSA+dEhamEZMtUwnfbF+1PkBpWM17y9QceBJj3he1ESpbi0NBkjzN42AwIflB8Q8a6SBYjUNW121PDVM+ZrH2uDrI3YM/x5x3//7j5+g3/qLv2LChXwlwN/9W9n6VPcNQJ/O9jLGKnMMv/vftRlf7jtEn/jt/0i7d++k+anp/J0/TyTy7jsthEiOaTFOprHaXOKPgC6SiR75sHGoP5YoJKdU2IhpgIYDmwyERUdZMiks7GCDgwIBUgllSCBw449cJoomkjfGxlDlJh0CYHLHdrgARzYKmidNzJEui58kkCdp03AasOG0aiVfCZIMBldqHMCJE4J09IIXPmHUsBAanuEfxCl91k6xqTI4F1qM8ei3iYInHAw2YwQDJ6XK1IimBE2PWFdIS21faACTQwNN2eFr+he5tTwdsSn7En7ZAPDf4vjov3+K/uFfP8Tv/jfRsdP+4X/Sr2cV/xlgz074UsPFpf99u1bTTQfupjd93zfTVz3+ClqYmgo/89PZNS1i/L6a6/mcw5asuGgpemQ1kafQPGA1uY50wrQzYGxDIOGaIKlKhASGd/fIg4ufIBtuaJEhxiSPNpb3AV/31zxppZCOaS7ESwLNGNthmF1hE5CgAIIJLYQQqmwAZSM9md4ikXgjLWiLcA3L/ZFbFlmO6Ew5olMK9K0JFolM94wr9CsDOM62Y+tNysE1xNicyY7JxAYhOiKcxdgW2F++9OBOmBj8JG1qzpg0ExnE+iFsDeE8qEZTKtlLBA47PkkZwa6gWkyJlXbZVfbLyy7iQpcnfPbPf/aX3/3/6v96J3v3ybt/+S5vmcPtXijgVwB6cZqXN0jMEWsnVtEt90zR+dv30ne98Hnyx3tCNGYyfsRCMJ7tZOHDrMeP7F24sVOIVAI3LKaoY7Ky745Bag7Jqbm4DH1AnNYbbljAC5/wEAa+PWK8jKkSo3TESSzeJUVQc0kJDdQFLtpQALY+QhXegMUSovMDhR5SB8YrsqSDwxLULjFNoCX8lmPrwmGghYXg1K7mQgluBz/RSk5pJ2KslPlaNgMlVuawdo0bMYwpd4fP48Nz22vTFoHiwoYJh2qlZUDjMzh5owaIDk2knhZfHVzqUeOoDyX7kVZpKPFvaZTf/X/4M5+iD336w/zuf6O8+6/22+by+tAq4BuAoT21Zz4wvPvfsxUXhQ7S7/zIN9KWrZtpPvvcHzkxXfAjFs3sl28GwJTlS3hKBsoHTMnBFZ6U5CqC8rQEhQ+dwMAP6y1i4EHZPIIPOI4GF646Ez9QhBqSpRhsRWJDMX9gBRr7QkLDAQQcZXzS9gQssEi1fUc9XiQw4w3Bzb0S2G7ESJmrWONt15Ajy8OGsWXRiJCB8zylo7TBLrHSthnhs35bV55ZJDOu+pcqOSfSivwmP+yAJW93JhOXSIxlcGYkVkEyuFYlzgSjakyhlVjp11yxlLFFDl7X+Ob/4aP300+89Y+ZcTHtPzwrv+opwtzskQK+AejRyR40VMwTm/HHffafoK+/+kn0vK94vNzbX14guqBpKVNmmDpl8pSnmF04XEcZ+dgIhMuwIUaYqco+9pdXD1J8zBfmsSZn8CNTwMIleNQle3yCER9SRKf2Td3KYXa6lC8cpGGS8qQ0RrKZovzk5or0PQHB1raRGkfkSLssEtjlxN/aBMRJHYVUUwXBlaPl51YkULlslBxjZ1QTkuWokUwOCatxNB9K6y9jl+PXXLXYGJ+aEE6hg+5+NI+UKSKghZkojCcXKskIYct6Dv9IslD7Lr6aY0A7ycUVvD5H+PL/e/75H+nzt15HF5+3jk7xbX/l9VZN7GAfFPANQB/O8jLGiHf/2zfii3+H6T+/7Hk0sXYt/95/XiYjWZZ04ZKSabpw6eqY8OgTf1NvcjCmMaaaXy1o4kBp2hIr2LH94ENG/s9iaWbjivQt+mO9yYv84SE5YAgHDK0Hj/AinIIip9mAIBkfUmh8AoIDvtSG5WLdiPGYveMMLoi8A05Tuvhw1UA+umaqHMatUFYmf6ygqGCxByHUUDVXCgFgDdStXQuo+ZWHsvRnOdmwVwJq/EG5Ir9pItayNnj0DYEjMjVC9oxvGsziGC95mT8zGnIcnw3Vq0OppY7Q5DcVUBf4tTbBd/27/cB++s6f/z3asObR/Pc8/N2/kam3Vd8A9PbUNwPHJIHP/m/cf5qedPGj6asecxn/SV+eIHgywjqVf8aNCTE+pOAnkOSIZTKjjwsskO0FGsRIlmq0JZ/iunCjmYjF1qRdYPxAfpkXxQYBuBKDna40xJjAaXgYZ5hbEQhcfSF/015wiy2NGL7GhSZjH0KutEkQTiTE0JDG5oE/HOiT9Es6GHqovla5hDsOMA9rGhC8XGMlxuRFL41ZGKUzNmUDUnvRVxaWW/ogVNnBQfxaWwU/p0Sr4LS60QFo1zrDOx0mYeRAZxxi8pPmbkCpNU8duQEj1x++9938fC//Ke8xmuebfGn+JoHX+qaAbwD6dsYr48U6t3NTePf//S97Km3YtJ5v+DMX531duDkQM4Y8+ElLrshUgiQBDKU1gbNf5ifhMSViEsJPoMshcYGvC67GhasE0ad8lMhpHym3wUHjR3iHrXiMVT6X0j0QhY2K4Uo9+oQTacIFE1xgGhNJsQi5YrxwI0/j1GV9GLwIgAIVjok26HIYTtWOtFSU8eoQPDrLnMqJJYakaWxYomm8kuCwdbVLTBOUOGzBoqPTrwmKssJXKJ0eBSSUDdgZVslZ4WChTjmRosxR2kVaaZQ5JU00r+BZeBG0wPf3HZ8Yp0996fP0X972+/wLnwvp9kPY3GdRbvRUAd8A9PTEl8Oen8f0MkHPuvKxzQIm01icynRRQyAgXSkFjyDjzbt0IcEh/BAuhBCb8hnMTpsSHnMot4aFFkIzzAMlLMBSCfWIxY9YYfHBTOTVUtrgSVewAMdkIPMRNwfCh6nx4mpygScc6UnkKUeyRI2iP3Fj/til0LfYDhfNaoBtAP/HM7g84NOjnNRhl5jl1nyCmUCzUkg1xqAwIwjNRJ82kUqL23oidFTALfnJ5go6ZDuFNMlfyQlf9Eth6+piLMKKtNuopG5BMY/mSl1VojrUrpUZB2c9aK66C5BxYpKI4d/i2OgonTh5in7mbb/Hzu10/yn+rI9n/ZSj1q5jvVHANwC9OdXdA926doTuuO8kfcuzHkMX7tpBNMfvEEDXRVGmizhltBY+nh8V4zJ/l46Y8Ai4ms30oxuGxq8x6AAfYkYM7QDA/1KHCaw5Ql9gCyk4wJH/tVR+sEMO1PmhcZoXEDB+pLFFOxSIAwc64Dle6QAo7QKM9eDGs/GpyXGp/YC1+sMnBQuJNIMUqDHQ+pIg++IaEBJlRsytBXylv2ZHTOimrmm0T5JLSOqplDE+ec6VL8KbpKaa2rAV6+d66rty4Lcc4KWtXC0Lv5h4Mri0Y2zr0zRNGYOzHGET0IqzOTUBY3h94Gd/7/zg++m9H+eb/uzZQoePzynDS1cg3NnVdei3Aht5A0B0nL72qstpfHKSL//zuwQ5MGXxQxdDmSrjdMlYWoTBFThy7UKmdabIAqpc/N1R9tnNQ7PgKSm2lUzEsIG42C/0QfohGIg4Qm7lal5dYJtNQuDKQhrzphhxAeRDfFqBjfzRtqXy4E9BXBc7xKHfsl6lOGiN8eAAF0UsIxTAiHPRvOlNUWByjmaBkPSCxqfaImH9ZV34RZA15S1ttr7FMZSJTPtZfIVn/aW75ksYV1K9DOywIx9Fo2fgJu2Eo4kZ1WpKWQCFqTTNl9ypgsbjQ8mtMhKaF03oBsPSb+UXeXDpf2Jigr5w0430XW/8TTp/22Popv3T/LM/EP1wBYICfifAvr8SeP0ZletAi3TFhXv///beBNqS7KoOvH/Meag5a9JYmhCzB2jUUMJGBmzcXm676XZrYa/GuJcB14Llts0oJEDIgAQGMwojCwFiFBIICSSEpCqN1oClkkpTTap5zKocKuf/f2bvvc85N27Ef3+orKyszB8nMl/ce8/Z59x7d8S750S8eO8bGwhAuqrUyhXLVxDFlcdkCjcR3LgaBZT6WoedHlWHQCtWo2CV6xF9xLoU6qY7qzogsO7Txun2YVtXRghCJifqDDWUdYyYhVw7sCn6wwWIOp+73KmNmtvYXOjbZcJ6IzChpPNqjwph7SZ8K3SMbEweWpXwVxMZ+nElizhEIavjbfsLZ+rXFVUmL+a08uZAqFpKaBnoif1VpQNpMOyzbVMfG225tfqePzRispOwZr3y3n21Lm0y7NAdShkDiLKxcFg7Rju/Vhk3R9S4YHP5BoAw1md0s8wOCibEvPV/+MjR8qOv/Q242lIW9BFfn7rlfaRkbAzkRwBjO+KD+U7j2b9HHluCdHd5+qW4/X+SdWxcSLnWxBqHtl3xU+6vFlBlbiPbAbbFhK1wYcMGN7dTlXWXWcXa9BU4+Q0MxTKgQJuZD/Fom8L99dAIaq5v+wEkmtUocBoLfYSdVTsDdWYOZBPtBtc5dz/EuD/UuvG6vEYBVzEaINr4fQBa2NbgJBi2A8eSuqFe7UZYI5obuoqjYjVK107217ib3F+1fnyV6tcrLKps4GqSrjEjWpA6X86sCq2+0n5Sn41MVTlvHAzbjSqOcE/kjTq8UGKYM/jRn9/5y7eWt7z/PeWaKy4qD+3Hrf+m/4BmOW4G8g7AuI9/2To3VfYfOVFe9CWXlN3btyoB0DqhtQ5Bnw3stDapHosgrjgRsITVjkSioiDGqgnZnKpXjQaJmGafXbs/dUQf3pbn6MvF8kmZPgDwK08bo12Fss+wR5VbuzpqbMD4eMwTMUI2FffhAP6NAfrlXlD6rMa67l52FSwg7Wggd9jJGG2vWEKFVuuv8kccNu87bFyIwq74dWTYDdzXIXk/U7C10Qnu4zAP3bi8PSxirBp72NcebDiho62Pwass1t7YR/iY2N8KLiZhA6ohOiB8h26lshmHLN3czik3EqYBVrbZyQodtfDWzWAcOvytiwl2lXDqSLafy/ZO6Bzq1v/mTeUjn7qxfPdrXoMf/Hl+ufU+u/XfdtFZZG3MDOQdgDEffcx9O77/j5/8K3/rmkvwWwDzSADsM2lb1BD0sNDEZ+cKWL6KKPhHsGKpOpUVIJkWURcrGDlWC1e14UGoIHeBtrBUsR6l4dqFzxbqwFPvWBj1xmmK6s/G4Njqn20BrYK+xQGFGof5JIhNiruxEENblvGyJqXVwPXmN+Qs/SU96lXgvqqcKiYk1cACsIID7dhEQ/8boam6PVWrqDug19pkiiK2W3v3x1Et21w3Ud4KJ/hr1b16i62KRtiOd6X+w64xC1HMI0pzF45Q1gxhgnE4Gapo5rJQhf8wURnKnpANKmDBosHQJ8/1TfPz5f6HHi7fcN2rAXha2XvArvwn9gFEbuNmIBOAcR9/fFbIVWSxXLp7R5nCwwCn9HCeLSZaaMQPlg+uIFpFrF7Xvgh0xNV6BZsR5dyqmD4mvCpoApbG1Q/rncOuyhp18WKTaYe3zYiG2BqZ/Hpg93pVV6zZwMoSIlQsMTJXNjZq3S+rUVfJNjZBHBf6Ol4ZGSZ0MnDDZmw9X2FPYRMU1EvTrkGjlQ1s5LfdTcL2ZGj02mg27ahGWcewVh+tfrU6HVfngzrt2sGozd0K28CXTCEL9zo6A0xVymUgB/4niRuZqtw1ssnuAuBgHncfJKszeP8exw94/cTr/ls5cey+8rRLN5eDR/CRXpgNhpXNZCATgJGfAzN6KnixXLhjO5jASoGVpLvihYgri0UtlXYXwGWhgkY4Ydt6A3C/javOXwhp3+tPEO/edS1GWI667cf7pwz6iVf5gNRN/tAilm7cjmW1Fdj9AVcTCtmaPCCyp4/GT+Um+iKYdcdVf1XuqmhXLOWNb1a5SeYl677g13WfQaIJhLw70DTlImysMdhXR428OuAg3H+Lo8jhLGOojYd+NcAhbdust+3ArFQO8XWsbjDUD/0M+0I7RFGaibf6wqaTxvEkzCRZY6Lqapg6L7KLr/zhc//X//lbyq//6ZvKc6+6qtz10Il86n/IZ7Z7DGQC0KNjZA2sG/YNgKVy8Y7NWOUQ8jyYWGELi63eHhBFEeRStXqPQzSUsZdRhwHRMjTnqiroysZ1KtyvddJ1FTqpG/9D++oKfUJnV+qOrz7oJLbQRQl565PQCrdEIXiyuTqe7qoLN3A/FuQDwBKbIOTVG8K6g7BzjPnt+7TOZIwqdY2eTvHq4gd03uBYhOyU5oTtocw0Jh/q1B4IvVn9o+2jCk8r9zVwpbG0Mtbbdutxkq7F1mDZGLX6RqzqajoA5E4YB1Kwhs0kfQyrmrJSGz6oYdvFUfC3/uc2z5d3fvgD5btf/Z/Lc658Ybn5nmMK/hO5D8MsR89APgQ48lPAFqBTZTN+MKSu1FhQ9Bly5aZbRrQWNQsS407ThA+0KICcYaZ+TY8e6+cGAChgAccByH3Xh9m7ExSsadMDcajRD+GyVS+SyX0FowKMmsKjFnZ05rYq2eYWY1Ij8F5Kz7oqUVi7GTq13UN9FmhpUsdWse4L7cqTTcrG4eNrfXnXPgY4rb7UqQ+/4Zw++F843s9ABbLwY23Ycuv5GrQF8B2Nh1iqhrKmzWFQ34hoYdt6/AX2dMrW/6SBUNY77k0nPVuXYxKtuENzdtBU5cTZNvrO0g4IVDCpVtWP44ZtFy/x+/4I/p/6/BfKt3z/y8plu5+Pn/o9kb/219Cb1ZUZyDsAK3MzIs0U/mKYP/zHxVCrEMuogwrJSEnIKehfvVqgCb2tdebDsL16OFQf1Mud7aqMvihyvTVc5nLoGNq6z+NbLDDcwkfPr4Tmu/o3uPUHPeT1Iw+5pcwxKhoM2+GnlraoVyPKZW92wqPKtd1sqfRXYFHaGAjiRlsv2zZw5L/zRahjJaSuSesga1puKIe2c5tG0lVX0wkFzwNM5G6dk6Y2wLqLDkB9ixm2O6ThWix1vTYaGlzjpKdvnQ1tu3aYVFdtJ6FsZa3bputWvAxe/Thq0LYf+8Ff+bvv/vIV3/FjAF1QFk9OleMndIL0XGcjGZjEQCYAk1gZoczWFgYMLh5W2m1ulykQmaoGIMkMX/dWcR+OR2HBiEqvW4UN1SJYRfdss//hGBzcK8w2AiX80UnnqOmDZtSx6EpYepsK39yHrpvDl8v6AZnxxe1Rmm7gT26581f1x74cy5rU3FHaYl3pIrMxlOry4VZmbs5qPxA2wSMgJmvSggZDb9IPZVK4LuosheOOL++hyQJCHQia9LZJChn1UP3GWvoWPcQqW61M9PhpzVT3sbGQxbBNUPXvFc2daAcTs45tGbr6dWNvM2GfxxP/j+zbX176sldC+Vi58uIt5ZGDeOo/V/V1MJ0QMpCnytjPg2YNHAZNrjU1oKGuq+zAo1R8UfDxK/AIOC7rgjcdOdGBYYkXMTXYodb2YVe0xGkg5iDsTSidXEHbuwsgofXhhl0RPrysdy6IkMyg2qNNvfEggGNiXBoCDfWfY0DNMVZKQqEpqJW+cktT9iu96ZRUSOCcuI1A4afaUIBeNFb30/iiqea1LLqAs6HMA4xs1tpNspWscdJgJG3aa7mXvsW39TCW02g0ZWBbfcjCcdV5pUlYGk+9KpFBbQT9ntsWLbcV3Wqs7t32FJC1FpMgCv5zc+XAoUPle37m1eUDn/p8ecaeC8u9e/Ohvx6X2ViTgUwA1qRoJACuOlp5sFNgMYEFIupcTpDX6/pGKOTtlTAl0VZwk51ghMqHAhaB8EeXpvBSbRdJaQFOGLcnkm32Uy/ofGymcieSGbb2Ef2Fr2oHQa3Li/VBmeYgQ8PYRCxBENQwloh0furYiJG5UoKOnzp+2siRlerTjbxuw3Cc+wqfFiyoo8IxMo82Sw/6qsXO5NHCwHjwum3Y7jRWa7Ghq8HUlQNMVQc+ygEuxMvGUxWorGTTYlaq01b23IGH1Xy5rgdBo7JHxVCpdkUsH0UPb+rgJlRsx+sUrvznEPyPHj9RfuhXfqn80Xuux0N/V5Q7Hsgf+1lObkrWYiATgLUYGo2eixRevlapiEAiYeiJCVB7dRpEub7ack2kjGa0szrRtjZK4RjXR3/EBxyl3R2gAC9z6HV6Cxnr2GTr2B5eSkHMhMGYOJfLjRruw6Day0+MAxL1YWUvyIc/x/fGS0dwX5MENHXXIMYoWwB8CGbLJv4BY3bWJ10ZjnjTS0ah7KPs4+QzoosMPMKYcbfvYTrxxNokbJV5pbbNg4IaqgOxCShcpmh6HuqG7QYqP62edbUbYdtuxK0b1Qc6NiNgV2xPAESvXVFdRU66JmsyGfTFz/znZufwGf9Ceflrf7X82pv/DF/3e3a55d584r/PXrbWy0B+C2C9TG1oHFYaBoz64lV1u/oomviqxDrxJjuFlaoGpdZG982NtPhigDy6uQUopQbuDgoAFEi7ijtgQSUKdds4cZkkWjVRiyfOpEObco0XZYyLOjk0kTum0MTRBdvmnDX3g1K+raSaGOuefbggCrTZvcSUcdOYWCr9kIg+6Evca5zuy7mWfyIN5CWdm3l/bo5zVfTO3uo3M8Ih7Dk2HUuW6I9j0MikcCesc4v+rNXtW2xIq8wrte2AYTvsomz1bZ36tdrhI8q18K2edW6T5triDDV5LK195XqSQ3cy8OuHXaeKgj+u/I/hyv/lr/218uo3/h6C/wvwdb+j+XW/OAZZPm4G8g7A46ZsoxpgYdKKwxJzbOqxEEkWcoUHuyK1K3u3CbB8kCvDVH8SxdUqAw31tn6yrDj6YZt6VdxGshYXmEbm+Ch64w6/KtUhHdjm/ZkdGvzv84kyoOYTLfejMVZ7VTqnaNYkyf3RLuAWazjPwEEjHEv2YfyYjQtUYOf9szPxZ4M2IwrV7kr1VX3TCTYbgNW97aODCkoNrFMvwzeqZVj310KW2bML76aHY4NDZP+xtXXK2G5lbT1s2nKon9huhE21dbOsXw7DsSuZyF7KVRCNSpygza/6zc3Nl0P4634/+Mv/tfzs7/5+ee7VGfx7xyMbp8VA3gE4Ldo2npEFOA8oEXF0JY3AxEXJL+O1HjOAQFavEkkHFdwIVoCJuqSQ0zeNDKjAIpycB4hOG3vWqers2LKgAJl05o/7Ok4qrEGpcNKbgUTmI3yh1Nb4RFVuQuNtg7HBDV7pGH0wYNYubRKSq2ogw4YfgJUU0IjDpTdwU3mBnMdEPtmF809s7YtWwNS7MO7LnLlTa5i9xsGefNMxQZ12/K+5sIq+BYPvOJY0ocwxqlMWbdbbrcVSrracohFjsyrV2hqbioxKo+uNY4LtaY2NfjQXdNT2RfmwTVlsQx3aLWUTxxK8h49h2fjklf88/kbHvv0Hy3U/+5ryxnf+Na78n1duvjuv/Ie0ZfvxM5AJwOPnbENacM3RCsjVq12gmsWICAUoVrQxYNEK+4geERAUjBiqoEJdbm2FpcSDnZzYThFHaGvLsTmLvMECUxckwzfdTvqLg3JEP9hkKxwaGgwUTSmvMQfOR127AXGUWUedHSTcMBu4cj1x4q8r5YpNx/XGai6gxAjVjdDef1WiQi6BgR9DOI4Q2VGhihmhaW2UrPtmU65OIHU/Epn/TsTjFBDjnUlK6OWy6r2Dthjq2OamLl3p54kpRIOGHTPpuWgbPV9u3eopGrajk5V0FY/eB+Nary+5cD8suGm6VsW+dlIlEyuA8cp/Hj/yc98DD5Xv/PGfLu/8yCfKc/CZf972n8hYCk+DgUwAToO0DWtSVyqrcG8x0QN2RAOtYdixJIZLnMBSmNBcYB2FDFGHAVj4cDrAq0lLr9RARf9oKAlQnTu8VJjvKpAQDgQOjyxtk5nmwHYnZ4vDNBEqFokphgy40EVpGtvLkBDg6DIwUVKkOnYshXOlcxPBxq7k3Qdw5Kx/F4D2YpIVbBybUNY3Re7aO0PBcbFvG1x/nJTTTaOjQDJzySrbhFg61/ZBJTbHW2OwlwPI2EVsmjcbrlSBncYBKdstPuzCpNW5i4of2g71q/mq/t2o5wsNcdk6aOoNVtaDdv+0oy/Y+nwbL6qKa+zmt8yXz99ye3nRv3lFeXT/g/jTvleWW/Infod0ZfsJMJAJwBMgb+OYYjVqF1XWtUZ5BUrFD05YCxeV0MmGgpBLAJ1AJndRjUGx6EvrSsgUmNwVA1ZUzYl3yw7dtQrsKo6uamAJv33rGJegGhD0XG3dpyoxLzl273InKxp4P4Myuuot6rCXv640t3Jo/FHgTenkx2uwFRPyiZqPzbgERrYWlkU5belLPMT42EZdcgJ8o5MQup+Wh/YQyiLgYc82N/rlNmybtNtPsg/bDqVaiMNllCHvxtkYtv7begOZWF3mvEVBKV/s2XtfzffQV4OtqiqDvyC5ORb8mt805NOb5sr7P/Y35Rv+zY+i7/ly9aUXl9vvz6/6tUcn60+cgXwI8IlzeH57qKsqKgw0EcCiqjZB/gpMW1IXELIROjFDBWMQMQ5CqQWx2oRcUOyijVI2JqINY5mSBdWJ42alPq9uRNaGwPu1z7O973bMtGnGZi4llO9w2cd0fiWPccp46K/Bhl7lQB4+atn40Xg5kkjGaGvOLLhYQ+lAtTe8mqpCi9JSBtO5wHw5Rg0CRbj1oT0CE+/oWH8u7zUgG7Yb82W66t+NmkKxsepbJ02/jq/atj20Hbar0YTKEKvBNLi2n0Y8sTr0RZDswwlKndT4Oe6TS2UWX/PDY/3ljX/+5wj+/2/ZvmUH/lT3tnK3/2U/HqLckoEzxUDeAThTTJ7nfixIYHlRhLBlRks916lYdbhQafUijhP2xavqiaWMOmxyitLbstbOb20Tw8W12qOiwBMOCMAW+nDUF6qloThUw4SgW7fpl7OhI/pGKaW3WWjzq2nVHYe6RhPOhHU7dhRXb5oH2gZ2d45r+4XGpADiv+qVJwoo8a3ps/eAYOijVN9oYDzsvvqU3OftGLuLwL5tFELXKuV0AB6Arw8pCk6FbdSxk5A8oecC6JKOOAZW5BQNtSnDVvW96jLdELuutnnxftHo9ctxaEDQexnHpxlTuKjlJN1AJgqbvvQ1P3zevx8P+73mt99Qfur1v1GedcVXlAcfXSwP7efP+0baW3vJSjLwhBnIBOAJU7gxHGh5icUtyrpooVLrWLVYj02LGPWxWMaq5jbE0Z+aNCTOXfRWQepiow8aWGlh2ZrKL+qiTNcIetUPgz5tfFM1/KLh3ffKwFJIiDAt1o3oi1XbseNqWf1J4ng5ogC4sPWyi70cb7hxHC0gVPANldqUx90L1MFBBPNIW8KVcYBWjJGd6BiwhFMOwMdi82EbOslZsgpZaweZbGjOcXmbbrQ1+olth62oG9q3eNahF29DuetibFIPfa3Vbn32sOwUyjrJFoj649XRHal2l6SXgX96ehp/zne2fObmW8t3/cTPl/9x043leVd/VfkCPu/XlvdpjYfcn3EG8tQ645Sezw65OuGvAkbgYKl6lD63WMHqyuj6wEsfss5F9RVLYODlFmFMfaFBe+5cz+SEay1lFhjVgSCSVz9u41hZVJ3MbReyKCue9o6jjlvFuE4AU1k1bNxQdpSx3Wzyg3bIW1yFmo8a/FssVAqAwpIP8kX/xoklcN6f3EgpPYEGNZtwKwdqyICuHB9+Qi6FBTxXqSD5GBRSEZOpVKahAABAAElEQVR6USHS11a/MsRSW/Go1Hpn5qPpBG1t6G+tdms7rK9my6jdbmwORFU9SV5lp/SU/+z8HP4SZylvesc7y5d++3ch+N+DK/9nli/wa36r+a6dZCUZOH0G8g7A6XO3gSyx0jAQ+DqvibGtxcp1w9nq6hDCSZdl9ENbXam7n7hql5/wrUbXL3x2V/Sui0smNnvjUQch9P4s0AnmeKtjr0CnMGkXtgqckPf8E+2DZxGEaK4xD8qxyTH9si4w6uEv/DQ42hBs/2EemMaGIqEY1FFp+5WmAtSnWkOc/PPuAB2hYZU6xHAJhTza/FGvczCx9PLBNjvxTQ6iQZRSEZXExSHvEKhVPz2pySlq3AvR4pu6puL4oYnshrvGdjW/Q7OJ7daXc7ps3JMMwy5KYOxBP1z1b5kt99zzQPnZ33pD+aU/+p1y9SVfXo7hT/nefl8+7DeJypSdeQYyATjznJ7HHrGscmVdFgwowwqmINrWuar5pmqzLEckgDzcmQ/giRUUu1hMKW7MzWvr365eNQx3IQxt5M+xqrtfD/qtY+vDr1nZiD5l1zpGvSYtAWKPAIadd9nHuaPKV9OmOTa7vY4K3UqNXfXpY6PS/gPiPsKkkuDjEs5CMR3GRwNmBmXlGH7ASf3IpPVDV+wm+nLXaqt791OTCh8MLeSfbR+pkWzzg1hbN4WQdOVEnQYDDPt1qI8phtaaCYKddAGgWQsatoc670aFHKK2oi8AZO+AyvHAhs7cF9NTJrizeMJ/6cRSeft7bijf9v3/BYDHcMv/q8st9x3DRwJo5uf9ZC23s8BAJgBngeTzpotYPRn4fNGqK2AshAoaaMSCJ3kF21QjALAV+hrgKHM8CwUUAtWwssqop4h3BmJIccuZArcRBjhCw3es3NVtc6VKZ90EMRxecQOoMbpB+CYu4DEItSlHpcVxAD0M2+zKsdQLT7nbtviWAw4Dxl50PiioPlFfhqO+gkzPPrgJG12jEXIq1GRyEEDYtJxQ3o6VQMmIh4q74JF1bo1+YltC303CUlWPpxoCi05vhpnPUHr128FtHMN2GNBBq/NmLaKDEPTacKJ2TxjIWrIrPeQ3i+V2Zqrcfsfd5ed/943lV/7o98uOLc8ru3bssVv+CPx17NU6K8nAk8dAJgBPHrfnl2cFAyxVWuRZcvjtgiSBy5upce3jRnUNbqw73lZI1zsORbdwssEN+PClJhuUocSYdG3poupbfRJsGHfqNiambcQxXSMzSKmjuKOAloaqHZ1VN4KFoKprpQ9s50sI29FxmPhcOp5MITj70fywky3bFHCjLxRSDfTmwmwI0HE0rGxoDj8y17EVC3aYCYdNDF3dtfa0rXNgv2xLyJ216RsyqrhXvI4xmUiabixotnrT2t6c9PW1T0AavarYdX13Zq1J674bv/tqx7Gi0QpYOtZkQx8OUMbxg4qBf2ZmusxsnisH9x8qb373u8r/84pfh2axPOfqLy93PnCi3PPQQv5BHzCS29lnIBOAs8/5Odmj1kKupvEarpZc37T5qlkXz1j4Qo9SIjeI6EK1bAb4FisXALlpNFWGGaNU9K2FFu22D4KpF567cGd+BTUxIKhwviwpQzW+0mYQF1rDcNW3+ev6glp+HMCiDtRUPayiLTGwUhRDJyohkAtvx9gorNHVxyVrOiBWjrjDy7HBD9qaq1TQoWSV/pQauIlLUTA5gi54pW9tsjJY8Ebf0T8wQqCtZznUMuM6dPpxNxqz/A52dTwur22v1Lb50lCs2ndEHLc6ftQHtivqZNjsWrtGXKsD/UkMij/oM4vAv3B0sbzvox8uP/xLbygf/cxHy54Ln4cn/6fKLXfbn/EteBS7HWL1mZVk4ElmIBOAJ5ng88M9FnuuonphxCzr4tmubC5U4UtWrFwKArVBJ/ABYCuqDaqhU4BC3d1agENbm9vLhn4QlCAPaOe76UABiwjIqpi2brjMhzrSTlPGeCPmdWOzvruO6R4ydQPHdd6UsV8vw0B9N/I2EtJHxQ18xaCrT2LpzAv1j3r0H1zXCbS4dmzwoq7cF/s3QVPSLfSE1DE27UnzR/9yAxNuTAp0xGBGF0o1wqcQj3NHJxyPDUi+za+J2HdsTTVE/bL6gritEzVst5bUcYsOhli09bU+zH0WX+s7tXCqfPxTN5Vf/v03lTe87c0wfFZ59pUv1C/6iav8rF905u6pYyATgKeO+3Oj51jMNBo28FoWpEwsiBY9WwktDriD8KNAFA1ZYFEFPkTDADVcccO/Sjey7oCkH8qktLJWIXe4jcsVFY62/TcfDFDwZQ+w+RVy+B76VNuFnEvliPPzxKTamJoaDVNjZsMHJznA0Rfl8kmIY1xtXaGhwMkOsKkATpNk6TKVNGww6psCbp2fmEJkOzKp9qgQoDbMOCb1yR3qtV/6C33LpcGwhxpyH7uxRNeGpd78omRfw82764mjP3pmnZvbtu1lpgOs7FrQUD9sy2CFHbA8j/iawff5ZzfPKPB/+nM3lze89W3l537n92F4If6Iz1eUBx5dKLfd61f9tFvBZYqTgbPFQCYAZ4vp86GfuiKhojpXwhCiXgMRZGpyFxNzXIVDEcGjJ3P8MBHQCg5gG2AIpf/w46YsJJIODdqyD7ZRkWvVHRD9U62BE8ag32xNw3xDIJ8ck+PUDxoNluO1oVNOG4JRBlfdYPr+6ENQt5ET74djC18VRx2xVrCiccokQNQ5hvLaN4xo19tow837IiB8V2yHGc65mx9d0IdcWf+NmXpwnRICdhJYKrkN2yY1Oet1PMS6c54n3MSzVa2NvXfBdmu6rJ9hv2u11QF2jovAP8uH+/Cft/pv/Oxnyx++46/wa35/DOBmfKf/eeWxI0v1j/jkE/5BYpbnAgOZAJwLR+EpHYMvkQpcXMu5evriyuVTarTbhVYLYCtjPSYR/tAOnFZkNLyP5UEKWDcLLyplTz+0pQQ7yrCpWGbjSiFcKRF3aHtyoSnCgzXpE/o6byYGfkVrvchbnb9cuT/x5H6HfXpfGjfh4YvDEpcQBqfuTi6C++BKpgBEW1jahkf2T58NptpQTqVvdUw0pt2Ag4Yjeue5YIkI7dVJ56+69YGo7cKYg7olm9hCFnYURl36QZuy2OQAjRZfG+wfCs4tZF7twVfy1ZgJMmyHnZcR9Pn5/sz8DGnCw32Hy8c/8+ny2299R3nDn78NyB3lGZc/qxzXd/pP4Gt9EOXt/gGT2TwXGMgE4Fw4CufKGLjgcywMNrFga2xcYH2QsUBGSXGty9raNAgbN1VRsbRDgxiZRWVoFwYCORwYjc9tYrws6ayauC+ZupCm+Nd99Q8msmeJFzd3obpcQiBdAIihDO3eOGSBHeVWNBWrUjH0FeCeT/elOXndfdJcYZVtbZBISN+oVFwEX4IIYAFlL/Fgm3LahaGV3V0ItOUfu7DvOoEx9DTRRoxX4a/titJIKPSRgHXjYCrxCttO2tVafXAV2lZH2bAduFC1+rY+tIUugj7ZnJlF0Mf/Uwul3H3v/eV9f/Px8l9+++3lbz73IVheUZ515fPL0WMnyx33A6DA33Sc1WTgHGMgE4Bz7IA8ZcNhAIhXOwgFhUZATLP59TIkWCm52nNTkLAqGlapZr7axgKu0rFhH6t3BJsoIRfEF2V6EpRl+Hf3FqCp4ObKaoBRwyeDkIdIgxEn3yxQ6TqDnm13RTldeltV1rWhQoHtKsaw0IXPgFRftINh8EJ9cN/KIePIZU44HeO/+jMx6taPibUnAGIHqKAc80dh7qMiZJ2ChkC8gO5DbeLMR0y1YxOAznFvaLLwOVudfrBpTCgp5BZta3V771ICDa7ByhY7P0fr2BtIOJKbni/XeL88N3QHBAOKoF+WSnnk0QPlpltuLm+74QPlNW/4axjdi9czyrPxGf+BQ4vl9nvjij96yjIZOHcZyATg3D02Z3FkXAm5YfXrBRsTScWqL7hCa5FF+KkBLLDQhoyrebiOFb1Z2GtcZwcKGKxgi0DFOvH0EXa17r5jvAH0xZ+m2sJvHRPnYS7pKsyqEP0oNSAm+jZPPgYLvxGEbYoALxsHjNhByJeNi05ph//oqPZV59n6HPqRYzrwPtCmKCajvhwT0JYHgJX8kIiwYdlglFhQFgeJ46p6iH0+FGkDbuIvEAKnq36CfG70zTn3KImhmDefVzQG5TIsBK2zVu8qimLzYUQTpY0lAj7/OM/0HC7feQWPC/lH9h0ot9x5R7nhYx8vr37D9Wh/GooLykW7Liu7tn9pefCRxXLbPfz5Xoj5yi0ZOE8YyATgPDlQT/owuYA2L633badY6ev31aucNmy0K24oIWNUU5BxiFQyUFd1UW7N0Q+HIV1ERS3u4Y9OJgUbOfcdfcT1KJ3B1rrVmKpbecIudNarda5B0M6UioM+T/vVQFMxlGpTH6h7VygA0J4VG4OwlKENnQI/5yIX2lnfssWu+nQ/PhYfhgKr5imX2AnmfliISw/AdT6UkxvfhENdY0WjcsW6Ripdnadbyp4DFzF04j6qjG33wYJ+aeRQJgHyH3OifaNnc1lbQt8tw0LgvoVo9VSFDhVVXcBxMeDzF/oUvPFTvMePLJSHHthbPn/77eWDn7ixvO7NHyn3PMigvwWvPfgq35eWI7jN/wD+TO8jB3HFz77gIrpQ/7lLBs4DBjIBOA8O0lkfIhZHrtf9oDBheQOIUu2l9qDmUNMJ4L68Xm3QSQQMelKfVtRARH1sqppNLOgKJKEPH2jTlbbGvPMJDefIkff8EwzLKLw0Rya2eqdgTRoFwrDV9bVBY88Bk9Qo2YknAc1ou044gYoNJ5PL/hgajNvrat0OKJR0PNg0FHqJ8Q/0GGuXMjiuQtq2HPW7CLfDuVDeboO2mrThVnUixWTtvuoNqxDfyiCm5RQu0afwq3wK9LxSJ2ax4DP7Y+XhR/eVO+65t3zm1lvL+z726fIH77gRyrvw2o3XJfhs/0vKwuKp8tA+XO3f50Efmkl0UpxbMnA+MJAJwPlwlM7WGNtFU3Xs2jWXAR+LMkURzOrtXY0ROtk1iUDPHiBdaVoBVLO4yykBgPCqWI7QVm8ooi0IpB68KVYf2NW+6CMsUYngU0vYcKNP/J+a5tPcNPat1qsTdxZtYh0fWG9WPyEf4thF6IZlxQrEnWHlG7soTdO1e34C14DCrsVJtgamUVtn4XtYAhi+OchenTp3FGX4jbI5tBLxmKiC/TLdwAmbgQkVy6hTxxcC/eLCYjn02JGy/+BjuG2/t9x13/0I+LeXj910a/mL930BIH6eP4/XxeXiXTvxG/1fgb/Od7LsPYDP9jPog5fcNhoDmQBstCN6uvNRwMVKidKCp6+gFOGf1nTUJUWju/XsHdZF3/FcdIVmBVYebIVWkzu1sBO4FhTLij7boC28Y4Fpc4LalfqK7nzc7KYzYwsA+rbi8JGj+NvsxKoDiFGqaiWrMq9zbPTmTPhOrdSGnVQ/9MGG+TFxfaYi+vUy7mpYrtT4kBPzwWrV0zNtww/68eqycdc5ym03Ho7IfHrJFgW1pPsJ8wKm5Sb8066Vhy8bVzMHdsFNYKt2bRcOdQGDfOnUyXIKx46/wIdKObGwgIfxDuuq/tixo+X+hx8t+x87gGD/ULnj3gfKRz91b/n8F++Bh4fx4p/e24nXrnLx7h1lJz7Pp5uDh5fKo4eWyt6Dx6HDRh7EhVq5SwY2DAOZAGyYQ3kGJsLgj3/TygBi1fVwpCZ2XAi9qD26TG2s8N1aCSDtqh4VTwRCLGU1cCnGEWGo2spHBZqfUCoSuq38O042kFczVDyhqHcycD/4NX/8l+UVv/fp8vVfsr0cX2BQGG6wqz6GujXaPbu2wXGh7cOe6IVw6rlZ5LT6Wvu2mx52giL6mKCqkw5M+JqIhbIn7zXCcoDpxLU25CPmXwFWoXfEfQT7E+XQ0aVyH/6oDj69x+sYXof9xTrv9eMOT9mG11a9LrvwwrJtyyUaywl8V58/1LPvMVzp8/P8tv8VpgAnuSUDG4KBTAA2xGF8ApPQAouVjoGRgRcvXfHLJeT1MttXQ8LwT/EoEgX5gIG7MSSu8mhOP/TNmgd/1id/e0Bg7rQOc1cTAXmiwLwLUMcWBrSkXobojn26bhLWfR06ehQmD5UPfnYBQQXf9XrSNueh+mf7XN7O9fGROwZ4HuepMo8n97du2l62b91Z5mbxJD/EMQP+KM9x3M7nw3sPH1gqD+7HcQ4lz5HY2nrIskwGNigDmQBs0AN7etPCisgkIAI1F0Mtkl7R4uhX+JI3K6jbhIklCLCPgE1HDbznVws49erAgjYAaoXNcEL0GzoFd++ZMq+aiby4NZTeVCH7U2WWT4GXTeXqi+bKI4dYP0tbO7R1d9kaxWTXbdwHtq76mjPfOt2+dIxWHg7vAvBujj4BQP3QsVPl4JFF5ZwyHdq342jrK3eRmmRgwzKQCcCGPbSnMTEtpragLlsbKYjFVEpHUBYJgwdypQhMJNoh1ESAftxR+IySeNXdEoXdjWAFNgr6LOmDYGyRCCgJMJHpeAcCYyBOeOzCDkKOzj6JRl3jwefHeMr7EK4Uz+1tOL5h+9we/VkfHY95bslAMjCRgUwAJtIyQiHjiMeSLk5CoMCNkrpePTgC2u2iElAF2V7gHqzGCry1N/iPfjxWxy386KD209hQF0kAh9RFfFS7JEBjUgYQ4w5nUbrcgAHKMhlIBpKBDctAJgAb9tA+3okx8jFko4xb8XLhAVJB1utC2TW0BVwCPbgDYlfWfoUdsVq+mh380Zv15+ZyHwYolRC4XxVm0d5BUH4RbiMRUBJgwppTNG7r/Nx1mGeZDCQDycCYGMgEYExHe7W5Kvhih4ja/TgOIqTkNIwKZIiqNbDKp8kYzuumq3u2KIOtFwZBA/ruK2OEuP/A0RSbmtjVB/racYSPsK0WqtBI6PhIoj8GYJTosF++2FNuyUAykAyMh4FMAMZzrFeZqUddBVIEQwZWotuY2N6Oj1jtZjWwuo1bmzl9CoddZA3A9UIur9xji2AuuNnQrNsoY8uFoYs7FNTJOSoBgYOaBNhgrC3Hcta5z1oycC4xgHN4Sg+pIpnlE495up5LR+e8H8tZfOT5vOdq40+AwVdrjF0521U5BNpMp6DqVemplh2F9rJf8ZOimobO7BmQDauevF8D+9596QE9uhK+KSXztgoX0C7aqHO9tAQiDFBC3vXLtpnkPhk41xiYnZ0rp5ZO4LVQpmf4d4jzZD3XjtH5PJ5MAM7no3cmx86FRWuLl1poBnUBCEJgtUL1blEi3hXuz1MJG6lUoadp+AkZy26jrZIJ+WowtQ9gZTLQVTz17lMQx7GLwLiaotySgXOCAZyTM9OzeM3g54u/WLZvv7hs23ZRObl4EH+aeK47p8+JweYgzmcG8iOA8/nonYmxDwOg2nblXN3zMrp+Xo66HuAzQ302L6A78lvxulOJnV1904Yg7eCLdezYZH1YUg0/jjZQ7R9SOpWPsKWMRi5sfVKszTHSxfxoBEGbJDg6i2TgrDOAU5FX+fzrhIsn+FPFU+X5z/uO8oynv6QsLh0rN7z/1WXhxCNlZm5XWVrkHyTSSX/Wh5kdbhwGMgHYOMfyic2EgTGuirHwRLytPwpE71pvsAPO1h4PoFQosLoPFhD1gj/13GhiO7fBdT50EmvvDfkzqaoK1G5KAbFKBJrSxXLcTQBN86lCCYp3rQHKGS1zSwaeGgZwCjLoT8/iiv/EAfyFggPl6U//lvLMZ3xz2bnzaTjzl8r89K5y7bX/qdzwPiQBx/dmEvDUHKkN12smABvukJ7uhBgIIxjy1jtbFoDl0QSNc+oAaiCWNUAMmWIr9PqDN0oYHD/MDMJF+BfMsd6b7gVQxI1RPDrwqsd3G4v8C8hdNyVUwwVrSmBoX+fMem7JwFlkAOdfF/gPlpNLj5Q9e76hXPPsf1h2X/Ac6GbxC4d2pX/y5ELZtn1PufbFSAKu/1klAbPzu/ARQd4JOItHbMN1lQnAhjukpzOhLjTG1bKCJIOjgmSjp4BNV9mNepdF17r6RgO47s/6utJtXWkgqtSPdgasOIPUq3dpo3OAmFxYR6irQy/NDR0LYQ6Ej/GrtF2As0wGzgoD0/h8327144p/aV+59LKvK89+1j8oF174AnzOv1mB/+SpBTwMwD9khHcLMtalUyfKth2Xl2v/3g+UG977M2Xh2N6SScBZOVwbtpNMADbsoX2cE2OA5KuL7IrJNcA3Qd0Ufn+AJgrWHrFZaEOFOmwWlyvQhA5XQzZuKBh2EczpXEHezAwfWO8gVBRrnCGHQFAmAahqR0xrEPUsk4Enn4GZGVtylxYexa3+x7rAf9ELyuzsFvxZ6gUFen31T+euncO6YzU1A/1xJQEv/vs/WG5490+XE5kEPPkHbQP3kAnABj64j3tqkQToc3KPklqEGk+RCEBk8bRG0xUSAQZed1Jv86OtZIOLmz8DUPuhjv2ZX+sDzRhTWxKmzX1Ek77CEH3LtXYQRoIQfgjUWMI4y2TgDDKA04vBfAZX8kuLi2Vp4X44ny5XXf0N+Jz/2rJ79zVldi4CP/6cMbBT/PPFPF95jkYRdXwssISPBbbuvKJc+5IfLje861WZBIil3J0OA5kAnA5rG9GGAbO+WOEaxAWIdZS6fKbUNw+sjKd2ZQ2cQ4UwF1A2PkIfATdUy/qhAhvw+r0ANGmiXw60igsIMqz20pldTRgCooGy4QOLsUTb/RCRWzLwhBjQuYUwjqDPc3bxxGE8xf8QXO4pz3nuPy1XXPG1ZQce7puZmcefn8YVvz7nR+DHFb7yU5yLFu9xVvPE1skdder8TgCTgG/5kXLDO5EEHH2ozG7ajb7ymYAndOxGZpwJwMgO+MrT5arVBEcC44q9NdJi1AksLzChxVTbyxdXMQ/2Xfx1ByxcpwWuMZN3wRwLXe/bCLV7ObGWrZjuM+QoNYeuVDdUc6622lZvkjWtrCYD62bAz9/62f4iAvvCgzA/Xnbu/vLyrGf9i3LxJV9etm65hCezBf5TuOKfQuDH8wAW5KnSyeltnrdwUWWdbkp3AvBxAJOAb/3Rcv1fvrIsZBKw7sOVQGMgE4A8E4wBLmAMyDUoY7HxRU0V1SlzoUV+GHFRop1ftVDNtotZhkgyqqvQqvLJRa72DbkyBlkKRFXcDajjopr9yB8BaqCNetgHhiU2gzQ4OXOlQXKfDKyPAT+3IugvLS3ix3r26Wt8pVxdrnnut5XLLvvqsnPXM8r8/A6c3icR+BfNN07EKQR/nb9x3tYSkDivWRJLK+z05A1Kg3Z3Al78j15Wrn/7T2YSQJ5yWzcDmQCsm6qNDGRo5WoWL6+q8MVH0/dAydXIqxJrdQoZV6eoBygEXrKIjYmD6uEbLYv23gd/k8Ce9CdCeUdc1WsQ5lM6+olFlDp3KffSYcfEIOxUnYCrBllJBhoG/Hyamp7CR/V+ex9X+icX+UDfQQAvKVc97WvL5Zf/bX2Nb/PmC4Vj0Lfb/DjX8Rm/Tniee6y0ZZy7lDV1vUNcZnDsVSEMzwTgTsL2XVeUb/zHLy/Xv+3Hy4kj+DhgMz4OOJ4fB5Dl3FZmIBOAlbkZn6YXMK2hWAsm7PP3oCRWQksc7C/1Ncaq+iKF+sQrd7rSIkcwEMRxUdNdAFWIqBfyrNuaCJ38y3ETy+nDv5nQgVkznzDu6U0TTqOVZTLQMWCnJs5OC9z82h6v4pcWjpWlpQPAHcXrqvK0p/+v5ZJLvwxB/5qyZcvF+Gx/E07RJV3tL51a0jmmwA8//K/XxDqVfX3vIwF7A3TnrHxxdLwTgK8I7r6ivPifvKK8989eURYyCTAuc78qA5kArErPCJQKplhTGHj1OolJ+5+IYNDEPy1LjlMU9oWReOm4kx4VXaI7by6Lu/E1WhPMxYz9caMZS12dsw05VcDY7wiY31O8WyD/QhvGOqY1dJDTZ1tKg52P1W4AuB/1EYAsR82AnwsMpzyPGLBZWsA/jr/E9xiu8g+Doq1l+85n4yr/G8tFFz5PD/PpSh8P9J0CQlf7+mzffOhcJLE6ZXkeD+oUuIx9673SyDp7gmjr+KirpHwaSQmeCeCdgH/64+X6t7wcdwIexJ2AC/JOADnKbSIDmQBMpGXEQi2Evho2QdOXHw+6teVEEY+NYpnWigSWE/jipgAdOJQ0Chmb3CIRiODu7ljUTQ2XxJh9GBXDChdM3wyGPUVqoMK+c9v4DLSHGYedwZbnBoP8tH8WzztE/I39UyePlbJ0CJzgIb2yvWzZ+jR8lv938SM91yDgP71s3XoJvrq3Xbf3eaV/Clf5vA0vf/h4QCdYDdTqTDqRTLX6jqKv1+mqnek7rAzVjHNaCQphVGnnzwTsvrK8+J/9RLn+zT9WThzOJADs5LYCA5kArEDM6MRcIBkMVXL2qPiaYwGZbQoI6ArKFL+lcp0AENS7AWZXfw+gOnB/4UN9uoyd052a5ldXR7brdNGXILhfAbzdJKB9Mx70QVfaJJdjNIFpYI7I4qwzUI/O4+65Z6lz1E4bnpsW6NkGCv8Z5E+dxJX6STyMh9vmp8oxXLfzVj5u1ZctZWrmsnLJxc8sF1zwDPwO/9X4K3yXl81bLipzDPj4ER/eEWPAP1XwuT4f6GMfCPp6oI8j12Csr35dip7ehupYHx/9aWMxqEuzkizM+EwA7gRsZxLwz19Zrn/Ty5AEPFBmt1xYFo9ZkmId5D4ZKCUTgDwLnAEGwnhhNeGC4oERIb7XtoWNZgDBxtYe25vdAE9XjdqiNIVcTs211FzcOAYtcq5hwQ0qfRxAoFSONYUAEsdO5RBLmGYjRc1PYqK0ye3sM0DeGUz5YN3j7N0CMo3gBJ/PI6rrxdvxBUG6FDwIp+DOAE/ZJry24ed2d5cLdl+NP7V7KV57cFV/KT6/v6hswi1zBnt+R59fz5N/XeXjs3/8Cp/OTZxDXcDniQmXOg+tqPVGFglI1cVEea7rfHfbtu72vNLXxqKtV/99PX52SGPdfsGV5Ru//ZXlvX/8o+XEoUwCjMTctwxkAtCyMfq6VmKwwKscLVXdgkOVXVpDbYE71h8i9YAdFyfitHlFCxaShHpp3qih09IVnVVbx/i6Zu6iYSDubVFFzX27Nx+DjdG7N4caH/ASeh/dgEOQ5dlkQIdjSkH3xImDOBr22/frHwLw+Lx+BsF6bm6+bJ7fjJ/UnUcA34yv3m0tWzbvwu36rWV+bkfZjCfjZ2dR37RTP7vLX+CbRqDnH92x2+k8Z07iXMYdAiYP+soezru4wucpGOeOTkfsVLq8lUm1ul7GPRs1TDypn1Y2od4mCvp2AJ8JuADPBPxfP1Xe8wc/UhaYBGzFnYAjSGT0UcX6WU7kxmQgE4CNeVwf56x84ZEVA2p7VY+2tlicrK1gG4EbemlbaFzyLwuwQMalt/BswwHrrZwLHP1z02IngOMIRTvsDGV7ynxVpjsu6VUU7gLf9hGyLM8qA3yy/uTSY+UFz/jH5bKLvhK/mIfb8fxxHI6iF+Qk8EMLrQCE4IFVD9AM5ArmSAbkA7+Yp6/roQ9t1R/PCvzjHQOcJPwjO2jCF/3iJX+8U2T9mFntEBhzJyzr1S9VZtPKZDDA9fST7Ksf9rXcJ/vRWwy2dK1d40cj8Z8N3n7B5eXv/9+vKu/5vR+2OwGZBJCx3MBAJgCjPw08KirYep2rYWysamFBRWItNxCiwapWIdbVMCu/IhdANvSBCusB6+FpFn4brMSQK9iHIYTyz9IdLvMtQ+6820hoaIoFM/zVUtDcPQUM8M5Rmdpabrz5T8uLvuryctEFX6LPsPm5us4JFdxZs5XpFIKYZ0E9fQDVWeEmdiXfACC3u1GoKC/A+eAPAdIfzxTz66X80Ig+sFHZytQM2WS9DGgTA17R3v309GpYn7A3lcnkbqLPTj+NJIh/SnjHhXvKN33Hq8q73/jD5fhB3AnYhjsBh/NOAA/pmDdPjcdMQc5dDNhqMiCDSyleXKTxYmF1h0W7wVDDqyv+Dzuh2eZWfREjEIX2ki6ajUz+Agt99c8a5PJDMetRtngzodK+Vhg2gWHpCy1quZ09Bnj8+Nv2zNQ++IlXlYf33VimZ+f0gB0+dcet+MFrig/g2St0p6Zw25637pkI4sV4rsPJK/kZ+6ndWvLuAGT82MBewBDHhIMBlmX78jsMfVmH0V2DiqfPTmf1Rsb3GPXej/oNWc9ugg30/b7oq8G5vc0FKn4yYjdC8HEI7rJ4EvCSf/mqMr9jD4L/o2VuG56HOMlzP7exMoAzKLdkAAyssA6YmHteG6FUkI3SmZPaMNTXICunjpVtw/QwaAtLPfFWWOn2bXCXGwNxze/hwl6lY4R3XOjhT1efhOT2lDLAW/HT03MIvheVD3/i58ve/Z8tc/j8nlfo+j4+Al1bMvDph3VauQJ9GxQ9OE4KsG0AnhR4J9kIx34tiFugbfprbdqkweUM3mETPnoJQmvfjKmzWR7sh8mEAj4DP6HizpMA5jyzngRctKd8y3e+qmzauacsIAmY3TafScBTevY/tZ3jNMktGQADWMssksbeWJHYqgidNdoC5PUIzNW8kQvvCohrwEXdAreEALBkoZ21Q+bmhnG9+mS9Ks1ezQaDtvUZfimQEAUTFatLhmpuTxEDOMlO4qt5iJD4v7t8+G9eXfbu+4we3jvFFaoGREa27iq9H0hXCMaKhtBFIG7sa6SUf/Pd9UV/XV82tpBNwnayGFcXvJuxtX21iUKMk33WZCF8oqwJgtXNtwV4Xe1TTDhfvPJnIsDSZSyVBCwtlJ1IAr71u15VNu/inYCD+IrgHN8oT9HBz26fSgZwWuSWDPQZwHI1eatrhFdqIEZbdZhRJTVlrIdgcAeBPQjnmMBJVhVu79jah+vDJhxVM1SgY/BnkFfiIl0AsDDWdifjkHJ7ihjAScfv51ug3V0+9LGfQRJwE5KALXawPBhbcGVUs2BsEQ/1CJBR9gJpd/Vtdm7PEz38tHYRjF0WgVzYBmfRNcZhZdym1zh7AT5w7djdBv1FH/FQ47K+6vyXB3Z14wGfQ2+D/qQkYMmTgG/51z8JAubL4tHjZXoODvKt8BSd/E9dtzhdcksGwICC6RpMYL0izKBcLXzFkJC2VWkYASmjyu4f9GzcxNyEbVMu829+un46395JLei6fhShvlu/PgqIfKCE5/ZUM8DzqyYBF5QPfeSny95HmQTg4wDolgXFCLAKyh5EZxhUu1v1NcAPgrrJu2DcBWDaDxMGk8lGzw807QaroB8JRfTHdi9p6Gyjz26MnS4SG2LkilfzDPIcMl+sxwvtGvRdVtuObdu8E8Ak4ILLriz/8Ht/AsQ+WGbm6OSpPgGy/7PNAI56bskAGOAitcZGBGF9qKIoNHbFHcGewZeaaLNSA7IJIYqg7DjhKWM7dGpA5G1rdnriQmeG9OI+WPLOA8Ysf9bufDsORW7nCAM4WL0k4MN4MPDRT5dZPBOgh/wiwDZBtRdIIVcglp7Rz0/YsBuUsm18ReC1oBz2XsK2vcKv/Q4SkeV9mn3gl/VZ+29xXYCn+wjguqL3RCBkk273D6/822SBCYSSAPwlw8uf+cJy7UtfhucBPoPnAvKhwHPkXXDWhoFTIbdkgHGSgXT1TaF2AOvM/BZ/DcbwFUGXbsNYMjVC6DjIQhw+wgZIPYBIP9KpYni0rZuwDycssYUPDZSY0IfSMWzmdm4w0EsCLiwf+uBPlYcfQRLAOwFcsTxgRkCtV9Bt0B8E+i4o+50CYGm/UqCPPqpvYpt+LSJ3sh6u+jV9HWckCtJjIgOfUiO418AOCOsR4Bm4q26YBNDdwLZtV1ti3HZ6dgrPXiyVZ3/lS8rzvu6l5fj+e8vcdjwU6G+dc+NkyFE8mQzgtMktGcCisA4SiOEa2G5tW7HVIq4Cbb3itwhtZlpcGIjRrMFYDW9T7i9WAlexdEM5FVbVT7aoj5DJyJSOYdHZ+N2Ink8hcneuMIDzrLsTgCTg/T9R9iIJmFESgOMXQVZBmdEPBiu+4iOBKFfD9nURvKNc1kfvIwEfB8YUeH79cJmN7uE7Bh9ZtIG6JgEM0hGo6QKvSAR6SQADeuhZst3asd7IKlZy3tE4ibsr0+Wrvuk7cOS3408dLxq358p5kON4UhnAKZNbMgAGIpJ7DA1OIs6y3dYn6UNmpQfhGpjRVp2OiAg9xRKYrOIbXOirzvFqm9vqU1jo5V479xtduo4At4cmt3ORgV4ScFH54A0/Xvbu/ZR/HIABrxTwm6QgnqgndmLSoIg4CPqQ2dcOIe/pGWEpa/CoDsdhX1F0TIv1Mcglg/IKgTvkE4N+BHm3VS7RBHi1oWMSEH5qqaA/kPPrgXgeYPdll5dv/Ff/tpw8/jl8FJB3Ac7Ft8OTMSacKrklA2BAgZOL24CNph05wgCxYpPh1yIxizbwmlgi9evPDxBeEwNau42qrIfMS8frSf8qIo6m3DWlhGxL2OkNTGFu5yIDOP+6OwFIAt77ivLww5YE6KsckQR40I8grytwlw0DdG17cDasfzQQ/oaBXpEVg2n0soN8RXvHGm6VK/0mmLdX+TVwUz8M6N4OTE0EGl/1yn+CLXW0kT0+CuD75Zlffm25+JnfUI7tO4hvBUCZ24ZnII/yhj/E65xgRPdB3Gzi/0RHYUZlW1e7Wigio4WyCeIM3PKvPhud7NimiZRmSnltt3h//kD4wIS+aUewpyp80Z8aXAQpzO2cY4CHpn47AEnAu38MScCNZYY/FgRdG4h5ErLdBmrVeXLWoM4oae1l2MANfbi819eEpCDuDhhuhaDP7tsXA7QH5Cpnu5ErULM9sJuIcV+BDdvqGz76Mn6Itli27dxWvuYf/Z84/F8s89v52wDn3JmQAzrDDOBUyC0ZWM4A17v1bBGPV8XWhcQrCrqs2wN8spUKO4lN5w3EfMr5ub1MVLf+KGetKrztIso1wOhHYCmrL3NAJ7mdywzgfGQSYLfmLy4ffNfLyt6Hbmy+HYDB16DNKOkBvwZ6k0VgjnKIW6ld8Yqc7juShTY54Gf6EWCjbAK5grC3I+jXQM3ATR2HGrbDMmxdXrG0bbHuK670pXNZtQE+EogZjJvvsyue85Vl95VfW449eijvApzL74czNDacArklA2QgguNyNhRDl4sttq6RKNC275ktl0hJAF9WRMAWxDuu3wDwdtWp3dmb36aNqvmOh/68rblIaSZq5+6cZwDn2smlLgn4wDt/pDysJGCb/j5UXH13QZwRjg+6WcBmEK86yUxvETd0biNsd3u/2rU+6Juv4YN8EWg9KCvo0y3aEfRDFu1eUAa213Z/YaOykVWsy2o7/DT9ShdtlhyXxuZ3AXbtKF/9D74Vp8JdZX4b/lYc3ya5bVgGcOhzSwaCgcnvdq6VkzbJYRJxeSXMJHtckwvOZYffFoiXhFT1grsEQEZnLL034lRvynBSMRRQT0FTuphFbucJAzgXaxIwc0n5wF/+UHn4wU+W2U38iiCObQRonHT1ql0RDoY8EaMeOA/ispPe7IjtJQzEN3rq6CoCaA2sHlCrPIJti4WsZ8t2E4yVFDTtiqWM2KGvBhvjiCt/ttux9PrhWN3WMJxzKU97wd/GyXARvhGwBMB5cl7kME+LgTy8p0XbxjM6ZX9cHKvF458b18WVNoZcblFaK7qhtH2xGbfrQ+WWCt5Eoy2TKOmRNhLK3gHmgHL+pzoqaBjcbeSQ+tzOCwZwvikJQLSaYhLw9h8sDz/wSTwTsE0nlj35z+jWBe2aGFRZXx/JQhf0J+vXE3wjgBMbr4mBG/oanIkdBngG+6GMNiF3//Lhstpfg+uNOfqZZKuPAZbKrksvL8//+heVhUP4Y0Gb4Ti3DcsAToPcxs0AozeuwBXELVgGH4qZ0VihXC3400RumzLcDH1bYLf+dcvfAzfxEdx1l0DB2q2FCRsBzX21jV54h8GTAInaRmDMNPfnCQM4sXpJwJ//p7L3gU+s8EwAwLp6Z9RDXS8G3+Yqv9Wrbjjd3odZBNlVgy+DsAdWBV1v1yA/qU3ZwK5t92yBq232E223741xOI7Ahpztxi5sC34XYNOW2fKsr/g7OBEeLPOoZ358nrwnTmOYOB1ySwaw2E2Ig5CesU1X3K23QX/WF4V4AWx41rFQUUoVGiptZ1iJDac5UBd6t5ETKPXgn7mBz9aGwtzOOwZwYlgSMINgdml5/5/9R9wJQBKwqX0moPt6XwR8e5CQkRAOFLG7Uhh/kC+C+XqCfg3MTVBdVxKAYUTwbQNye+Vfx8EhN4Fb8rY/6oihT8rbttu2shanumztY4BLn34NTgf8MBCeuahZ/Hl3guSA12IAhzy3cTOgKIk3eZQdG4qjXfMJ1YZ3CobtzjnHgWCtAG11BvR4ap93AerdAhn5uDlYvdwT6+GDKta9HdCaKEjndlmcXwwoCVjCBb4nAW/5D+Xh+/+n7gTopKlX/AzyeDVX91G3oO+BU0Fw5QDaBtZVgy38rKj34MxgrCC+BpZ9Vl/N+CiLVw3sQyzbw34Gsl4iAB23nRdfVrZdck05vu9Y4U8G57YxGcAplFsyYLFzyMPKQXqIXF+bIXj9m6NrUGcUN5nlKtGmzF6mpTxEJqGANpYEYEEkoKqa+voHl8hziYFIAhAFdSfgT/6/8vB9vBPgf0pYQZ+R05MAL3u39xlMGSgZHAllm+WEYKmgTWxgogzbsIk2/bgv+lO9taGswU7s1zFh2/M3wTb6ibm08whZJAa1rTEy2C+VLdu3l2u+6rmoHywzm9BBbhuSARzy3MbNQGT3UT6JbETQXXcXNLCXPQeAViQEEiOk18t5C+zKETxRMFMATYgkoPMnv2xT1G5ngYa2u6yfIQZw3E4u4k4AIt3U7GXl/W/6/vLQvfx2wCb7iuAg6EcgXTHoMxi2LwZZBmHIasActoknzu1UEkNZg2W9bVefjm37FXbgT7b0MUkOGeVt39U/5d5H7X/YJgbZ8uz8TLnoyqtwcA7hjzBBOHyfnKHDlm6eWgZwZHMbNwP2zuab/sne1rqjEHF7+Tg4NrxqwGbdUSpdB6Gu7gNLSMUxWWCb2FbBem4bgoFIAhD9pmb3lPf/0feVh++9scxtnkNQO1kDeg1+WP1qcGRAZTBkAKR8QmCsusCwdBx1VT9JFljHCTvoo7WvQZx44Hpjo6+QN/40hqZvYYgd9BNyzTF8tTh8nXIGPwS4+7JLcVocQT2z4g3x/pgwCRz23JIBMFAD5ZlnIwJ7lNHDsL3aw0a2BE14NoDOIqCzrE7RQF23/SU3oKlNZ4ZU5rZhGOglAZeV9/3+dWXvPV0SEMFvGBQVPLEaRlCswTgCI0vXV1u2XR6y8NPDhi3LCMaNrXwMg3yDW2nMbR/yu55+2C99OzbGE+OOsRCzaesOnBbTeBvle2TDvD8GE8FpkFsyQAaevCw/rvyjDL6HbcrXXmt8MSKQ1Vpa3QK+FBT4w4Nmw5sc3cOFYWs6tHLbKAzUJIAfB1xern/jdeXhSAKm+UuCXQCMgMdASHkNqhMwDIo926YdAVUYyGubPtlusNEHZcS1ryFWGNo6Nvpfj230U23Y19BPzJNy9hNtlFt24HcVCoT5Ftko74xl88Bhzi0ZaN7jT14esCbN7HpSUkBDJQa+ECnIW/TXwOtVPu2FwS7KWL3goOKgs+cB6BmbnFs19xuEgZoE2McB7/1tJAF331jm+XEAk4AVAmEN3AyGkzCUN0FypQA9tI1g3AbgkA2xSgiG/bBPH89qYxz6DF8K7u186J9tlhPmQ7tNWzfjZMAdAL6HnsJ1YYOckefkNHCYc0sG8P7WG/zJf5crLp8G4RyffqwQtt0o6Y1X+Vb27gZw0ZLYdb22xfx4gND84fvPpzGuNDmHGcAB7R4M3FPe/VvXlYfu8iQAzwRE4Fs1oHqQrBgPxBG0W/mygDoIsIFdzbZiVuqHAZt+oY/x134H8gj6xC3D0n/IBz4DPzMLQL4rzuET/IkPjUc4txEzEBe/R07gd7+j8STy8USC7GRbBnhsHLuqXrLuiUF8hsnb/3YXQEDdLaBugT92gu2kiVXP3QZhgEkAftPevh2wp7zrddeVB+/s7gREkKzBkEGRgdSDKeXSuSyCr+QROFk6rsoH7bafihn4VOB1Wds/+4x+o58Y40pyjTnGMKGfdjzLfNIONkuLJ/iuwMXB5HfeBjlDRj0NHOrcRssA3teLin3TZe+h4wqY5/JbfeX4rGiPw4hSoChN1H3uL6XjrM5fOtt7iAvddFlcCj2auW0cBgZJwF/9ty4J4E/fKlgySGI1jIAadQVlD6Q1UHqAnNSu+ElBN/xD17N1fxG0q87HRHmMZ1LgbpOFZdiwjTLmuVLb5fR5/MgRnAN2p8TeVxvnlMiZGAM43LmNmQG76p0q+49aAnAuc7F2csIAjmt83Q1APe4KKK6zTbUawnGuJ/E35h/j3JEAZPwnIxt0GyQB7/h1JAF32J2ASAJqIG0CtGRsM3CGfFg2QXOSj54tsArw4dPbIQv7XhIwwCrIQ6akYOgvxtaMKZKaZT4d0xtf09fC8cM4GRbRD8iLt80GPT3GOi2cArmNmYEFRb2Zcv+Bw/676vZN+vVw8mSsCU/cJ78qyA2e5MxL1hH8690AJgIAHjp2onz8Ti50M+XoogxonNtGZGCQBPzFr15XHkASsGmL/U4AA2S8FOybIBvBtiYBjg1cL8hGEI5ygI2r9BrIh/2wPbSlD5dX3bDd9uP1FYM+9NVPYxdjQz5cjh7aj7NgxhJqe1NtxLNi1HPCYc5tzAwcWuDsZ8vH7nisHDmBhp62mxwIh9InY01Yr896IT/x4HGk/hIQ9Ri8qn6XAHM9cPRIuWv/4XLF9ulyzB4FmOgxhRuEgUgCZvgVwT3l7b90Xbn/dtwJ8CQgAuCagZPBl0G0eUWArrbUMZAPsY2sYomh3P2pDFwjZ39VN8QO2yv5dJzG7piYh/kGSXif7L3nXhz0HWXxRL4xNsjZv2waOBVyGzMDh3EH4NItM+Vj9xwqjxzGZ35YCSJWDnlZb3Ae2p2xdjOwtZ5LMqgbDJIAfVXQ7wDcu+8ghrdQtuSvnZ2xw3TOO2ISgIdepzwJ+PNf/HddEtB8RZABuRdwvV2DJdq9gI3VtAbn1pZyYifIJgZ9D9A930NbYuizxU7qY4DT2OlriPU2/c3gp38XThwt937hdhzKnWXhOBKAp/zNf86fVeflAHG4cxs1A4iROzbz3X2s3PUoguFakbUha/Wr8AY4qDZxfKBZo9ksQmv13UEnJAExADwA8YUHHlGn+Q2ANbjfaGqcIEwCppkEzF1e/uzncSfgtu5OgAI2VscI2hH028AZwVQYD6qU1aBMGdrtK7AVQz2Dr+NUhq+B/Yq2jqs+3D7GHj7ZrpjoL7DRxs8A87f/jx7cV2758M1lbue2snQs3jAb7STI+eCw5zZqBrAQ4ltS2KbLJ+56UJ+Tr8ZHuxQ8jlyh57ILzj3xuhtrBX/q+xiO2oVQ8N80Br+Ejzw+eMsD0M2Xx463M1v3UBJ4PjOAE3GJSQAi8NTcnvKW11xX7ru1SQIiKDJwMlCiXQPossBpugjSNehPsqXfodz9Ud5LCNhu+21t6YNt6ifhGvmy8bS2rU//OwCP3Hc3juzdZeuOuXIqn449n8/yVceOQ5/b2Bk4oAx/U/nLm+4vR/FQ3DRWi/jufMsNQySDdz+4toiuvh5Mh55QWyUeM/FYLflYWU+n/vk/5nj//sfK6z/yYLl486byaCYAEw7CCESRBOhOwJ7y5p9BEnBL92BgDZwRTCcFTgbQwasNyAzSNTEYBOo24NdgTl/sJ7As27b3JTzl0XZc65Pjop/qK7AsW1uXT8+AELxN7rzp0zj428uifU94BCfCOKeIw57b2Bk4sHCqPH3nXHnHF/aW2/fuw4eATACWs8Lgz60Nvi3OwutyjEn6+wnu+4DorC9dd6sdV98IPVOJSXzy7vuhOlJ2bZnOHwHqkzSuFpOA4/ZxwDTuBLzpP19X7mUSsBV/Eo+/EzAMlE1AVeBHuwboFuvySA6UCGDFjWCs4Mx2Db5dPWTLyravsGWflHs7bJQIhG/q1rLFwzGz87PlyMED5cN/+iGcA3vKsQOLMBzX6TCm2eK0yC0ZwHtcb/KT5f0334UAicYKb/plgbXBsRpN4pZhG6ID14hqdTW7ADGB4GuljfNZSc+vNS+dOFH+7JNfhPmmcpCP/682oJU6SfnGYYDnBJIAPhg4Pb+n/NErryv3fGGVJICBdRB4IwBPShiGwbi1VYJAX5N8TuhDeGDboK++PcDXcQQmfLPNPkLudfkThglAwccgXyj77vqbsuuqreBkpXfRxjn0Y54JToHcRs8AFr/7D/OrPlvKK99xW9l38BAWN//+b0POpMA8KW5yyWAAtqSicdBUJ/lq1KsmD8Sp3zXWpkljO8mOZ2fKzQ/uLb/5P+7BnY/N5eF8yKmlfrx1nDBtEvCHP+FJAL4iyF/Eq0GbgZZB1APoskBMOQNqgyOWbclYrmbr2GV9uJ18ub0Si8ZfDe6NTH1FO0ras45X9MPf/j+JW/6ffNd7Md9LyomjejhovOfDCGaO0yC3ZAA/+4n3+jUXzJZ7D+4v77/tbq0K8WR8BOs2qK8WeycF3mUcrwJq+1lm1whWSzAIi3E3JjVxeOuNtxKBZR3bKmNpbbM+AgaYBBzzOwGb9pTff3l3J2DKfzZ4YpBlIG0CKjEtLtqSNcG3TQzaYNza9uTez7LATzn81sSi6aPKOT4fl8bqdfrn3OY2z5QHvnhbef8b3162X35ZObovb/9v9DMep0BuyQAXgFIeOMRwuLW86i9uKocOHy0zehYAv543IUBOEK2bRiYPa9mvlmCst6PhuHn1PzU7W+586NHyg2+9Bb9/sLXcozmv12PiRsEATs4lXP3y2wHTSALe+KPXlbs/j28H4JkABsoIoioZPAfBd7VEoGfrQZoBOl7y1QTqwCvgR8BuyxbLcbDNsvEp2wYnDPUtdha/kYm3/0ff9g4cYjwDxIv/M/EmHMUJc/5OEqdBbsmAvdcP4adwn427AB+5e29552duw8OA+BhgAjmTrqxbWNhE2epYZ/BfSVexawIMudZYqj9UlHTA4PUfugmtxTLPRW+d/bR+sj4CBrAyLjIJ4DMBmy4vv/vDSAI+Z88EKAnwIBsBOgJ3vdqGfciIiVcNuk1AbnHVnv69j5ARJ6z7C3n12conYOVvgpwfb8xtwt2/m28u7/r1Pyg7r7iyHH6Yvwo6guM88inilMktGTAGeMV818GTZX5me/nnr/tEefDRA2Uan5frc/OGpOGVdaPqVVdbP1bT9Zys0VjvWJbwecbU/Fz5xJ33lR9/x+fLs3b71f+ZGsga40z1ecgAVsfFI0wCpsvM5svLb//AdeWuz66cBCggM2gPgmwE7RqwI1ATh3qVN3YryVbqo8rDd/iN8US7KfXeQQLMJOfE0YXyV7/5RhykHeVEPhNzHp6spzdknA65JQPGAC+GF3Ab8LJtPC2OlV+5/hO8OFh2xb7WRfN6YupaV95cnIhZq6/Vjl3YMoHhxxlHDh8rP/AnH4XJfNl3FNr1DHS1DlK38RnAW4FJwJQnAb/1H68rdzZJQL2qBq4XzNlm8EWpVxPcV5Q7lvrAVJ+DQB5+V8IpCQl/TTlMmE/ivv/s/HS56Yb3lY/96ZvLBU+/pBx7ND/73/gnts0Qp0ZuyUDHABeIu3EX4DkXbis/+c7Plb/+7G24cp7Hn82NcGpxc7UAHrooO+9dbbgQdZpBret2oFi7yfhex4AV8bc+9Knyrlsewsccm8q+/HrT2gQmwhjAKrl4uEsCXv/vkQTc1H1FUEHag/bEgAz7XiBnQCZ+G09J8QAAEzVJREFUKHdZL7i7X8pqP14Pn20SUm3ZR+D4RpiQ7PJPYc9vniv333pXee13/1zZtPuFZf99J2CYB34sDOShHsuRXuc8GW+5sNx5YKlcsGl7eckvf6Dcfv/DZQa3z5ewYMS2WgAPHcsagMOwKdeM7bCXj8amrdJ+Nf/E8gpnGgnM+z5/e/neP/6f+KbDjnLbPizmeea3VGZ9LQZwvtQkYMue8rrvv67c4UlA+2Cggi6CdgT4iW344vmnZIFY1CNYD4N5BPleYhFJwaCf6FO+Vwj6Mc1TSOhn5+bwoz9Hyh+88hclnsbXAE/hR8FyGw8DOPVySwb6DHAJ4F8AnefPgmL7l6+/oex/7DD+Sths706AlGvsIhmYBDPvkzQD2Qprkta4VZwwYZlB8L/l3gfLtb9wQ9k1v63c/RgmhrN+BZeDjrOZDDQM4LxhEsDPzGeQBPzmdZ4EbLNvB9QgDpwCtwfoKm8CdwR26RrcMmz4YjkM+KGjX9bxXljt/RYzYfDncw0nl06Wd7z2v5fPXf/hsvvqi8rRvXjwD35yGw8DebjHc6wf10y5kDx45FR5xq758sE79pXv+8Mb8HcCFvRQIB+oW2tbG7GWByxmgNDPaovaSv1E8L937/5y7c+/m16U0PD3DnJLBk6bAayYC4e6JOA3vgdJwKduLJuRBOhng6HXVTxKBeVBmwFerwjmLB2rK/i2HbYu69m6zWrvjUlz5N/4mMJPYU7B2Xt/9w/KO3/1dfjc/9ll/93HMJBVsulJzlJ23jOAP4P1wlec97PICTwpDHBx2Y8ngp9z4aby3tv2liPHHivXPueqMo/fC1/C1QP/ot6KGyIz1QrgK4JWV8Tt/dW64QiGfSj4b5ov9yH4f8PPvbPcfeBouXLHfHngMJBYOHNLBp4QAzjpTuIZkln8cM7UzDY8PPfH5Zq/+9Xl0mdcUZYWkRwwOOPumUpg42pf5bDtgZyxd4hTQgC5/AAXGL0fIH+8W1z58w7GB9/0lvIHP/YqBP8vK/vuPJ7B//GSuUHwmQBskAP5ZE2Di80juBPwnAs3l7d/7sFyzyOPlG987lVly9bNWOwWEeRxNTGh8zZoT9KHyTB4h5wlfbR+Wl1bD/9MGPinfmc2bSp3PIBx/sK7yu2PHi5P27mp3INb/1xgc0sGzggDOOkiCShTTALeXJ711V9a9jzzan1tdgp/WGdaV9oewIGvgZxB39tDWSQBy+Q8yfk6zY0P/PEzfyYB737DG8sfvvynyu6nfVnZf1c+9HealG4Is0wANsRhfHInwcWKScA1SALee9uj5WO331te/JzLygW7duAn05bsCnyFSD1pzWLQpxFNJunb2ayWILQ4ftWPdySmsMh97Na7y5f+1F/hq34L5Wpc+fNzfy6s6rc1ynoy8EQYwMnLJGBmM38nYFv56Jt/t1z6zKeXK5/7HDwvgwfqTvKjAt5un5wERJDX+yAwLPm+QLnCW2rtETdvGt7y52sTnvY/gr/x8dZf/LXy9l94ra78M/ivTeVGR+A+1f+R6+JGP8pnYH4M1Pyp0Gfsmi53HMBVA+6lX/99X1+uff4zqbFbnwzABEpiwb1Zi0wx2POqnVvYWau/X82HLXAYDT+WOLFY/vDjny0vfcNH4HBz2bMVv22OP3KUwb/PZ7bOMAN8rnTTVNm6e7YcevBT5SX/9nvKN770pWXnRTvLAs5Jbvrcne8NvFREvS2FPDM7va/4DRg+sIhk5L6bv1je+IpfKLd++OMI/s/y2/5npq/0cv4ykHcAzt9jd9ZHziDNZwL2bJvVDwa97sOfL1tmTpQXXHZh2bZ9a5nCqmO/F9AlAhwk17iVNvpcLfjTjvZc0FpcDfz4pUL+vv8Xccv/P7zp/eVlf/EZJCnb8ZXFqfIors4y+K/EfMrPGAM4Qfnb+SeQbO6++qry2fdcX2764CfLVc9/Wrnoyiv0QzuncAue5y8/Fogrf5XrOP8f1zjxPtFXX9EPf973xLET5WNvf2f5xe/4wfLoPYfKrisvxwN/+Zn/4+J0A4PzDsAGPrhPxtQiGOP5p3LVjuly677DZRt+L+BN3/m3yrXPewaeDdiE70ot6StGdrXTTwaGYxoG9qG+bRPLz/i58cqGf6tg/4FD5S2f/EL5zjd+ElI+q7Cl3ILv+WvjYHNLBs4mA/iMfcflm8pj9x9Cr/eUb/l3/7p83f/+T8olT7tCCcDiAu4I+EnP52fO1MaEmH75dP/s/ExZxPd47/z0TeXtv/a75TPvflfZcvHz8Z7EX/3kX/jjZwy5JQNgIBOAPA1On4H6kQAD7uHyzc+7vPz7b3phedGzryrbtm2xhQ7PCOiuANYcLTtY9Na7/DDUa2HzEU7zkgnfX2YOsBeB/4ab7yw/9Kc3lVse2Y/b/dt1iyBv+Z/+4UzLM8QA3hez26fL1p2z5eB9d8LpjvLPfuRflK98yd8rF195Jb5Ki6t0/OGtJbw3Ihlgz+tOCBjr+SbgGwQ7Bv0Z3AnjtwaOH1nQH/X50J+8rbzvd/4E+ktwV+LCsv9eXPUTv943H13ntuEZyARgwx/iJ2+CXEt44aG7ATtnyq2PYpHB3xD4Ovye+Hdfe40SgadduEu/IqhR8JcE8bkkn0TW2hVDi0azOOkrhrxC4ouBH5hjx46X2/fuK3/9uTvL973lVqyiB+FhG/6wz0z5In6+mGPJBS5IzfIpZwCn+/bL5soCfnzi+P4vYjgXlm/+3m8rX3bti8qeZz+rbN+9U0Gbb4uTS3hPoHKKD9rE+2HSBJhA48U7YHxb8O2xgF/vO/jwXvyhos/gdv97ysf/lH/Sd2fZddWecvSxpXICv+qZX3+dRGbKMgHIc+AJM8C4zeC7e36qXLyVHwvgF8XKUbzmy7/6O5eVb3rBleVLr7ikXIWf4d21ZXOZwy8KavVqe5aTRoCro+O4Xfro4aPlzkcOlE/e81B526fuxVcRHwKIK+QW/eni+w6dLEdxNcWFcLV1s/Gc1WTg7DGAk5LPoWy/bL4sHFvEH9q5H30/Vi577leXr/nf/pfyzK94Ybn46qvL9gt243f5t+iBPZ7L3KJkXcktS+QHi3iw8Nihw+XgI3vLA7d/sdzy8RvLe//7h6G9Ga8r8Tn/ReXEcbwv9vJ2P0S5JQMrMJAJwArEpPg0GcCCt31uqly6daocOXGqPHCE3xjgi6va9vLtX7mzfNkVu8rlu7aWHUgGdm+ZL9s3zWiBO4gFct+R4+WxY8fKHY8cKp+9/2B562cOwI7JBO3ny9Pxy4SM9PcfOVlO8JMHXyxRyy0ZOHcZ8ERg60Vz+Ix+qhy45wjG+iBefFbgivLsr7mmXPm8q8ulT7+ibN2xq2zZub1s2bFFV/qLJxbKEXzkdfSxQ+XQ/n3lgdvuQdC/ozx6522w5fvjInwL4eKy89JNwCyW47ziz/cFeMltLQYyAViLodSfHgNc8LAIXYSvR+3Ei1cwdxzEbwbwcemCK5PCkhsUvY0rF1+8dJnF7/fPlotwV4G/PsxvIOzPP1bSYysb5yEDOJdnNk+VLbtm8eM8U+XYYd4ZYJJ7GK/H8Ir3B98jfH/w/YC7ZnpP4CFbPFPAZHr7nk2wny4njuJqH0H/FO6EZeAHNbmtm4FMANZNVQJPmwFfw3Dho7sDW7Ho4UFlbe0vCfLJACYKhB/HGngEwf4QFjWua3UdNLPcJwPnPwM8r7HxIwL+mNAcX5um1Za8+QwgHoblswInjp0siwj6S7jDpveFwNzllgw8PgYyAXh8fCX6TDDgC59c8eImtlZOWasLTJbJwEZlYHj+rzbPfG+sxk7q1skA7yvllgycXQZWWrxWkp/d0WVvycBTw0Ce/08N7yPuNZ8RHfHBz6knA8lAMpAMjJeBTADGe+xz5slAMpAMJAMjZiATgBEf/Jx6MpAMJAPJwHgZyARgvMc+Z54MJAPJQDIwYgYyARjxwc+pJwPJQDKQDIyXgUwAxnvsc+bJQDKQDCQDI2YgE4ARH/ycejKQDCQDycB4GcgEYLzHPmeeDCQDyUAyMGIGMgEY8cHPqScDyUAykAyMl4FMAMZ77HPmyUAykAwkAyNmIBOAER/8nHoykAwkA8nAeBnIBGC8xz5nngwkA8lAMjBiBjIBGPHBz6knA8lAMpAMjJeBTADGe+xz5slAMpAMJAMjZiATgBEf/Jx6MpAMJAPJwHgZyARgvMc+Z54MJAPJQDIwYgYyARjxwc+pJwPJQDKQDIyXgUwAxnvsc+bJQDKQDCQDI2YgE4ARH/ycejKQDCQDycB4GcgEYLzHPmeeDCQDyUAyMGIGMgEY8cHPqScDyUAykAyMl4FMAMZ77HPmyUAykAwkAyNmIBOAER/8nHoykAwkA8nAeBnIBGC8xz5nngwkA8lAMjBiBjIBGPHBz6knA8lAMpAMjJeBTADGe+xz5slAMpAMJAMjZiATgBEf/Jx6MpAMJAPJwHgZyARgvMc+Z54MJAPJQDIwYgYyARjxwc+pJwPJQDKQDIyXgUwAxnvsc+bJQDKQDCQDI2YgE4ARH/ycejKQDCQDycB4GcgEYLzHPmeeDCQDyUAyMGIGMgEY8cHPqScDyUAykAyMl4FMAMZ77HPmyUAykAwkAyNmIBOAER/8nHoykAwkA8nAeBnIBGC8xz5nngwkA8lAMjBiBjIBGPHBz6knA8lAMpAMjJeBTADGe+xz5slAMpAMJAMjZiATgBEf/Jx6MpAMJAPJwHgZyARgvMc+Z54MJAPJQDIwYgYyARjxwc+pJwPJQDKQDIyXgUwAxnvsc+bJQDKQDCQDI2YgE4ARH/ycejKQDCQDycB4GcgEYLzHPmeeDCQDyUAyMGIGMgEY8cHPqScDyUAykAyMl4FMAMZ77HPmyUAykAwkAyNmIBOAER/8nHoykAwkA8nAeBnIBGC8xz5nngwkA8lAMjBiBjIBGPHBz6knA8lAMpAMjJeBTADGe+xz5slAMpAMJAMjZiATgBEf/Jx6MpAMJAPJwHgZyARgvMc+Z54MJAPJQDIwYgYyARjxwc+pJwPJQDKQDIyXgUwAxnvsc+bJQDKQDCQDI2YgE4ARH/ycejKQDCQDycB4GcgEYLzHPmeeDCQDyUAyMGIGMgEY8cHPqScDyUAykAyMl4FMAMZ77HPmyUAykAwkAyNmIBOAER/8nHoykAwkA8nAeBnIBGC8xz5nngwkA8lAMjBiBjIBGPHBz6knA8lAMpAMjJeBTADGe+xz5slAMpAMJAMjZiATgBEf/Jx6MpAMJAPJwHgZyARgvMc+Z54MJAPJQDIwYgYyARjxwc+pJwPJQDKQDIyXgUwAxnvsc+bJQDKQDCQDI2YgE4ARH/ycejKQDCQDycB4GcgEYLzHPmeeDCQDyUAyMGIGMgEY8cHPqScDyUAykAyMl4FMAMZ77HPmyUAykAwkAyNmIBOAER/8nHoykAwkA8nAeBnIBGC8xz5nngwkA8lAMjBiBjIBGPHBz6knA8lAMpAMjJeBTADGe+xz5slAMpAMJAMjZiATgBEf/Jx6MpAMJAPJwHgZyARgvMc+Z54MJAPJQDIwYgYyARjxwc+pJwPJQDKQDIyXgUwAxnvsc+bJQDKQDCQDI2YgE4ARH/ycejKQDCQDycB4GcgEYLzHPmeeDCQDyUAyMGIGMgEY8cHPqScDyUAykAyMl4FMAMZ77HPmyUAykAwkAyNmIBOAER/8nHoykAwkA8nAeBnIBGC8xz5nngwkA8lAMjBiBjIBGPHBz6knA8lAMpAMjJeBTADGe+xz5slAMpAMJAMjZiATgBEf/Jx6MpAMJAPJwHgZyARgvMc+Z54MJAPJQDIwYgYyARjxwc+pJwPJQDKQDIyXgUwAxnvsc+bJQDKQDCQDI2YgE4ARH/ycejKQDCQDycB4GcgEYLzHPmeeDCQDyUAyMGIGMgEY8cHPqScDyUAykAyMl4FMAMZ77HPmyUAykAwkAyNmIBOAER/8nHoykAwkA8nAeBnIBGC8xz5nngwkA8lAMjBiBjIBGPHBz6knA8lAMpAMjJeBTADGe+xz5slAMpAMJAMjZiATgBEf/Jx6MpAMJAPJwHgZyARgvMc+Z54MJAPJQDIwYgYyARjxwc+pJwPJQDKQDIyXgUwAxnvsc+bJQDKQDCQDI2YgE4ARH/ycejKQDCQDycB4GcgEYLzHPmeeDCQDyUAyMGIGMgEY8cHPqScDyUAykAyMl4FMAMZ77HPmyUAykAwkAyNmIBOAER/8nHoykAwkA8nAeBnIBGC8xz5nngwkA8lAMjBiBjIBGPHBz6knA8lAMpAMjJeBTADGe+xz5slAMpAMJAMjZiATgBEf/Jx6MpAMJAPJwHgZyARgvMc+Z54MJAPJQDIwYgYyARjxwc+pJwPJQDKQDIyXgUwAxnvsc+bJQDKQDCQDI2YgE4ARH/ycejKQDCQDycB4GcgEYLzHPmeeDCQDyUAyMGIGMgEY8cHPqScDyUAykAyMl4FMAMZ77HPmyUAykAwkAyNmIBOAER/8nHoykAwkA8nAeBnIBGC8xz5nngwkA8lAMjBiBjIBGPHBz6knA8lAMpAMjJeB/x9x8/ac+SpJqgAAAABJRU5ErkJggg==;" parent="1" vertex="1">
          <mxGeometry x="1377.5042016806722" y="480.25" width="67.5" height="67.5" as="geometry" />
        </mxCell>
        <mxCell id="hp9oeOOODYRauGGsMiqM-8" value="&lt;span style=&quot;font-size: 10px; text-wrap-mode: wrap;&quot;&gt;Photoroom: edición avanzada, conectado por API&lt;/span&gt;" style="text;html=1;align=center;verticalAlign=middle;resizable=0;points=[];autosize=1;strokeColor=none;fillColor=none;fontColor=default;" parent="1" vertex="1">
          <mxGeometry x="1358" y="499" width="240" height="30" as="geometry" />
        </mxCell>
        <mxCell id="hp9oeOOODYRauGGsMiqM-9" value="" style="shape=image;html=1;verticalLabelPosition=bottom;verticalAlign=top;imageAspect=1;aspect=fixed;image=img/clipart/Gear_128x128.png" parent="1" vertex="1">
          <mxGeometry x="1406.05" y="448.99999999999994" width="38.95" height="45.7" as="geometry" />
        </mxCell>
        <mxCell id="e7JSxl5cCGnPi-11H5tG-36" value="Eduardo Castellanos Cruz&lt;div&gt;&lt;div&gt;Grupo AXO - GUESS HB&lt;/div&gt;&lt;/div&gt;&lt;div&gt;github.com/green-ayotl/Styles-To-Search&lt;/div&gt;" style="rounded=1;whiteSpace=wrap;html=1;fillColor=#eeeeee;strokeColor=#36393d;gradientColor=none;fillStyle=auto;dashed=1;dashPattern=1 1;strokeWidth=5;perimeterSpacing=0;glass=0;shadow=0;fontStyle=1;fontFamily=Helvetica;fontSize=19;fontColor=default;" vertex="1" parent="1">
          <mxGeometry x="88" y="1039" width="390" height="110" as="geometry" />
        </mxCell>
        <mxCell id="e7JSxl5cCGnPi-11H5tG-38" value="Abril 2025" style="shape=parallelogram;perimeter=parallelogramPerimeter;whiteSpace=wrap;html=1;fixedSize=1;fillColor=#cdeb8b;strokeColor=#36393d;dashed=1;dashPattern=1 4;strokeWidth=2;fontSize=25;" vertex="1" parent="1">
          <mxGeometry x="1308" y="1072" width="180" height="80" as="geometry" />
        </mxCell>
      </root>
    </mxGraphModel>
  </diagram>
</mxfile>
